<svg id="Groupe_1361" data-name="Groupe 1361" xmlns="http://www.w3.org/2000/svg" xmlns:xlink="http://www.w3.org/1999/xlink" width="450.103" height="781.772" viewBox="0 0 450.103 781.772">
  <defs>
    <linearGradient id="linear-gradient" x1="49.624" y1="-33.597" x2="48.882" y2="-32.941" gradientUnits="objectBoundingBox">
      <stop offset="0" stop-color="#f8b4a4"/>
      <stop offset="1" stop-color="#f18984"/>
    </linearGradient>
  </defs>
  <g id="Groupe_1352" data-name="Groupe 1352">
    <g id="Groupe_1329" data-name="Groupe 1329" transform="translate(91.5 533.773)">
      <path id="Tracé_2911" data-name="Tracé 2911" d="M53.222,206.377l148.727-86.328-6.341-3.661L46.881,202.716Z" transform="translate(-46.757 -116.388)" fill="#d5dafb"/>
      <path id="Tracé_2912" data-name="Tracé 2912" d="M48.13,229.146l148.727-86.328-.124-25.763L48.005,203.382Z" transform="translate(-41.664 -113.37)" fill="#a9b2f7"/>
      <path id="Tracé_2913" data-name="Tracé 2913" d="M53.075,161.447l-6.216-3.684L46.983,132l6.216,3.684Z" transform="translate(-46.859 -45.672)" fill="#7187fd"/>
    </g>
    <g id="Groupe_1332" data-name="Groupe 1332" transform="translate(113.921 113.071)">
      <g id="Groupe_1330" data-name="Groupe 1330" transform="translate(28.47 139.885)">
        <path id="Tracé_2914" data-name="Tracé 2914" d="M60.338,126.084,160.3,68.065l-4.262-2.46L56.077,123.624Z" transform="translate(-55.993 -65.605)" fill="#d5dafb"/>
        <path id="Tracé_2915" data-name="Tracé 2915" d="M56.916,141.387l99.957-58.019-.084-17.315L56.832,124.072Z" transform="translate(-52.571 -63.577)" fill="#a9b2f7"/>
        <path id="Tracé_2916" data-name="Tracé 2916" d="M60.239,95.888l-4.178-2.476L56.145,76.1l4.178,2.476Z" transform="translate(-56.062 -18.078)" fill="#7187fd"/>
      </g>
      <g id="Groupe_1331" data-name="Groupe 1331">
        <path id="Tracé_2917" data-name="Tracé 2917" d="M68.758,62.113,98.686,43.968l-6.34-3.661L62.418,58.453Z" transform="translate(1.198 -40.308)" fill="#d5dafb"/>
        <path id="Tracé_2918" data-name="Tracé 2918" d="M96.552,481.345,126.481,463.2,93.47,40.974,63.542,59.119Z" transform="translate(6.291 -37.29)" fill="#8a9efd"/>
        <path id="Tracé_2919" data-name="Tracé 2919" d="M101.4,469.5l-6.217-3.684L62.418,43.589l6.216,3.684Z" transform="translate(1.198 -25.444)" fill="#7187fd"/>
        <path id="Tracé_2920" data-name="Tracé 2920" d="M52.082,400.164l14.964-9.073,81.231-277.644.058-42.272Z" transform="translate(-45.617 99.513)" fill="#8a9efd"/>
        <path id="Tracé_2921" data-name="Tracé 2921" d="M57.13,403.182,50.913,399.5l96.5-328.989,6.216,3.684Z" transform="translate(-50.913 96.496)" fill="#a9b2f7"/>
      </g>
    </g>
    <g id="Groupe_1333" data-name="Groupe 1333" transform="translate(127.925 612.748)">
      <path id="Tracé_2922" data-name="Tracé 2922" d="M224.836,237.817,53.446,138.865l14.193-8.194,171.39,98.952Z" transform="translate(-53.446 -130.67)" fill="#d5dafb"/>
      <path id="Tracé_2923" data-name="Tracé 2923" d="M224.836,239.308,53.446,140.356l.278-8.195,171.39,98.952Z" transform="translate(-53.446 -123.915)" fill="#a9b2f7"/>
      <path id="Tracé_2924" data-name="Tracé 2924" d="M84.769,165.005l13.915-8.246-.278-8.194-13.915,8.246Z" transform="translate(87.178 -49.612)" fill="#7187fd"/>
    </g>
    <g id="Groupe_1334" data-name="Groupe 1334" transform="translate(213.62 563.272)">
      <path id="Tracé_2925" data-name="Tracé 2925" d="M240.333,228.87,68.943,129.917l14.194-8.194,171.39,98.952Z" transform="translate(-68.943 -121.723)" fill="#d5dafb"/>
      <path id="Tracé_2926" data-name="Tracé 2926" d="M240.333,230.361,68.943,131.408l.278-8.194,171.39,98.952Z" transform="translate(-68.943 -114.968)" fill="#a9b2f7"/>
      <path id="Tracé_2927" data-name="Tracé 2927" d="M100.266,156.058l13.915-8.246-.278-8.194-13.915,8.246Z" transform="translate(71.681 -40.665)" fill="#7187fd"/>
    </g>
    <g id="Groupe_1335" data-name="Groupe 1335" transform="translate(238.618 207.494)">
      <path id="Tracé_2928" data-name="Tracé 2928" d="M253.859,165.217,73.464,61.177,80.7,57.383,260.812,161.135Z" transform="translate(-73.464 -57.383)" fill="#798efd"/>
      <path id="Tracé_2929" data-name="Tracé 2929" d="M253.859,198.078,73.464,94.038l.279-35.96L253.859,162.067Z" transform="translate(-73.464 -54.234)" fill="#7187fd"/>
      <path id="Tracé_2930" data-name="Tracé 2930" d="M106.086,116.239l6.952-3.522V76.146l-6.952,4.082Z" transform="translate(74.309 27.606)" fill="#7187fd"/>
    </g>
    <g id="Groupe_1336" data-name="Groupe 1336" transform="translate(277.173 640.972)">
      <path id="Tracé_2931" data-name="Tracé 2931" d="M86.8,225.763l148.727-86.328-6.34-3.661L80.458,222.1Z" transform="translate(-80.334 -135.774)" fill="#d5dafb"/>
      <path id="Tracé_2932" data-name="Tracé 2932" d="M81.706,248.532,230.433,162.2l-.124-25.763L81.583,222.768Z" transform="translate(-75.242 -132.756)" fill="#a9b2f7"/>
      <path id="Tracé_2933" data-name="Tracé 2933" d="M86.652,180.833l-6.216-3.684.124-25.763,6.217,3.684Z" transform="translate(-80.436 -65.058)" fill="#7187fd"/>
    </g>
    <g id="Groupe_1337" data-name="Groupe 1337" transform="translate(277.173 640.972)">
      <path id="Tracé_2934" data-name="Tracé 2934" d="M86.8,225.763l148.727-86.328-6.34-3.661L80.458,222.1Z" transform="translate(-80.334 -135.774)" fill="#d5dafb"/>
      <path id="Tracé_2935" data-name="Tracé 2935" d="M81.706,248.532,230.433,162.2l-.124-25.763L81.583,222.768Z" transform="translate(-75.242 -132.756)" fill="#a9b2f7"/>
      <path id="Tracé_2936" data-name="Tracé 2936" d="M86.652,180.833l-6.216-3.684.124-25.763,6.217,3.684Z" transform="translate(-80.436 -65.058)" fill="#7187fd"/>
    </g>
    <g id="Groupe_1340" data-name="Groupe 1340" transform="translate(299.594 123.962)">
      <g id="Groupe_1338" data-name="Groupe 1338" transform="translate(28.469 236.14)">
        <path id="Tracé_2937" data-name="Tracé 2937" d="M93.915,145.461l99.957-58.019-4.261-2.46L89.654,143Z" transform="translate(-89.57 -84.981)" fill="#b1c3fe"/>
        <path id="Tracé_2938" data-name="Tracé 2938" d="M90.493,160.763l99.957-58.019-.083-17.315L90.41,143.448Z" transform="translate(-86.148 -82.953)" fill="#9aacfe"/>
        <path id="Tracé_2939" data-name="Tracé 2939" d="M93.817,115.264l-4.178-2.476.084-17.315L93.9,97.949Z" transform="translate(-89.639 -37.454)" fill="#7187fd"/>
      </g>
      <g id="Groupe_1339" data-name="Groupe 1339">
        <path id="Tracé_2940" data-name="Tracé 2940" d="M102.388,64.083l29.928-18.145-6.34-3.661L96.047,60.422Z" transform="translate(-32.143 -42.277)" fill="#d5dafb"/>
        <path id="Tracé_2941" data-name="Tracé 2941" d="M130.182,579.858l29.928-18.145L127.1,42.943,97.171,61.089Z" transform="translate(-27.05 -39.26)" fill="#8a9efd"/>
        <path id="Tracé_2942" data-name="Tracé 2942" d="M135.025,568.012l-6.217-3.683L96.047,45.559l6.217,3.684Z" transform="translate(-32.143 -27.413)" fill="#7187fd"/>
        <path id="Tracé_2943" data-name="Tracé 2943" d="M85.66,419.54l14.965-9.073,81.231-277.644.058-42.272Z" transform="translate(-79.195 176.392)" fill="#8a9efd"/>
        <path id="Tracé_2944" data-name="Tracé 2944" d="M90.707,422.558l-6.216-3.684,96.5-328.989,6.216,3.684Z" transform="translate(-84.491 173.375)" fill="#a9b2f7"/>
      </g>
    </g>
    <path id="Tracé_2945" data-name="Tracé 2945" d="M161.983,39.261,111.659,383.9l-27.168,15.46V376.157l20.026-9.623L154.323,45.049Z" transform="translate(215.103 68.022)" fill="#d5dafb"/>
    <path id="Tracé_2946" data-name="Tracé 2946" d="M128.406,19.86,314.079,127.143,50.913,379.962V356.756l20.027-9.623L120.746,25.648Z" transform="translate(63.008 -19.86)" fill="#dddfef"/>
    <path id="Tracé_2947" data-name="Tracé 2947" d="M50.913,80.785,236.586,188.067v23.206L50.913,103.991Z" transform="translate(63.008 256.112)" fill="#8a9efd"/>
    <path id="Tracé_2948" data-name="Tracé 2948" d="M70.94,79.044,256.613,186.327,236.586,195.7,50.913,88.413Z" transform="translate(63.008 248.229)" fill="#a9b2f7"/>
    <path id="Tracé_2949" data-name="Tracé 2949" d="M54.535,342.391,240.207,449.674l49.806-321.485L104.34,20.906Z" transform="translate(79.413 -15.118)" fill="#ff8fac"/>
    <path id="Tracé_2950" data-name="Tracé 2950" d="M112.4,147.98c12.829-1.532,28.495-7.664,36.363-22.191,3.76-6.94,3.9-15.24.619-20.488a8.18,8.18,0,0,0-7.205-4.2c-1.322.055-3.439,1.327-5.607,2.566,7.183-11.977,17.33-23.479,10.965-38.614-2.3-5.469-6.542-7.775-11.247-5.6-2.837,1.311-5.391,4.335-7.565,7.67a39.89,39.89,0,0,0-3.047,5.613q-1.75,8.643-5.447,2.826c2.792-7.283-2.759-15.439-7.371-10.678-8.134,8.4-14.344,18.453-19.912,29.789-2.793-8.8-8.129-13.448-16.689-4.739-5.983,6.083-8.51,16.379-9.506,26-.868,8.372-1.017,16.075-3.185,24.5C62.6,144.2,61.315,147.8,60.038,151.4c-.321.542-.652,1.045-.968,1.62a16.075,16.075,0,0,0-1.991,7.493c-.122.442-.277.874-.393,1.322-.459,1.8.088,3.141,1,3.39,1.819,6,7.194,9.063,11.579,2.405,12.353-18.773,22.152,8.737,35.014-1.51C109.893,161.644,112.2,154.859,112.4,147.98Z" transform="translate(88.41 155.834)" fill="#fc5c7f"/>
    <path id="Tracé_2951" data-name="Tracé 2951" d="M196.731,78.732c-12.812-14.665-31.21-31.763-52.444-29.888-9.732.863-17.225,5.579-24.6,11.657-4.191,3.456-8.532,10.523-13.437,12.624a35.463,35.463,0,0,1-4,1.449c-1.4-1.57-2.45-4.208-2.914-8.411-.547-4.944,4.722-10.506,3.2-16.749a19.432,19.432,0,0,0-9.356-11.778C82.3,32.116,71.129,40.709,67.607,50.641c-5.961,16.821.321,39.958,14.51,48.783a31.212,31.212,0,0,0,10.8,6.5c11.618,4.053,23.313.464,33.4-5.845,5.508-3.439,9.765-8.366,14.98-12.138,9.362-6.768,16.1-5.364,26.194-8.228a8.472,8.472,0,0,0,2.068-1.078c7.731,3.926,15.489,7.67,26.089,4.186A2.482,2.482,0,0,0,196.731,78.732Z" transform="translate(128.462 52.822)" fill="#fc5c7f"/>
    <g id="Groupe_1342" data-name="Groupe 1342" transform="translate(212.733 126.312)">
      <path id="Tracé_2952" data-name="Tracé 2952" d="M103.886,81.2a5.137,5.137,0,0,1,4.424.028c3.517,1.825,6.486,8.1,8.532,13.537a191.082,191.082,0,0,1,9.561,35.025c-4.794-11.983-13.658-21.743-17.479-33.9q-7.042,5.325-14.079,10.65c-2.82,2.135-10.031,13.128-13.736,10.307C78.576,97.906,94.9,84.425,103.886,81.2Z" transform="translate(-14.141 129.424)" fill="#dd2a78"/>
      <path id="Tracé_2953" data-name="Tracé 2953" d="M87.643,87.279c8.09-12.016,22.694-15.339,37.967-2.206,5.922,15.3,8.068,31.519,5.7,43.115a242.009,242.009,0,0,0-11.928-37.552A8.218,8.218,0,0,0,117.6,87.6a1.8,1.8,0,0,0-1.775-.3c-6.907,1.642-13.83,3.34-20.051,6.685-4.114,2.206-10.916,14.173-15.395,12.536A41.521,41.521,0,0,1,87.643,87.279Z" transform="translate(-16.262 110.993)" fill="#dd2a78"/>
      <path id="Tracé_2954" data-name="Tracé 2954" d="M109.954,70.465a8.3,8.3,0,0,1,5.463,2.118,24.274,24.274,0,0,1,4.512,6.464c6.807,12.812,10.224,27.449,11.684,40.549q-6-14.474-12-28.954c-.531-1.283-1.233-2.787-2.068-3.185a1.156,1.156,0,0,0-1.128.127,179.79,179.79,0,0,0-21.14,12.857c-2.566,1.808-12.586,13.111-15-.337C78.728,91.472,87.542,81.32,90.644,78.1A23.989,23.989,0,0,1,109.954,70.465Z" transform="translate(-17.538 82.817)" fill="#dd2a78"/>
      <path id="Tracé_2955" data-name="Tracé 2955" d="M96.394,70.817c1.8-2.339,3.639-4.706,6.177-5.552,4.606-1.543,10.772,2.09,16.573,5.646a6.526,6.526,0,0,1,2.157,1.88,12.2,12.2,0,0,1,1.416,3.373,182.072,182.072,0,0,1,6.591,31.63q-4.894-10.227-9.8-20.454a13.05,13.05,0,0,0-1.465-2.566c-1.958-2.416-3.688-.735-4.85.807-5.928,7.847-15.8,8.051-23.109,13.41-2.107,1.543-5.5,8.787-8.278,7.985-5.452-1.576-1.626-8.908-.691-11.319C85,85.631,90.726,78.171,96.394,70.817Z" transform="translate(-22.779 57.848)" fill="#dd2a78"/>
      <path id="Tracé_2956" data-name="Tracé 2956" d="M79.253,105.031C81.78,88.159,86.486,73.4,93.127,61.479c.409-.741.863-1.5,1.593-1.609A4.328,4.328,0,0,1,97.269,60.9,95.639,95.639,0,0,1,113.52,74.75c-13.708,6.923-25.8,17.5-35.832,31.381Z" transform="translate(-28.443 34.991)" fill="#dd2a78"/>
      <path id="Tracé_2957" data-name="Tracé 2957" d="M84.1,53.54Q89.548,60.814,95,68.1c-3.605-.3-5.784,3.152-7.742,6.481-3.213,5.441-5.856,14.438-10.23,17.684C77.1,88.449,83.037,52.124,84.1,53.54Z" transform="translate(-31.441 6.207)" fill="#dd2a78"/>
      <path id="Tracé_2958" data-name="Tracé 2958" d="M77.948,53.227a5.633,5.633,0,0,1,.4-2.217c1.089-1.919,4.07,1.266,6.077,4.114a4.71,4.71,0,0,1,.763,1.388,2.535,2.535,0,0,1-.122,1.681c-2.726,7.581-3.451,25.409-7.852,29.589C73.856,80.56,77.561,60.294,77.948,53.227Z" transform="translate(-36.909 -7.719)" fill="#dd2a78"/>
      <path id="Tracé_2959" data-name="Tracé 2959" d="M71.809,42.712a37.489,37.489,0,0,1,8.8,13.36c3.849,9.622,5.712,25.829,4.363,33.195-3.937-6.276-7.095-15.561-9.163-22.9C75.121,63.946,71.211,42.17,71.809,42.712Z" transform="translate(-55.355 -42.702)" fill="#dd2a78"/>
      <path id="Tracé_2960" data-name="Tracé 2960" d="M71,47.89a94.433,94.433,0,0,1,9.926,16.733,256.97,256.97,0,0,1,16.5,43.209,42.1,42.1,0,0,0-3.9-8.306q-5.532-9.8-11.059-19.6a50.12,50.12,0,0,0-4.916-7.62c-4.877-5.773-4.02-2.018-5.408-9.915C71.766,60.221,72.513,49.809,71,47.89Z" transform="translate(-58.724 -19.203)" fill="#dd2a78"/>
      <path id="Tracé_2961" data-name="Tracé 2961" d="M93.927,85.124c5.358,10.147,10.02,21.168,12.558,32.006Q99.8,106.4,93.12,95.674c-5.806-9.318-21.682-24.95-22.357-36.656C69.652,39.614,90.272,78.211,93.927,85.124Z" transform="translate(-60.005 6.74)" fill="#dd2a78"/>
      <path id="Tracé_2962" data-name="Tracé 2962" d="M70.2,62.532a6.257,6.257,0,0,1,.337-3.268c.774-1.189,2.566-.028,4.053,1.244C85.712,70,95.893,85.99,103.22,102.805s12.027,34.467,15.339,51.454c-6.061-18.043-14.222-35.639-22.893-52.615-3.506-6.862-7.222-13.83-11.69-19.16-3.688-4.4-6.779-4.125-10.053-7.189-2.24-2.1-1.382.973-3.141-3.063C70,70.434,70.285,64.131,70.2,62.532Z" transform="translate(-62.578 30.072)" fill="#dd2a78"/>
      <path id="Tracé_2963" data-name="Tracé 2963" d="M73.093,64.653c.249-.912.542-1.858,1.2-2.1.785-.288,1.875.5,2.875,1.266q6.868,5.292,13.7,11.3a30,30,0,0,1,5.1,5.4A46.858,46.858,0,0,1,99.9,87.96c12.276,26.991,24.3,55.015,30.408,82.68A610.769,610.769,0,0,0,83.262,74.324a7.9,7.9,0,0,0-2.179-2.687c-1.089-.619-1.764.382-2.256,1.366-2.256,4.512-4.49,22.24-9.87,19.3C68.028,82.231,71.009,72.212,73.093,64.653Z" transform="translate(-68.782 46.958)" fill="#dd2a78"/>
      <path id="Tracé_2964" data-name="Tracé 2964" d="M78.232,69.4c.354-.841.763-1.709,1.526-1.758.857-.05,1.93.951,2.892,1.963,10.39,10.954,18.22,28.041,24.983,44.243,7.443,17.855,14.493,36.258,18.231,54.235-7.294-13.045-15.378-25.188-22.672-38.232s-13.951-27.461-16.96-41.6c-2.328,1.681-13.741,15.721-16.318,9.66C67.383,91.974,76.69,73.04,78.232,69.4Z" transform="translate(-65.616 70.266)" fill="#dd2a78"/>
      <g id="Groupe_1341" data-name="Groupe 1341" transform="translate(29.598 40.908)">
        <path id="Tracé_2965" data-name="Tracé 2965" d="M107.3,293.971C104.786,180.6,74.135,50.1,74.135,50.1c27.261,85.943,32.725,169.607,37.547,243.418Z" transform="translate(-74.135 -50.1)" fill="#dd2a78"/>
      </g>
    </g>
    <g id="Groupe_1343" data-name="Groupe 1343" transform="translate(294.911 428.538)">
      <path id="Tracé_2966" data-name="Tracé 2966" d="M90.007,187.346l148.727-86.328-6.341-3.661L83.666,183.685Z" transform="translate(-83.542 -97.357)" fill="#d5dafb"/>
      <path id="Tracé_2967" data-name="Tracé 2967" d="M84.915,210.115l148.727-86.328-.124-25.763L84.79,184.351Z" transform="translate(-78.45 -94.339)" fill="#a9b2f7"/>
      <path id="Tracé_2968" data-name="Tracé 2968" d="M89.86,142.416l-6.217-3.684.124-25.763,6.216,3.684Z" transform="translate(-83.644 -26.641)" fill="#7187fd"/>
    </g>
    <g id="Groupe_1344" data-name="Groupe 1344" transform="translate(238.618 476.667)">
      <path id="Tracé_2969" data-name="Tracé 2969" d="M73.464,125.428v9.619L129,168l99.878-44.746v-9.619Z" transform="translate(-73.464 -71.771)" fill="#cdd2fa"/>
      <path id="Tracé_2970" data-name="Tracé 2970" d="M97.825,108.424,73.464,159.718,129,192.666l99.878-44.746-78.366-41.859Z" transform="translate(-73.464 -106.061)" fill="#e4e7fc"/>
    </g>
    <g id="Groupe_1351" data-name="Groupe 1351" transform="translate(0 182.066)">
      <g id="Groupe_1349" data-name="Groupe 1349">
        <g id="Groupe_1348" data-name="Groupe 1348">
          <path id="Tracé_2971" data-name="Tracé 2971" d="M52.665,74.584S46.92,62.568,39.084,88.165s-2.616,77.543-7.836,92.827,13.105,34.4,13.105,35.965,21.295-2.085,21.295-2.085S77.173,193.561,77.173,192,56.315,207.247,60.5,199.412s20.427-74.69,20.427-86.18S54.147,73.539,54.147,73.539Z" transform="translate(-30.312 33.197)" fill="#feeb82"/>
          <path id="Tracé_2972" data-name="Tracé 2972" d="M58.39,75.05S52.644,63.04,44.809,88.631s-2.61,77.549-7.836,92.833a69.214,69.214,0,0,0-3.655,28.34c0,1.57,21.964,56.851,21.964,56.851s21.389-17.678,21.389-19.243-14.626-39.692-10.446-47.528,20.421-74.69,20.421-86.18-26.775-39.7-26.775-39.7Z" transform="translate(-17.688 35.318)" fill="#9d5d46" opacity="0.26" style="mix-blend-mode: multiply;isolation: isolate"/>
          <g id="Groupe_1345" data-name="Groupe 1345" transform="translate(14.043 248.069)">
            <path id="Tracé_2973" data-name="Tracé 2973" d="M75.659,164.527a15.794,15.794,0,0,1-7.371,9.268,30.723,30.723,0,0,1-10.96,3.323c-9.6,1.36-20.233.3-22.224.3q-.4,0-.6-.6c-.73-2.123.2-9.434,1.194-15.677.166-.9.3-1.764.464-2.593.7-4.086,1.327-7.205,1.327-7.205s8.836-3.821,16.843-6.547c6.608-2.289,12.657-3.816,12.657-1.825a21.346,21.346,0,0,0,1.294,7.542l1.991,1.393,1.7,1.194,4.418,3.091A20.307,20.307,0,0,1,75.659,164.527Z" transform="translate(-26.533 103.497)" fill="#fdeadd"/>
            <path id="Tracé_2974" data-name="Tracé 2974" d="M87,290.771C79.689,311.4,75,349.53,75,349.53a35.063,35.063,0,0,1-3.522,3.522,41.835,41.835,0,0,1-14.217,8.466c-.531.2-1.062.371-1.593.536-7.6,2.19-14.416-.3-18.3-2.361a21.041,21.041,0,0,1-3.39-2.09s1.6-38.365,3.157-49.364c1.559-10.96-.111-40.577,7.233-54.926,7.3-14.35,6.508-24.281,6.508-35.506s1.139-23.662-9.058-54.75c-10.164-31.094,6.409-64.946,7.211-65.411l23.214,18.641,27.272,11.795s-3.2,70.924-1.637,92.047C99.441,241.291,94.337,270.112,87,290.771Z" transform="translate(-27.737 -97.646)" fill="#16c1a9"/>
            <path id="Tracé_2975" data-name="Tracé 2975" d="M109.117,160.386c-3.29,3.251-22.489,9.4-29.263,9.4s-20.095,14.61-29,16.971a13.026,13.026,0,0,1-7.139-.265c-6.05-1.758-10.866-6.84-10.866-7.642a46.428,46.428,0,0,1,1.366-5.38c.863-2.853,1.758-5.779,1.758-5.779l4.85-1.062,22.589-5.049,9-2s4.12-2.356,9.566-5.248c8.8-4.617,21.1-10.562,25.315-10C114.1,145.6,112.34,157.162,109.117,160.386Z" transform="translate(-32.851 113.688)" fill="#b1c3fe"/>
            <path id="Tracé_2976" data-name="Tracé 2976" d="M108.547,155.328c-2.654,7.31-14.648,11.225-27.538,12.79-7.769.929-13.382,5.214-18.762,8.969-.271.2-.536.365-.8.564-3.257,2.223-6.481,4.219-10.1,5.082a16.188,16.188,0,0,1-3.954.431c-6.343-.133-11.856-3.921-13.747-7.443a4.682,4.682,0,0,1-.6-3.052c1.067-4.451,4.485-16.545,6.813-18.834.63-.63,1.161-.763,1.593-.63,1.233.332,1.792,2.621,1.792,2.621,3.39,2.029,9.937,3.157,19.072,2.361,9.168-.8,13.05-7.576,14.775-11.762a7.792,7.792,0,0,1,.636-1.261c1.393-2.262,2.555-.232,5.745.232,3.655.531,11.358-2.859,18.536-1.062a12.453,12.453,0,0,1,4.982,2.323C109.575,148.852,109.741,151.938,108.547,155.328Z" transform="translate(-32.281 111.436)" fill="#f18984"/>
          </g>
          <path id="Tracé_2977" data-name="Tracé 2977" d="M51.094,160.408s-5.27,26.067-2.4,26.067,23.153,2.19,33.189-3.605,8.123-22.462,8.123-22.462l-8.123-.824a21.559,21.559,0,0,1-1.277-7.531C80.606,147.613,51.094,160.408,51.094,160.408Z" transform="translate(49.079 392.629)" fill="#fdeadd"/>
          <path id="Tracé_2978" data-name="Tracé 2978" d="M114.15,175.744c-4.65,6.442-38.8,25.11-49.225,27.7a4.5,4.5,0,0,1-.935.2c-9.135,1.565-17.5-7.3-17.5-7.3l.465-6.044.066-.763-.3.293c.929-1,5.48-2.621,11.259-2.621,2.09,0,6.442-1.46,11.59-3.655,1.134-.464,2.295-1,3.489-1.559,8.306-3.755,17.54-8.9,22.124-12.757a12.467,12.467,0,0,0,2.488-2.654c3.688-6.182,7.808-12.757,15.809-14.615C121.721,150.1,118.834,169.263,114.15,175.744Z" transform="translate(42.968 395.879)" fill="#b1c3fe"/>
          <g id="Groupe_1346" data-name="Groupe 1346" transform="translate(89.457 546.506)">
            <path id="Tracé_2979" data-name="Tracé 2979" d="M56.491,152.868c-.265.066-.536.1-.763.166a2.671,2.671,0,0,1-1.034,0,2.949,2.949,0,0,1-.6-.166c-.332-.2.2-.332,1.067-.232A7.466,7.466,0,0,1,56.491,152.868Z" transform="translate(-12.48 -147.149)" fill="#c100ff"/>
            <path id="Tracé_2980" data-name="Tracé 2980" d="M111.258,174.073c-4.916,6.58-31.254,18.768-43.58,22.191a32.58,32.58,0,0,1-3.357.763c-8.5,1.36-15.544-2.162-17.369-5.745a5.217,5.217,0,0,1-.232-.47,4.294,4.294,0,0,1-.232-1.322c.066-4.485,2.024-22.025,7.471-20.9a2.862,2.862,0,0,1,1.261.664c1.731,1.725,1.432,5.646,10.235,5.214,2.754-.133,5.712-.332,8.632-.7,8.14-1,16.08-3.29,18.967-9.434,1.83-3.921.265-5.812-1.626-6.641a5.381,5.381,0,0,0-.929-.365c5.214-1.3,17-7.941,22.185-4.955a5.242,5.242,0,0,1,.8.57C118.436,156.87,116.473,167.094,111.258,174.073Z" transform="translate(-46.489 -151.616)" fill="#f18984"/>
          </g>
          <path id="Tracé_2981" data-name="Tracé 2981" d="M133.605,237.915c-3.124,53.013-7.039,69.757-13.321,86.993-6.243,17.208-1.559,66.561-2.322,72.179a6.989,6.989,0,0,1-2.256,4.319,1.055,1.055,0,0,1-.371.3c-2.92,2.522-8.035,4.418-16.108,7.537-.464.166-.929.332-1.393.531a21.514,21.514,0,0,1-15.478.2,22.873,22.873,0,0,1-7.742-4.651l-.73.4s-4.518-29.9-3.721-48.7c.763-18.8,12.259-50.42,13.586-59.82,1.294-9.4-4.684-35.644-7.708-61.794-8.9-77-37.215-41.932-35.152-87.48.868-19.2,6.044-49.485,6.044-49.485l69.9,16.683s14.184,38.055,14.88,43.668C133.373,172.211,135.834,200.512,133.605,237.915Z" transform="translate(17.115 154.042)" fill="#1ed2be"/>
          <path id="Tracé_2982" data-name="Tracé 2982" d="M91.981,112.3c-1.4-.8-27.7,27.173-49.629,13.056L40.428,91.4c1.261.2,7.238.431,8.206-16.208.326-5.646,3.816-7.443,8.5-7.244a35.245,35.245,0,0,1,10.932,2.726,105.779,105.779,0,0,1,16.075,8.2s-.265,2.992-.4,6.68c-.166,5.148-.066,11.623,1.427,13.15,1.294,1.3,3.357,4.883,4.883,8.04C91.611,109.94,92.673,112.694,91.981,112.3Z" transform="translate(15.513 15.856)" fill="#fdeadd"/>
          <path id="Tracé_2983" data-name="Tracé 2983" d="M156.681,239.809s-.658,22.406-41.39,18.585c-20.183-1.9-69.138-30.585-69.613-39.875C43.532,176.582,28.022,81.432,34.895,74.592c6.879-6.879,43.314-1.134,43.314-1.134s-7.576,2.726,9.4,10.965c10.462,5.082,33.283,5.48,33.283,5.48s16.937,11.292,31.586,22.119c7.5,5.546,14.416,10.965,18.171,14.681,10.96,10.993-5.48,55.64-10.993,69.757C154.176,210.545,156.681,239.809,156.681,239.809Z" transform="translate(-17.452 30.678)" fill="#fcd275"/>
          <path id="Tracé_2984" data-name="Tracé 2984" d="M116.378,86.736a47.892,47.892,0,0,1-7.349-8.339,13.743,13.743,0,0,1-5.955,1.239V98.47s-5.48,3.157-8.6,14.117c-2.1,7.3-13.99,19.6-22.788,27.6a82.025,82.025,0,0,1-9.334,7.67s.6,2.328,1.593,5.784c2.892,9.732,9.268,28.362,15.677,27.5a22.352,22.352,0,0,0,2.593-.5c6.177-1.526,6.674-5.049,10.164-10.86,3.39-5.679,19.133-50.127,23.286-61.916.63-1.825,1-2.853,1-2.853.6-.37,5.115-3.091,9.666-5.751a5.753,5.753,0,0,0,1.819-1.891C124,94.035,120.194,90.153,116.378,86.736Z" transform="translate(114.827 63.231)" fill="#fdeadd"/>
          <path id="Tracé_2985" data-name="Tracé 2985" d="M105.494,97.26c2.488,12.16.6,23.186-2.527,26.31-2.223,2.223,2.262,14.045-11.026,11.69-2.687-.464-4.949-.8-6.94-1.128-6.309-.929-9.765-1.465-14.283-4.186A32.592,32.592,0,0,1,67,127.452c-2.1-1.559-5.215-5.579-8.6-10.927-10.13-16.009-22.65-44.011-16.705-53.71,4.451-7.244,23.048-6.177,38.631-3.887,12.287,1.864,22.65,4.518,22.65,4.518l1.095-.63a29.686,29.686,0,0,1,1.963,19.8C103.3,93.737,102.967,85.133,105.494,97.26Z" transform="translate(14.254 -32.716)" fill="#fdeadd"/>
          <path id="Tracé_2986" data-name="Tracé 2986" d="M118.249,69.165c-11.5-6.641-23.313-21.936-47.926-14.289,0,0-13.006,2.1-19.448,8.543a46.756,46.756,0,0,0-14.1,30.812c-1.045,18.807,9.4,36.562,18.281,45.443s6.265,10.545,6.265,10.545,21.334,3.03,24.248,3.03,13.88-17.756,13.88-17.756-7.437-21.864-5.071-22.307c2.8-.525,3.766,6.166,12.514,6.9,0,0,3.285-18.06,11.358-22.722s10.213-19.846,10.213-29.772S129.751,75.8,118.249,69.165Z" transform="translate(-1.365 -52.785)" fill="#613780"/>
          <g id="Groupe_1347" data-name="Groupe 1347" transform="translate(89.502 53.677)">
            <path id="Tracé_2987" data-name="Tracé 2987" d="M57.522,68.272c-.061-.232-2.234-7.183-5.5-5.524s-5.779,5.342-5.5,10.838,2.157,12.469,5.812,12.9,4.711,1.073,7.061-1.493a7.309,7.309,0,0,0,1.62-5.994Z" transform="translate(-46.497 -62.492)" fill="#d27e76"/>
            <path id="Tracé_2988" data-name="Tracé 2988" d="M57.783,68.4c-.061-.227-2.24-7.183-5.508-5.519s-5.779,5.336-5.5,10.833,2.162,12.469,5.817,12.9,4.711,1.067,7.056-1.5a7.3,7.3,0,0,0,1.62-5.989Z" transform="translate(-45.342 -61.909)" fill="#fedec3"/>
            <path id="Tracé_2989" data-name="Tracé 2989" d="M53.212,67.884s-1.565,3.058-2.179,4.4-1.349,3.583-.735,4.8A15.949,15.949,0,0,0,51.5,79.12,50.314,50.314,0,0,1,52.83,71.4c.752-2.068,1.156-3.937.431-5.629s-1.228-3.81-2.92-2.157a9.357,9.357,0,0,0-3.251,6.99c-.094,3.428.531,7.161,1.886,8.908a11.044,11.044,0,0,0,3.334,2.748s-3.932-2.3-4.236-6.271.116-10,1.421-10.877,1.5-1.067,1.432.4-1.167,3.539-.028,2.964,1.5-2.588,2.029-1.681S53.212,67.884,53.212,67.884Z" transform="translate(-43.851 -60.141)" fill="#fdeadd"/>
            <path id="Tracé_2990" data-name="Tracé 2990" d="M48.681,67.473s.923-3.1,1.576-2.92.785.21,1.073,1.333.3,1.537,1.333,1.366,1.83-.94.791.387-1.089-.227-2.66.575-1.255,2.228-2.245,2.2-.149-2.129.238-2.71Z" transform="translate(-39.321 -53.189)" fill="#fdeadd"/>
          </g>
          <path id="Tracé_2991" data-name="Tracé 2991" d="M128.278,174.936A35.612,35.612,0,0,1,122.4,177c-11.728,3.119-26.111-2.527-35.611-15.815-9.533-13.316-8.5-.8-28.229-32.15a39.887,39.887,0,0,1-5.983-14.886C48.987,92.295,71.211,80.472,71.211,80.472c24.314-7.045,38.4,33.676,40.754,43.082.9,3.616,3.091,7.139,5.784,10.927,4.214,5.944,9.666,12.552,13.017,21.19.669,1.725,1.233,3.323,1.7,4.75C134.886,168.428,133.725,172.315,128.278,174.936Z" transform="translate(68.765 68.942)" fill="#feeb82"/>
          <path id="Tracé_2992" data-name="Tracé 2992" d="M156.7,83.727c-4.153,11.789-19.9,56.237-23.286,61.916-3.489,5.812-3.987,9.334-10.164,10.86a35.612,35.612,0,0,1-5.878,2.063c-11.728,3.119-26.111-2.527-35.611-15.815-9.533-13.316-8.5-.8-28.229-32.15-3.39-5.38,29.556,6.791,53.29,36.07,4.728,5.834,18.121-1.294,20.615-4.684,3.058-4.153,4.75-12.287,8.4-19.5,6.647-13.122,12.956-33.383,18.8-36.773A5.67,5.67,0,0,0,156.7,83.727Z" transform="translate(73.789 87.374)" fill="#fedec3" opacity="0.26" style="mix-blend-mode: multiply;isolation: isolate"/>
        </g>
        <path id="Tracé_2993" data-name="Tracé 2993" d="M40.228,75.439l8.9-4.949s-4.247,3.954,17.938,7.061S89.945,87.6,89.945,87.6l11.662,13.979S67.1,97.016,52.664,90.132s-12.436-12.58-12.436-12.58Z" transform="translate(14.176 27.415)" fill="#feeb82"/>
        <path id="Tracé_2994" data-name="Tracé 2994" d="M63.466,91.616s-2.649-8.405,13.465.9S95.6,112.153,97.352,122.6s-24.2,20.587-23.479,17.618c1.421-5.895,7.93-19.951,2.295-25.586Z" transform="translate(119.133 107.328)" fill="#f3bc43"/>
      </g>
      <path id="Tracé_2995" data-name="Tracé 2995" d="M69.8,122.758s-1.062-3.849,3.793-14.831,8.8-25.658,8.8-25.658,7.277-3.207,5.237,6.94-4.081,23.031-4.081,23.031l9.179-10.705S96.036,88.784,96.036,83.9s-2.842-12.94,1.814-14.77c2.522-.99,5.834,15.422,5.834,15.422l-.265,10.877s1.283.52,1.283,3.1a29.663,29.663,0,0,0,.514,5.126,25.025,25.025,0,0,1,1.83,4.816,17.9,17.9,0,0,1,.127,6.171s1.875,6.431.337,10.86c-2.04,5.861-2.842,9.212-12.641,14.04s-16.423,7.88-17.949,7.88S69.8,122.758,69.8,122.758Z" transform="translate(148.103 21.065)" fill="#fdeadd"/>
      <g id="Groupe_1350" data-name="Groupe 1350" transform="translate(235.808 56.954)">
        <path id="Tracé_2996" data-name="Tracé 2996" d="M74,118.074c-1.72-16.418-.769-33.145-.525-49.624.011,2.7,6.625,2.726,6.536.055.31,12.27-.171,24.74-.874,37a132.078,132.078,0,0,1-1.471,15.052c-.277,1.6-.4,4.977-1.781,6.088C74.181,125.174,74.2,119.893,74,118.074Z" transform="translate(-72.768 -38.78)" fill="#f3bc43"/>
        <path id="Tracé_2997" data-name="Tracé 2997" d="M76.015,69a7.782,7.782,0,0,1-2.455-.022q-.066,3.144-.144,6.3c-.3,12.657-.614,25.741.664,38.415.5-3.76.747-7.631.99-11.828C75.6,92.742,76.154,81.013,76.015,69Z" transform="translate(-72.075 -36.402)" fill="#feeb82"/>
        <path id="Tracé_2998" data-name="Tracé 2998" d="M79.743,85.541c-.315.791-.387.857-.459.923a2.4,2.4,0,0,1-.547.415,5.113,5.113,0,0,1-4.628-.105,2.335,2.335,0,0,1-.4-.3c.116-7.775-.111-17.861-.647-21.77a1.071,1.071,0,0,0,.315.509c.885.763,3.628,3,4.634,2.3.111-.16,1.736,17.938,1.736,17.938A.43.43,0,0,0,79.743,85.541Z" transform="translate(-72.491 -55.767)" fill="#cdd2fa"/>
        <path id="Tracé_2999" data-name="Tracé 2999" d="M76.186,66.515a7,7,0,0,1-2.8-1.338,132.025,132.025,0,0,1-.105,17.966,3.622,3.622,0,0,0,3.959.647,1.447,1.447,0,0,0,.271-.182C77.69,83.3,76.186,66.515,76.186,66.515Z" transform="translate(-71.499 -53.606)" fill="#f4f6fe"/>
        <path id="Tracé_3000" data-name="Tracé 3000" d="M73.838,72.527a1.071,1.071,0,0,1-.315-.509c-.249-1.183-.829-4.451-.431-6,.476-1.814.713-3.55,2.107-2.721l1.288.763c1.393.829,2.035,3.29,2.013,5.165,0,0,.979,4.368.083,5.441C77.465,75.529,74.722,73.29,73.838,72.527Z" transform="translate(-72.955 -63.084)" fill="url(#linear-gradient)"/>
      </g>
    </g>
    <path id="Tracé_3001" data-name="Tracé 3001" d="M36.595,98.445s9.417,29.147,77.925,38.979c25.652,3.683,29.363-14.438,29.363-14.438l2.123,3.539c.083.829,2,5.148,1.51,5.834-3.34,4.65-18.082,22.462-43.895,15.572-44.083-11.767-63.039-30.48-67.285-35.23a3.283,3.283,0,0,1-.818-2.555Z" transform="translate(-6.809 336.108)" fill="#f18984"/>
    <path id="Tracé_3002" data-name="Tracé 3002" d="M45.281,122.132l-4.786-2.763V102.112l4.786,2.763Z" transform="translate(15.815 352.719)" fill="#1ed2be"/>
    <path id="Tracé_3003" data-name="Tracé 3003" d="M52.791,122.295l-4.785-2.763V105.165l4.785-.127Z" transform="translate(49.836 365.972)" fill="#1ed2be"/>
    <path id="Tracé_3004" data-name="Tracé 3004" d="M58.611,116.223l-4.786,4.788V108.24l4.786-4.486Z" transform="translate(76.198 360.158)" fill="#1ed2be"/>
    <path id="Tracé_3005" data-name="Tracé 3005" d="M38.154,119.14l-2.393-1.382L35.416,97.85l2.738,4.033Z" transform="translate(-7.188 333.413)" fill="#1ed2be"/>
  </g>
  <g id="Groupe_1354" data-name="Groupe 1354" transform="translate(223.729 410.229)">
    <path id="Tracé_3006" data-name="Tracé 3006" d="M90.617,96.13v14.239c.017,1.471-.946,2.942-2.887,4.064A15.617,15.617,0,0,1,76.715,115.6a11.745,11.745,0,0,1-3.014-1.194c-.282-.166-.542-.332-.785-.509a4.54,4.54,0,0,1-2.14-3.528c-.006-.039-.006-14.305-.006-14.305a7.648,7.648,0,0,0,.481,1.758c.066.122.138.238.216.354a6.053,6.053,0,0,0,.415.525,8.365,8.365,0,0,0,1.034.929c.254.171.348.238.448.3.791.453.912.514,1.029.575s.243.111.365.16.249.105.376.16c.111.044.227.083.343.127l.431.149c.133.039.265.083.4.122s.265.072.4.105c.277.072.382.094.487.116.227.055.453.1.686.138.166.028.332.055.5.077.4.055.63.077.852.1,1.283.066,1.526.066,1.764.061.852-.028.99-.039,1.128-.05.2-.017.3-.028.4-.039l.293-.033.288-.033c.155-.028.3-.05.459-.077s.31-.05.453-.083.3-.061.448-.094.3-.072.448-.111l.315-.094c.2-.055.4-.122.6-.188.857-.337.957-.382,1.051-.426s.194-.088.293-.133C89.655,99.05,90.617,97.59,90.617,96.13Z" transform="translate(-70.771 -84.906)" fill="#fcd275"/>
    <path id="Tracé_3007" data-name="Tracé 3007" d="M90.613,99.807a3.986,3.986,0,0,1-1.2,2.732,7.531,7.531,0,0,1-1.687,1.3,11.4,11.4,0,0,1-2.383,1.012,12.912,12.912,0,0,1-1.327.332c-.138.028-.276.055-.42.077a16.891,16.891,0,0,1-3.357.232c-.52-.011-1.034-.055-1.543-.116-.592-.077-.923-.133-1.255-.2-.16-.033-.326-.072-.487-.111-.37-.094-.5-.127-.619-.16-.166-.044-.3-.089-.431-.133s-.265-.083-.393-.133-.254-.094-.382-.144-.249-.1-.376-.155-.243-.105-.365-.166-.238-.116-.348-.177-.232-.122-.343-.188l-.288-.171c-.288-.188-.393-.26-.5-.337-.376-.288-.481-.382-.586-.476a4.429,4.429,0,0,1-1.554-3.052c-.022-1.476.94-2.942,2.881-4.064a15.5,15.5,0,0,1,14.029.028c1.935,1.117,2.914,2.577,2.925,4.037Z" transform="translate(-70.767 -94.046)" fill="#fefefe"/>
    <path id="Tracé_3008" data-name="Tracé 3008" d="M71.978,96.059c.332.066.664.122,1,.171C72.642,96.181,72.31,96.125,71.978,96.059Z" transform="translate(-65.304 -84.928)" fill="#eceef8"/>
    <path id="Tracé_3009" data-name="Tracé 3009" d="M72.205,96.1c.509.061,1.023.105,1.543.116A14.262,14.262,0,0,1,72.205,96.1Z" transform="translate(-64.275 -84.765)" fill="#eceef8"/>
    <path id="Tracé_3010" data-name="Tracé 3010" d="M72.484,96.116c.138.006.276.011.415.011C72.76,96.127,72.622,96.122,72.484,96.116Z" transform="translate(-63.012 -84.67)" fill="#eceef8"/>
    <path id="Tracé_3011" data-name="Tracé 3011" d="M72.559,96.308a16.469,16.469,0,0,0,2.87-.232A16.469,16.469,0,0,1,72.559,96.308Z" transform="translate(-62.672 -84.851)" fill="#eceef8"/>
    <g id="Groupe_1353" data-name="Groupe 1353" transform="translate(0 5.728)">
      <path id="Tracé_3012" data-name="Tracé 3012" d="M72.784,98.51c-.243-.188-.348-.282-.453-.376a4.428,4.428,0,0,1-1.554-3.052l-.006,5.43a6.414,6.414,0,0,0,.7,2.112,6.056,6.056,0,0,0,.415.525,7.381,7.381,0,0,0,1.034.929V98.61Z" transform="translate(-70.771 -95.082)" fill="#e4e7fc"/>
      <path id="Tracé_3013" data-name="Tracé 3013" d="M84.548,97.82a7.531,7.531,0,0,1-1.687,1.3,11.4,11.4,0,0,1-2.383,1.012,12.916,12.916,0,0,1-1.327.332c-.138.028-.276.055-.42.077a16.8,16.8,0,0,1-2.942.243c-.138,0-.276-.006-.415-.011-.52-.011-1.034-.055-1.543-.116-.592-.077-.923-.133-1.255-.2-.16-.033-.326-.072-.487-.111-.243-.061-.243,5.4-.243,5.4.277.072.382.094.487.116.227.055.453.1.686.138.166.028.332.055.5.077.4.055.63.077.852.1,3.727.133,6.448-.42,8.494-1.6,1.924-1.112,2.887-2.571,2.887-4.031V95.088A3.986,3.986,0,0,1,84.548,97.82Z" transform="translate(-65.902 -95.055)" fill="#e4e7fc"/>
      <path id="Tracé_3014" data-name="Tracé 3014" d="M74.151,98.09l-.431-.149c-.116-.044-.232-.083-.343-.127-.127-.055-.249-.105-.376-.16s-.243-.105-.365-.16-.238-.122-.348-.182-.232-.122-.343-.188c-.437-.265-.531-.332-.625-.393-.16-.111-.16,14.156-.16,14.156.243.177.5.343.785.509a11.744,11.744,0,0,0,3.014,1.194V98.317c-.138-.033-.271-.072-.4-.105S74.283,98.129,74.151,98.09Z" transform="translate(-69.014 -87.622)" fill="#feeb82"/>
      <path id="Tracé_3015" data-name="Tracé 3015" d="M74.582,97.324c-.166-.044-.3-.089-.431-.133s-.265-.083-.393-.133-.254-.094-.382-.144-.249-.1-.376-.155-.243-.105-.365-.166-.238-.116-.348-.177-.232-.122-.343-.188l-.288-.171c-.288-.188-.393-.26-.5-.337v5.469c.254.171.348.238.448.3.448.271.564.332.68.393s.232.122.348.182.243.111.365.16.249.105.376.16c.111.044.227.083.343.127l.431.149c.133.039.265.083.4.122s.265.072.4.105V97.423Z" transform="translate(-69.014 -92.192)" fill="#f4f6fe"/>
    </g>
  </g>
  <g id="Groupe_1356" data-name="Groupe 1356" transform="translate(235.347 436.031)">
    <path id="Tracé_3016" data-name="Tracé 3016" d="M92.713,100.8v14.233c.017,1.471-.946,2.947-2.886,4.064a15.617,15.617,0,0,1-11.015,1.172,12.125,12.125,0,0,1-3.014-1.2,7.591,7.591,0,0,1-.78-.509,4.525,4.525,0,0,1-2.146-3.528V100.73a8.155,8.155,0,0,0,.476,1.764,4.133,4.133,0,0,0,.221.354,5.954,5.954,0,0,0,.409.52,7.5,7.5,0,0,0,1.04.929c.249.177.343.238.442.3.8.453.912.514,1.034.569s.238.111.365.166.243.105.376.155c.111.044.221.088.337.127.144.055.288.1.437.149.133.044.265.083.4.122s.271.077.4.111c.282.066.387.094.487.116.227.05.459.094.691.133.16.033.326.055.492.077.409.055.63.083.857.1,1.277.066,1.521.072,1.758.066.852-.033,1-.039,1.134-.055.2-.011.3-.022.4-.033l.288-.033.288-.039c.155-.022.31-.044.459-.072s.31-.055.459-.083l.448-.1c.149-.033.3-.072.448-.111l.315-.088c.2-.061.4-.122.6-.194.857-.332.957-.376,1.051-.42s.2-.089.293-.138C91.75,103.716,92.713,102.262,92.713,100.8Z" transform="translate(-72.872 -89.572)" fill="#16c1a9"/>
    <path id="Tracé_3017" data-name="Tracé 3017" d="M92.713,104.478a3.964,3.964,0,0,1-1.2,2.726,7.107,7.107,0,0,1-1.687,1.3,11.011,11.011,0,0,1-2.383,1.017c-.426.127-.868.238-1.322.332-.138.028-.282.05-.42.077a16.973,16.973,0,0,1-3.362.232c-.514-.017-1.029-.055-1.537-.116-.592-.077-.929-.138-1.255-.2-.166-.033-.332-.066-.492-.105-.37-.094-.5-.127-.619-.166-.166-.044-.3-.088-.426-.127s-.265-.088-.393-.133-.26-.094-.382-.144-.254-.105-.376-.155-.249-.111-.365-.166-.238-.116-.354-.177-.227-.127-.343-.188l-.288-.177c-.288-.182-.393-.26-.492-.332-.376-.293-.487-.382-.586-.476a4.44,4.44,0,0,1-1.559-3.058c-.017-1.471.94-2.942,2.881-4.059a15.5,15.5,0,0,1,14.034.022c1.935,1.117,2.909,2.577,2.925,4.037Z" transform="translate(-72.872 -98.712)" fill="#fefefe"/>
    <path id="Tracé_3018" data-name="Tracé 3018" d="M74.079,100.725c.326.066.664.127,1,.171C74.743,100.852,74.405,100.8,74.079,100.725Z" transform="translate(-67.404 -89.595)" fill="#eceef8"/>
    <path id="Tracé_3019" data-name="Tracé 3019" d="M74.306,100.762c.509.061,1.023.1,1.537.116C75.329,100.862,74.815,100.823,74.306,100.762Z" transform="translate(-66.376 -89.427)" fill="#eceef8"/>
    <path id="Tracé_3020" data-name="Tracé 3020" d="M74.584,100.783c.138.006.277.006.415.006C74.861,100.789,74.722,100.789,74.584,100.783Z" transform="translate(-65.117 -89.332)" fill="#eceef8"/>
    <path id="Tracé_3021" data-name="Tracé 3021" d="M74.659,100.97a17.092,17.092,0,0,0,2.875-.227A17.046,17.046,0,0,1,74.659,100.97Z" transform="translate(-64.777 -89.514)" fill="#eceef8"/>
    <g id="Groupe_1355" data-name="Groupe 1355" transform="translate(0 5.727)">
      <path id="Tracé_3022" data-name="Tracé 3022" d="M74.885,103.182c-.243-.194-.354-.282-.453-.376a4.44,4.44,0,0,1-1.559-3.058v5.43a6.178,6.178,0,0,0,.7,2.118,5.953,5.953,0,0,0,.409.52,7.075,7.075,0,0,0,1.04.929v-5.463Z" transform="translate(-72.872 -99.748)" fill="#e4e7fc"/>
      <path id="Tracé_3023" data-name="Tracé 3023" d="M86.648,102.481a7.108,7.108,0,0,1-1.687,1.3,11.012,11.012,0,0,1-2.383,1.017c-.426.127-.868.238-1.322.332-.138.028-.282.05-.42.077a17.392,17.392,0,0,1-2.947.238c-.138,0-.276,0-.415-.006-.514-.017-1.029-.055-1.537-.116-.592-.077-.929-.138-1.255-.2-.166-.033-.332-.066-.492-.105-.243-.061-.243,5.4-.243,5.4.282.066.387.094.487.116.227.05.459.094.691.133.16.033.326.055.492.077.409.055.63.083.857.1,3.727.138,6.448-.415,8.488-1.6,1.924-1.112,2.886-2.566,2.886-4.026V99.755A3.964,3.964,0,0,1,86.648,102.481Z" transform="translate(-68.007 -99.716)" fill="#e4e7fc"/>
      <path id="Tracé_3024" data-name="Tracé 3024" d="M76.252,102.756c-.149-.05-.293-.094-.437-.149-.116-.039-.227-.083-.337-.127-.127-.05-.254-.1-.376-.155l-.365-.166c-.122-.055-.238-.116-.354-.177s-.227-.122-.343-.188c-.437-.271-.531-.332-.625-.4-.155-.111-.155,14.156-.155,14.156a7.588,7.588,0,0,0,.78.509,12.125,12.125,0,0,0,3.014,1.2V102.988c-.133-.033-.271-.072-.4-.111S76.384,102.8,76.252,102.756Z" transform="translate(-71.115 -92.288)" fill="#1ed2be"/>
      <path id="Tracé_3025" data-name="Tracé 3025" d="M76.677,101.985c-.166-.044-.3-.088-.426-.127s-.265-.088-.393-.133-.26-.094-.382-.144-.254-.105-.376-.155-.249-.111-.365-.166-.238-.116-.354-.177-.227-.127-.343-.188l-.288-.177c-.288-.182-.393-.26-.492-.332v5.463c.249.177.343.238.442.3.453.271.564.332.68.393s.232.122.354.177l.365.166c.122.055.249.105.376.155.111.044.221.088.337.127.144.055.288.1.437.149.133.044.265.083.4.122s.271.077.4.111V102.09C76.926,102.057,76.8,102.024,76.677,101.985Z" transform="translate(-71.115 -96.854)" fill="#f4f6fe"/>
    </g>
  </g>
  <g id="Groupe_1358" data-name="Groupe 1358" transform="translate(251.554 410.229)">
    <path id="Tracé_3026" data-name="Tracé 3026" d="M95.649,96.13v14.239c.011,1.471-.946,2.942-2.886,4.064A15.617,15.617,0,0,1,81.747,115.6a11.746,11.746,0,0,1-3.014-1.194c-.282-.166-.542-.332-.785-.509a4.563,4.563,0,0,1-2.146-3.528V96.064a7.651,7.651,0,0,0,.481,1.758c.066.122.138.238.216.354a5.147,5.147,0,0,0,.415.525,8.366,8.366,0,0,0,1.034.929c.254.171.348.238.448.3.791.453.912.514,1.029.575s.243.111.365.16.249.105.376.16c.111.044.227.083.343.127l.431.149c.133.039.265.083.4.122s.265.072.4.105c.277.072.382.094.487.116.227.055.453.1.686.138.166.028.332.055.5.077.4.055.63.077.852.1,1.283.066,1.526.066,1.764.061.846-.028.99-.039,1.128-.05.2-.017.3-.028.4-.039l.288-.033.293-.033c.155-.028.31-.05.459-.077s.3-.05.453-.083.3-.061.448-.094.3-.072.448-.111l.315-.094c.2-.055.4-.122.6-.188.857-.337.951-.382,1.051-.426s.194-.088.288-.133C94.687,99.05,95.649,97.59,95.649,96.13Z" transform="translate(-75.803 -84.906)" fill="#dd2a78"/>
    <path id="Tracé_3027" data-name="Tracé 3027" d="M95.649,99.807a4.011,4.011,0,0,1-1.2,2.732,7.533,7.533,0,0,1-1.687,1.3,11.532,11.532,0,0,1-2.383,1.012,12.914,12.914,0,0,1-1.327.332c-.138.028-.276.055-.42.077a16.89,16.89,0,0,1-3.357.232c-.52-.011-1.034-.055-1.543-.116-.592-.077-.923-.133-1.255-.2-.166-.033-.326-.072-.487-.111-.37-.094-.5-.127-.619-.16-.166-.044-.3-.089-.431-.133s-.265-.083-.393-.133-.254-.094-.382-.144-.249-.1-.376-.155-.243-.105-.365-.166-.238-.116-.348-.177-.232-.122-.343-.188l-.288-.171c-.288-.188-.393-.26-.5-.337-.376-.288-.481-.382-.586-.476A4.439,4.439,0,0,1,75.8,99.774c-.017-1.476.946-2.942,2.887-4.064a15.5,15.5,0,0,1,14.029.028c1.935,1.117,2.914,2.577,2.925,4.037Z" transform="translate(-75.803 -94.046)" fill="#fefefe"/>
    <path id="Tracé_3028" data-name="Tracé 3028" d="M77.01,96.059c.332.066.664.122,1,.171C77.674,96.181,77.342,96.125,77.01,96.059Z" transform="translate(-70.335 -84.928)" fill="#eceef8"/>
    <path id="Tracé_3029" data-name="Tracé 3029" d="M77.237,96.1c.509.061,1.023.105,1.543.116A14.262,14.262,0,0,1,77.237,96.1Z" transform="translate(-69.307 -84.765)" fill="#eceef8"/>
    <path id="Tracé_3030" data-name="Tracé 3030" d="M77.516,96.116c.138.006.277.011.415.011C77.792,96.127,77.654,96.122,77.516,96.116Z" transform="translate(-68.043 -84.67)" fill="#eceef8"/>
    <path id="Tracé_3031" data-name="Tracé 3031" d="M77.591,96.308a16.468,16.468,0,0,0,2.87-.232A16.468,16.468,0,0,1,77.591,96.308Z" transform="translate(-67.704 -84.851)" fill="#eceef8"/>
    <g id="Groupe_1357" data-name="Groupe 1357" transform="translate(0 5.728)">
      <path id="Tracé_3032" data-name="Tracé 3032" d="M77.816,98.51c-.243-.188-.348-.282-.453-.376A4.439,4.439,0,0,1,75.8,95.082v5.43a6.256,6.256,0,0,0,.7,2.112,5.149,5.149,0,0,0,.415.525,7.382,7.382,0,0,0,1.034.929V98.61Z" transform="translate(-75.803 -95.082)" fill="#e4e7fc"/>
      <path id="Tracé_3033" data-name="Tracé 3033" d="M89.58,97.82a7.532,7.532,0,0,1-1.687,1.3,11.533,11.533,0,0,1-2.383,1.012,12.918,12.918,0,0,1-1.327.332c-.138.028-.276.055-.42.077a16.8,16.8,0,0,1-2.942.243c-.138,0-.277-.006-.415-.011-.52-.011-1.034-.055-1.543-.116-.592-.077-.923-.133-1.255-.2-.166-.033-.326-.072-.487-.111-.243-.061-.243,5.4-.243,5.4.277.072.382.094.487.116.227.055.453.1.686.138.166.028.332.055.5.077.4.055.63.077.852.1,3.727.133,6.448-.42,8.494-1.6,1.924-1.112,2.886-2.571,2.886-4.031V95.088A4.011,4.011,0,0,1,89.58,97.82Z" transform="translate(-70.934 -95.055)" fill="#e4e7fc"/>
      <path id="Tracé_3034" data-name="Tracé 3034" d="M79.183,98.09l-.431-.149c-.116-.044-.232-.083-.343-.127-.127-.055-.249-.105-.376-.16s-.243-.105-.365-.16-.238-.122-.348-.182-.232-.122-.343-.188c-.437-.265-.531-.332-.625-.393-.16-.111-.16,14.156-.16,14.156.243.177.5.343.785.509a11.745,11.745,0,0,0,3.014,1.194V98.317c-.138-.033-.276-.072-.4-.105S79.315,98.129,79.183,98.09Z" transform="translate(-74.045 -87.622)" fill="#fc5c7f"/>
      <path id="Tracé_3035" data-name="Tracé 3035" d="M79.614,97.324c-.166-.044-.3-.089-.431-.133s-.265-.083-.393-.133-.254-.094-.382-.144-.249-.1-.376-.155-.243-.105-.365-.166-.238-.116-.348-.177-.232-.122-.343-.188l-.288-.171c-.288-.188-.393-.26-.5-.337v5.469c.254.171.348.238.448.3.448.271.564.332.68.393s.232.122.348.182.243.111.365.16.249.105.376.16c.111.044.227.083.343.127l.431.149c.133.039.265.083.4.122s.265.072.4.105V97.423Z" transform="translate(-74.045 -92.192)" fill="#f4f6fe"/>
    </g>
  </g>
  <g id="Groupe_1360" data-name="Groupe 1360" transform="translate(270.41 430.324)">
    <path id="Tracé_3036" data-name="Tracé 3036" d="M99.054,99.764V114c.017,1.471-.946,2.942-2.881,4.064a15.62,15.62,0,0,1-11.015,1.167,11.865,11.865,0,0,1-3.019-1.194,8.243,8.243,0,0,1-.78-.509A4.548,4.548,0,0,1,79.213,114V99.7a7.96,7.96,0,0,0,.481,1.764,3.948,3.948,0,0,0,.216.348,6.133,6.133,0,0,0,.409.525,8.323,8.323,0,0,0,1.04.929c.249.171.343.238.442.3.8.453.912.514,1.034.575s.243.111.365.16.249.111.376.16c.111.044.227.083.343.127q.207.075.431.149c.133.039.265.083.4.122s.271.072.409.111c.276.066.382.088.487.116.221.05.453.094.686.133.16.028.326.055.492.077.409.055.63.077.857.1,1.283.066,1.521.066,1.764.061.846-.028.99-.039,1.128-.05.2-.017.3-.028.4-.039l.288-.033.288-.033c.155-.022.31-.05.465-.077s.3-.05.453-.083.3-.061.448-.094.3-.072.448-.111l.315-.094c.2-.055.4-.122.6-.188.857-.337.957-.382,1.056-.426s.194-.088.288-.133C98.091,102.684,99.054,101.224,99.054,99.764Z" transform="translate(-79.213 -88.54)" fill="#613780"/>
    <path id="Tracé_3037" data-name="Tracé 3037" d="M99.054,103.441a3.976,3.976,0,0,1-1.2,2.732,7.368,7.368,0,0,1-1.681,1.3,11.45,11.45,0,0,1-2.389,1.012,12.479,12.479,0,0,1-1.322.332c-.138.028-.276.055-.42.077a16.955,16.955,0,0,1-3.362.232c-.514-.011-1.029-.055-1.537-.111-.592-.083-.923-.138-1.255-.2-.166-.033-.326-.072-.492-.111-.365-.088-.492-.127-.619-.16-.16-.044-.293-.089-.426-.127s-.265-.088-.393-.133l-.382-.149c-.127-.05-.254-.1-.376-.155s-.243-.105-.365-.166-.238-.116-.354-.177-.227-.122-.343-.188l-.288-.171c-.282-.188-.393-.26-.492-.337-.376-.287-.481-.382-.586-.476a4.439,4.439,0,0,1-1.559-3.052c-.017-1.476.946-2.942,2.881-4.064a15.515,15.515,0,0,1,14.034.028c1.935,1.117,2.909,2.577,2.925,4.037Z" transform="translate(-79.213 -97.68)" fill="#fefefe"/>
    <path id="Tracé_3038" data-name="Tracé 3038" d="M80.42,99.693c.332.066.664.122,1,.171C81.084,99.815,80.752,99.759,80.42,99.693Z" transform="translate(-73.745 -88.562)" fill="#eceef8"/>
    <path id="Tracé_3039" data-name="Tracé 3039" d="M80.647,99.73c.509.055,1.023.1,1.537.111C81.67,99.83,81.156,99.791,80.647,99.73Z" transform="translate(-72.717 -88.395)" fill="#eceef8"/>
    <path id="Tracé_3040" data-name="Tracé 3040" d="M80.925,99.75c.138.006.276.011.42.011C81.2,99.761,81.063,99.756,80.925,99.75Z" transform="translate(-71.458 -88.304)" fill="#eceef8"/>
    <path id="Tracé_3041" data-name="Tracé 3041" d="M81,99.942a16.478,16.478,0,0,0,2.87-.232A16.478,16.478,0,0,1,81,99.942Z" transform="translate(-71.114 -88.485)" fill="#eceef8"/>
    <g id="Groupe_1359" data-name="Groupe 1359" transform="translate(0 5.728)">
      <path id="Tracé_3042" data-name="Tracé 3042" d="M81.226,102.144a5.664,5.664,0,0,1-.453-.376,4.439,4.439,0,0,1-1.559-3.052v5.43a6.257,6.257,0,0,0,.7,2.112,6.133,6.133,0,0,0,.409.525,7.369,7.369,0,0,0,1.04.929v-5.469Z" transform="translate(-79.213 -98.716)" fill="#e4e7fc"/>
      <path id="Tracé_3043" data-name="Tracé 3043" d="M92.984,101.454a7.369,7.369,0,0,1-1.681,1.3,11.449,11.449,0,0,1-2.389,1.012,12.476,12.476,0,0,1-1.322.332c-.138.028-.277.055-.42.077a16.8,16.8,0,0,1-2.942.243c-.144,0-.282-.006-.42-.011-.514-.011-1.029-.055-1.537-.111-.592-.083-.923-.138-1.255-.2-.166-.033-.326-.072-.492-.111-.238-.061-.238,5.408-.238,5.408.276.066.382.088.487.116.221.05.453.094.686.133.16.028.326.055.492.077.409.055.63.077.857.1,3.727.133,6.448-.415,8.494-1.6,1.919-1.111,2.881-2.571,2.881-4.031V98.722A3.976,3.976,0,0,1,92.984,101.454Z" transform="translate(-74.344 -98.689)" fill="#e4e7fc"/>
      <path id="Tracé_3044" data-name="Tracé 3044" d="M82.593,101.724q-.224-.075-.431-.149c-.116-.044-.232-.083-.343-.127-.127-.05-.249-.105-.376-.16s-.243-.105-.365-.16-.238-.122-.354-.182-.227-.122-.343-.188c-.437-.265-.531-.332-.619-.393-.16-.111-.16,14.156-.16,14.156a8.245,8.245,0,0,0,.78.509,11.865,11.865,0,0,0,3.019,1.194V101.956c-.138-.039-.277-.077-.409-.111S82.725,101.763,82.593,101.724Z" transform="translate(-77.455 -91.256)" fill="#844a9e"/>
      <path id="Tracé_3045" data-name="Tracé 3045" d="M83.018,100.958c-.16-.044-.293-.089-.426-.127s-.265-.088-.393-.133l-.382-.149c-.127-.05-.254-.1-.376-.155s-.243-.105-.365-.166-.238-.116-.354-.177-.227-.122-.343-.188l-.288-.171c-.282-.188-.393-.26-.492-.337v5.469c.249.171.343.238.442.3.453.271.564.337.68.393s.232.122.354.182.243.111.365.16.249.111.376.16c.111.044.227.083.343.127q.207.075.431.149c.133.039.265.083.4.122s.271.072.409.111v-5.469C83.273,101.03,83.146,100.991,83.018,100.958Z" transform="translate(-77.455 -95.826)" fill="#f4f6fe"/>
    </g>
  </g>
</svg>
