<svg xmlns="http://www.w3.org/2000/svg" version="1.1" xmlns:xlink="http://www.w3.org/1999/xlink" width="512" height="512" x="0" y="0" viewBox="0 0 24 24" style="enable-background:new 0 0 512 512" xml:space="preserve" class=""><g><g data-name="Layer 2"><circle cx="17" cy="21" r="2" fill="#000000" opacity="1" data-original="#000000" class=""></circle><circle cx="10" cy="21" r="2" fill="#000000" opacity="1" data-original="#000000" class=""></circle><path d="M20 19.75H7a2.75 2.75 0 0 1 0-5.5h9a.75.75 0 0 1 0 1.5H7a1.25 1.25 0 0 0 0 2.5h13a.75.75 0 0 1 0 1.5z" fill="#000000" opacity="1" data-original="#000000" class=""></path><path d="M17.512 15.75H7a.75.75 0 0 1 0-1.5h10.512a1.242 1.242 0 0 0 1.2-.891L20.9 6.072a.245.245 0 0 0-.04-.221.242.242 0 0 0-.2-.1H8a.75.75 0 0 1 0-1.5h12.656A1.749 1.749 0 0 1 22.332 6.5l-2.186 7.29a2.734 2.734 0 0 1-2.634 1.96z" fill="#000000" opacity="1" data-original="#000000" class=""></path><path d="M7 15.75a.749.749 0 0 1-.74-.636L4.356 2.75H2a.75.75 0 0 1 0-1.5h3a.75.75 0 0 1 .741.636l2 13A.751.751 0 0 1 7 15.75z" fill="#000000" opacity="1" data-original="#000000" class=""></path></g></g></svg>