<svg xmlns="http://www.w3.org/2000/svg" width="128.771" height="129.577" viewBox="0 0 128.771 129.577">
  <g id="community" transform="translate(0 0.2)">
    <path id="Tracé_6321" data-name="Tracé 6321" d="M59.4,34.9v4.024" transform="translate(60.116 35.523)" fill="#fff"/>
    <path id="Tracé_6322" data-name="Tracé 6322" d="M58.4,34.9h4.024v4.024H58.4Z" transform="translate(59.104 35.523)" fill="#193651"/>
    <path id="Tracé_6323" data-name="Tracé 6323" d="M4.8,34.9v4.024" transform="translate(4.858 35.523)" fill="#fff"/>
    <path id="Tracé_6324" data-name="Tracé 6324" d="M3.8,34.9H7.824v4.024H3.8Z" transform="translate(3.846 35.523)" fill="#193651"/>
    <path id="Tracé_6325" data-name="Tracé 6325" d="M49.1,14.9v4.024" transform="translate(49.692 15.282)" fill="#fff"/>
    <path id="Tracé_6326" data-name="Tracé 6326" d="M48.1,14.9h4.024v4.024H48.1Z" transform="translate(48.68 15.282)" fill="#193651"/>
    <path id="Tracé_6327" data-name="Tracé 6327" d="M15.1,14.9v4.024" transform="translate(15.282 15.282)" fill="#fff"/>
    <path id="Tracé_6328" data-name="Tracé 6328" d="M14.1,14.9h4.024v4.024H14.1Z" transform="translate(14.27 15.282)" fill="#193651"/>
    <circle id="Ellipse_93" data-name="Ellipse 93" cx="9.054" cy="9.054" r="9.054" transform="translate(55.533 11.269)" fill="#f16051"/>
    <path id="Tracé_6329" data-name="Tracé 6329" d="M58.712,25.054a21.84,21.84,0,0,0-35.412,0L40.8,35.718h.4Z" transform="translate(23.581 16.395)" fill="#f16051"/>
    <path id="Tracé_6330" data-name="Tracé 6330" d="M43.536,54.327,20.8,40.645V13.482L43.536-.2,66.272,13.482V40.645Zm-18.712-15.9L43.536,49.7,62.248,38.431V15.9L43.536,4.629,24.824,15.9Z" transform="translate(21.051)" fill="#193651"/>
    <circle id="Ellipse_94" data-name="Ellipse 94" cx="9.054" cy="9.054" r="9.054" transform="translate(76.458 49.095)" fill="#4fbf9f"/>
    <path id="Tracé_6331" data-name="Tracé 6331" d="M69.112,43.754a21.84,21.84,0,0,0-35.412,0L51.2,54.418h.4Z" transform="translate(34.106 35.321)" fill="#4fbf9f"/>
    <path id="Tracé_6332" data-name="Tracé 6332" d="M53.936,73.127,31.2,59.445V32.282L53.936,18.6,76.672,32.282V59.445Zm-18.712-15.9L53.936,68.5,72.648,57.231V34.5L53.936,23.228,35.224,34.5Z" transform="translate(31.576 19.027)" fill="#193651"/>
    <circle id="Ellipse_95" data-name="Ellipse 95" cx="9.054" cy="9.054" r="9.054" transform="translate(34.607 49.095)" fill="#4fbf9f"/>
    <path id="Tracé_6333" data-name="Tracé 6333" d="M48.312,43.754a21.84,21.84,0,0,0-35.412,0L30.4,54.418h.4Z" transform="translate(13.056 35.321)" fill="#4fbf9f"/>
    <path id="Tracé_6334" data-name="Tracé 6334" d="M33.136,73.127,10.4,59.445V32.282L33.136,18.6,55.872,32.282V59.445Zm-18.712-15.9L33.136,68.5,51.848,57.231V34.5L33.136,23.228,14.424,34.5Z" transform="translate(10.525 19.027)" fill="#193651"/>
    <circle id="Ellipse_96" data-name="Ellipse 96" cx="9.054" cy="9.054" r="9.054" transform="translate(13.682 86.117)" fill="#fdbf5e"/>
    <path id="Tracé_6335" data-name="Tracé 6335" d="M37.912,62.254A22.094,22.094,0,0,0,20.206,53.2,22.094,22.094,0,0,0,2.5,62.254L20,72.918h.4Z" transform="translate(2.53 54.044)" fill="#fdbf5e"/>
    <path id="Tracé_6336" data-name="Tracé 6336" d="M22.736,91.627,0,77.945V50.782L22.736,37.1,45.472,50.782V77.945ZM4.024,75.53,22.736,86.8,41.448,75.53V53L22.736,41.728,4.024,53Z" transform="translate(0 37.75)" fill="#193651"/>
    <circle id="Ellipse_97" data-name="Ellipse 97" cx="9.054" cy="9.054" r="9.054" transform="translate(55.533 86.117)" fill="#fdbf5e"/>
    <path id="Tracé_6337" data-name="Tracé 6337" d="M58.712,62.254a21.84,21.84,0,0,0-35.412,0L40.8,72.918h.4Z" transform="translate(23.581 54.044)" fill="#fdbf5e"/>
    <path id="Tracé_6338" data-name="Tracé 6338" d="M43.536,91.627,20.8,77.945V50.782L43.536,37.1,66.272,50.782V77.945ZM24.824,75.53,43.536,86.8,62.248,75.53V53L43.536,41.728,24.824,53Z" transform="translate(21.051 37.75)" fill="#193651"/>
    <circle id="Ellipse_98" data-name="Ellipse 98" cx="9.054" cy="9.054" r="9.054" transform="translate(96.981 86.117)" fill="#fdbf5e"/>
    <path id="Tracé_6339" data-name="Tracé 6339" d="M79.312,62.254a21.84,21.84,0,0,0-35.412,0L61.4,72.918h.4Z" transform="translate(44.429 54.044)" fill="#fdbf5e"/>
    <path id="Tracé_6340" data-name="Tracé 6340" d="M64.136,91.627,41.4,77.945V50.782L64.136,37.1,86.872,50.782V77.945ZM45.424,75.53,64.136,86.8,82.848,75.53V53L64.136,41.728,45.424,53Z" transform="translate(41.899 37.75)" fill="#193651"/>
    <path id="Tracé_6341" data-name="Tracé 6341" d="M59.4,34.9v4.024" transform="translate(60.116 35.523)" fill="#fff"/>
    <path id="Tracé_6342" data-name="Tracé 6342" d="M58.4,34.9h4.024v4.024H58.4Z" transform="translate(59.104 35.523)" fill="#193651"/>
    <path id="Tracé_6343" data-name="Tracé 6343" d="M4.8,34.9v4.024" transform="translate(4.858 35.523)" fill="#fff"/>
    <path id="Tracé_6344" data-name="Tracé 6344" d="M3.8,34.9H7.824v4.024H3.8Z" transform="translate(3.846 35.523)" fill="#193651"/>
    <path id="Tracé_6345" data-name="Tracé 6345" d="M49.1,14.9v4.024" transform="translate(49.692 15.282)" fill="#fff"/>
    <path id="Tracé_6346" data-name="Tracé 6346" d="M48.1,14.9h4.024v4.024H48.1Z" transform="translate(48.68 15.282)" fill="#193651"/>
    <path id="Tracé_6347" data-name="Tracé 6347" d="M15.1,14.9v4.024" transform="translate(15.282 15.282)" fill="#fff"/>
    <path id="Tracé_6348" data-name="Tracé 6348" d="M14.1,14.9h4.024v4.024H14.1Z" transform="translate(14.27 15.282)" fill="#193651"/>
    <circle id="Ellipse_99" data-name="Ellipse 99" cx="9.054" cy="9.054" r="9.054" transform="translate(55.533 11.269)" fill="#ff2987"/>
    <path id="Tracé_6349" data-name="Tracé 6349" d="M58.712,25.054a21.84,21.84,0,0,0-35.412,0L40.8,35.718h.4Z" transform="translate(23.581 16.395)" fill="#ff2987"/>
    <circle id="Ellipse_100" data-name="Ellipse 100" cx="9.054" cy="9.054" r="9.054" transform="translate(76.458 49.095)" fill="#cef835"/>
    <path id="Tracé_6350" data-name="Tracé 6350" d="M69.112,43.754a21.84,21.84,0,0,0-35.412,0L51.2,54.418h.4Z" transform="translate(34.106 35.321)" fill="#cef835"/>
    <circle id="Ellipse_101" data-name="Ellipse 101" cx="9.054" cy="9.054" r="9.054" transform="translate(34.607 49.095)" fill="#cef835"/>
    <path id="Tracé_6351" data-name="Tracé 6351" d="M48.312,43.754a21.84,21.84,0,0,0-35.412,0L30.4,54.418h.4Z" transform="translate(13.056 35.321)" fill="#cef835"/>
    <g id="Groupe_2702" data-name="Groupe 2702" transform="translate(5.03 86.117)">
      <circle id="Ellipse_102" data-name="Ellipse 102" cx="9.054" cy="9.054" r="9.054" transform="translate(8.652)" fill="#ffcb37"/>
      <path id="Tracé_6352" data-name="Tracé 6352" d="M37.912,62.254A22.094,22.094,0,0,0,20.206,53.2,22.094,22.094,0,0,0,2.5,62.254L20,72.918h.4Z" transform="translate(-2.5 -32.073)" fill="#ffcb37"/>
      <circle id="Ellipse_103" data-name="Ellipse 103" cx="9.054" cy="9.054" r="9.054" transform="translate(50.503)" fill="#ffcb37"/>
      <path id="Tracé_6353" data-name="Tracé 6353" d="M58.712,62.254a21.84,21.84,0,0,0-35.412,0L40.8,72.918h.4Z" transform="translate(18.551 -32.073)" fill="#ffcb37"/>
      <circle id="Ellipse_104" data-name="Ellipse 104" cx="9.054" cy="9.054" r="9.054" transform="translate(91.951)" fill="#ffcb37"/>
      <path id="Tracé_6354" data-name="Tracé 6354" d="M79.312,62.254a21.84,21.84,0,0,0-35.412,0L61.4,72.918h.4Z" transform="translate(39.399 -32.073)" fill="#ffcb37"/>
    </g>
    <path id="Tracé_6355" data-name="Tracé 6355" d="M108.249,76.057V51.309L87.323,38.834V13.482L64.587-.2,41.851,13.482V38.633L20.925,51.309V75.856L0,88.532v27.163l22.736,13.682L43.662,116.9l20.925,12.475L85.311,116.9l20.724,12.475,22.736-13.682V88.532Zm-4.024-.2L85.311,87.123,66.8,76.057V53.522L85.512,42.254l18.712,11.268ZM45.875,15.9,64.587,4.629,83.3,15.9V38.431L64.587,49.7,45.875,38.431ZM43.662,42.254,62.374,53.522V76.057L43.662,87.324,24.949,76.057V53.522ZM22.736,124.547,4.024,113.28V90.745L22.736,79.477,41.448,90.745V113.28Zm41.851,0L45.875,113.28V90.745L64.587,79.477,83.3,90.745V113.28Zm60.16-11.268-18.712,11.268L87.323,113.28V90.946l18.913-11.469,18.511,11.268Z" fill="#193651"/>
  </g>
</svg>
