<svg xmlns="http://www.w3.org/2000/svg" width="68.538" height="55.858" viewBox="0 0 68.538 55.858">
  <path id="Tracé_6469" data-name="Tracé 6469" d="M22.765,71.545a1.718,1.718,0,0,0,1.713,1.713H63.974a1.718,1.718,0,0,0,1.713-1.713v-4.2L22.765,67.09Zm52-42.322A3.8,3.8,0,0,0,71,32.992a4.246,4.246,0,0,0,.685,2.227.084.084,0,0,0,.086.086v.343c0,.086,0,.086-.086.086l-.086.086-.086.086L57.462,46.015a.515.515,0,0,1-.343.086h-.171c-.171-.086-.343-.171-.343-.343L45.811,25.282c0-.086,0-.086-.086-.171v-.257a3628.087,3628.087,0,0,1,.171-.171l.086-.086.086-.086a3.89,3.89,0,0,0,1.97-3.341,3.77,3.77,0,0,0-7.539,0,3.89,3.89,0,0,0,1.97,3.341.084.084,0,0,1,.086.086l.086.086a.084.084,0,0,0,.086.086l.086.086V25.2c0,.086,0,.086-.086.171l-10.88,20.39a.669.669,0,0,1-.343.343h-.171a.515.515,0,0,1-.343-.086L17.025,36.077l-.086-.086-.086-.086a.084.084,0,0,0-.086-.086v-.343a.084.084,0,0,1,.086-.086,3.8,3.8,0,1,0-3.084,1.542,3.212,3.212,0,0,0,.942-.086h.257c.086,0,.086,0,.086.086h.086l.086.086.086.086a5442.04,5442.04,0,0,0,.171.171l7.2,28.615H66.03l7.2-28.7a.084.084,0,0,1,.086-.086.084.084,0,0,1,.086-.086l.086-.086.086-.086h.086a.084.084,0,0,0,.086-.086h.171a2.915,2.915,0,0,0,.857.086,3.813,3.813,0,0,0,0-7.625Z" transform="translate(-10 -17.4)" fill="#ffbf09"/>
</svg>
