<svg xmlns="http://www.w3.org/2000/svg" width="131.945" height="96.762" viewBox="0 0 131.945 96.762">
  <g id="event" transform="translate(-1.993 -10)">
    <g id="_10_Schedule" data-name="10 Schedule" transform="translate(1.993 10)">
      <g id="Groupe_2703" data-name="Groupe 2703" transform="translate(0.015)">
        <path id="Tracé_6356" data-name="Tracé 6356" d="M61.377,10h-2.2a4.411,4.411,0,0,0-4.4,4.4v11a4.414,4.414,0,0,0,2.353,3.892,3.191,3.191,0,0,0,6.29,0,4.414,4.414,0,0,0,2.353-3.892v-11A4.411,4.411,0,0,0,61.377,10Zm30.788,0h-2.2a4.411,4.411,0,0,0-4.4,4.4v11a4.414,4.414,0,0,0,2.353,3.892,3.191,3.191,0,0,0,6.29,0,4.414,4.414,0,0,0,2.353-3.892v-11a4.411,4.411,0,0,0-4.4-4.4ZM30.589,10h-2.2a4.411,4.411,0,0,0-4.4,4.4v11a4.414,4.414,0,0,0,2.353,3.892,3.191,3.191,0,0,0,6.29,0,4.414,4.414,0,0,0,2.353-3.892v-11A4.411,4.411,0,0,0,30.589,10ZM2,42.987v59.377a4.4,4.4,0,0,0,4.4,4.4H114.156a4.4,4.4,0,0,0,4.4-4.4V42.987ZM41.585,57.831a4.477,4.477,0,0,1-3.928,4.948H16.923A4.477,4.477,0,0,1,13,57.831v-5.5a4.477,4.477,0,0,1,3.928-4.948H37.657a4.477,4.477,0,0,1,3.928,4.948Zm32.987,0a4.477,4.477,0,0,1-3.928,4.948H49.911a4.477,4.477,0,0,1-3.928-4.948v-5.5a4.477,4.477,0,0,1,3.928-4.948H70.644a4.477,4.477,0,0,1,3.928,4.948Zm32.987,0a4.477,4.477,0,0,1-3.928,4.948H82.9a4.477,4.477,0,0,1-3.928-4.948v-5.5A4.477,4.477,0,0,1,82.9,47.385h20.734a4.477,4.477,0,0,1,3.928,4.948Z" transform="translate(-2 -10)" fill="#e1d2ff"/>
      </g>
      <path id="Tracé_6357" data-name="Tracé 6357" d="M39.378,71.576H15.188a2.2,2.2,0,0,1,0-4.4H39.378a2.2,2.2,0,1,1,0,4.4Zm0,4.4H15.188a2.2,2.2,0,0,0,0,4.4H39.378a2.2,2.2,0,1,0,0-4.4Zm0,8.8H15.188a2.2,2.2,0,0,0,0,4.4H39.378a2.2,2.2,0,1,0,0-4.4Zm0,8.8H15.188a2.2,2.2,0,1,0,0,4.4H39.378a2.2,2.2,0,1,0,0-4.4Zm2.2-35.736v-5.5a4.477,4.477,0,0,0-3.928-4.948H16.916a4.477,4.477,0,0,0-3.928,4.948v5.5a4.477,4.477,0,0,0,3.928,4.948H37.65a4.477,4.477,0,0,0,3.928-4.948ZM17.462,51.784H37.1c.042.134.042,6.463,0,6.6H17.462C17.422,58.247,17.422,51.918,17.462,51.784Zm54.9,15.394H48.175a2.2,2.2,0,1,0,0,4.4H72.366a2.2,2.2,0,0,0,0-4.4Zm0,8.8H48.175a2.2,2.2,0,1,0,0,4.4H72.366a2.2,2.2,0,0,0,0-4.4Zm0,8.8H48.175a2.2,2.2,0,1,0,0,4.4H72.366a2.2,2.2,0,0,0,0-4.4Zm0,8.8H48.175a2.2,2.2,0,1,0,0,4.4H72.366a2.2,2.2,0,0,0,0-4.4Zm2.2-35.736v-5.5a4.477,4.477,0,0,0-3.928-4.948H49.9a4.477,4.477,0,0,0-3.928,4.948v5.5A4.477,4.477,0,0,0,49.9,62.779H70.637A4.477,4.477,0,0,0,74.565,57.831ZM50.449,51.784H70.092c.042.134.042,6.463,0,6.6H50.449C50.409,58.247,50.409,51.918,50.449,51.784Zm54.9,15.394H81.162a2.2,2.2,0,0,0,0,4.4h24.191a2.2,2.2,0,0,0,0-4.4Zm0,8.8H81.162a2.2,2.2,0,0,0,0,4.4h24.191a2.2,2.2,0,0,0,0-4.4Zm0,8.8H81.162a2.2,2.2,0,0,0,0,4.4h24.191a2.2,2.2,0,0,0,0-4.4Zm0,8.8H81.162a2.2,2.2,0,0,0,0,4.4h24.191a2.2,2.2,0,1,0,0-4.4Zm2.2-35.736v-5.5a4.477,4.477,0,0,0-3.928-4.948H82.891a4.477,4.477,0,0,0-3.928,4.948v5.5a4.477,4.477,0,0,0,3.928,4.948h20.734a4.477,4.477,0,0,0,3.928-4.948ZM83.436,51.784h19.643c.042.134.042,6.463,0,6.6H83.436C83.4,58.247,83.4,51.918,83.436,51.784Zm46.107,50.58h-11a4.411,4.411,0,0,1-4.4,4.4H6.391a4.411,4.411,0,0,1-4.4-4.4V18.8a4.411,4.411,0,0,1,4.4-4.4H23.984a4.411,4.411,0,0,1,4.4-4.4h2.2a4.411,4.411,0,0,1,4.4,4.4H54.772a4.411,4.411,0,0,1,4.4-4.4h2.2a4.411,4.411,0,0,1,4.4,4.4H85.561a4.411,4.411,0,0,1,4.4-4.4h2.2a4.411,4.411,0,0,1,4.4,4.4h17.593a4.4,4.4,0,0,1,4.354,3.98l.022.154,15.35,78.619a4.466,4.466,0,0,1-4.332,5.212ZM89.959,14.4v11h2.2v-11ZM87.914,29.287a3.191,3.191,0,0,0,6.29,0,8.9,8.9,0,0,1-4.244.506A4.271,4.271,0,0,1,87.914,29.287ZM59.171,14.4v11h2.2v-11ZM57.126,29.287a3.191,3.191,0,0,0,6.29,0,8.9,8.9,0,0,1-4.244.506A4.271,4.271,0,0,1,57.126,29.287ZM28.383,14.4v11h2.2v-11ZM26.338,29.287a3.191,3.191,0,0,0,6.29,0,8.882,8.882,0,0,1-4.244.506,4.271,4.271,0,0,1-2.045-.506ZM6.391,18.8V38.589H114.149V18.8H96.556V23.3c3.827,4.31,2,13.085-5.5,13.085s-9.324-8.775-5.5-13.085V18.8H65.768V23.3c3.827,4.31,2,13.085-5.5,13.085s-9.324-8.775-5.5-13.085V18.8H34.98V23.3c3.827,4.31,2,13.085-5.5,13.085s-9.324-8.775-5.5-13.085V18.8ZM114.149,42.987H6.391v59.377H114.149Zm15.394,54.979-11-56.43v56.43Z" transform="translate(-1.993 -10)" fill="#b38eff"/>
    </g>
  </g>
</svg>
