<svg xmlns="http://www.w3.org/2000/svg" width="36.299" height="35.035" viewBox="0 0 36.299 35.035">
  <g id="follow" transform="translate(-1.25 -1.25)">
    <g id="Layer_2" data-name="Layer 2" transform="translate(1.25 1.25)">
      <path id="Tracé_6378" data-name="Tracé 6378" d="M21.064,21.786a8.92,8.92,0,0,0,.641,3.373l.1.236H5.044A3.794,3.794,0,0,1,1.25,21.583V20.74a11.315,11.315,0,0,1,4.637-9.19,11.3,11.3,0,0,0,15.042,0,11.3,11.3,0,0,1,3.153,3.474,8.836,8.836,0,0,0-3.018,6.762Z" transform="translate(-1.25 5.862)" fill="#0dff2d"/>
      <circle id="Ellipse_113" data-name="Ellipse 113" cx="8.853" cy="8.853" r="8.853" transform="translate(3.373)" fill="#0dff2d"/>
      <path id="Tracé_6379" data-name="Tracé 6379" d="M21.386,13.257A7.369,7.369,0,0,0,14,20.626a7.639,7.639,0,0,0,.506,2.732,7.386,7.386,0,1,0,6.88-10.118Zm3.1,8.549H22.549v1.939a1.18,1.18,0,0,1-2.344,0V21.806H18.266a1.18,1.18,0,0,1,0-2.344h1.939V17.523a1.18,1.18,0,0,1,2.344,0v1.939h1.939a1.18,1.18,0,0,1,0,2.344Z" transform="translate(7.545 7.022)" fill="#0dff2d"/>
    </g>
  </g>
</svg>
