<svg id="Layer_1" data-name="Layer 1" xmlns="http://www.w3.org/2000/svg" viewBox="0 0 454.54 398.22"><path d="M256,455.11c-2.84,0-7.11-1.42-10-2.84-1.42-1.43-152.17-130.85-182-172.09-37-45.51-45.51-99.56-22.76-147.91C62.58,86.76,108.09,56.89,155,56.89c25.6,0,68.27,8.53,101,59.73,32.71-51.2,76.8-59.73,101-59.73,46.93,0,92.44,29.87,113.78,75.38,22.75,46.93,14.22,101-24.18,147.91-29.87,41.24-180.62,170.66-182,172.09s-5.69,2.84-8.53,2.84ZM155,85.33c-37,0-72.53,24.18-88.18,58.31-10,21.34-21.33,66.85,19.92,118.05,21.33,28.44,118,115.2,169.24,160.71,51.2-45.51,147.91-130.84,169.24-159.29,42.67-52.62,31.29-96.71,19.92-118C429.51,109.51,394,85.33,357,85.33s-68.27,22.76-88.18,65.43c-4.27,10-21.33,10-25.6,0C223.29,108.09,192,85.33,155,85.33Z" transform="translate(-28.69 -56.89)"/></svg>