<svg id="home_m3ebi" xmlns="http://www.w3.org/2000/svg" width="40.5" height="40.5" viewBox="0 0 40.5 40.5">
  <path id="Tracé_56" data-name="Tracé 56" d="M39.412,17.616l0,0L22.887,1.093a3.728,3.728,0,0,0-5.273,0L1.1,17.6l-.017.017a3.727,3.727,0,0,0,2.481,6.352q.057.006.115.006h.659V36.137A4.369,4.369,0,0,0,8.7,40.5h6.464a1.187,1.187,0,0,0,1.187-1.187V29.782a1.993,1.993,0,0,1,1.991-1.991h3.813a1.993,1.993,0,0,1,1.991,1.991v9.532A1.187,1.187,0,0,0,25.334,40.5H31.8a4.369,4.369,0,0,0,4.364-4.363V23.979h.611a3.729,3.729,0,0,0,2.639-6.363Zm0,0" transform="translate(0 0)" fill="#9866ff"/>
</svg>
