<svg id="Instagram" xmlns="http://www.w3.org/2000/svg" width="36.522" height="36.522" viewBox="0 0 36.522 36.522">
  <path id="Tracé_3" data-name="Tracé 3" d="M18.261,3.246a55.993,55.993,0,0,1,7.3.2,9.411,9.411,0,0,1,3.449.609,7.126,7.126,0,0,1,3.449,3.449,9.411,9.411,0,0,1,.609,3.449c0,1.826.2,2.435.2,7.3a55.994,55.994,0,0,1-.2,7.3,9.411,9.411,0,0,1-.609,3.449,7.126,7.126,0,0,1-3.449,3.449,9.411,9.411,0,0,1-3.449.609c-1.826,0-2.435.2-7.3.2a55.993,55.993,0,0,1-7.3-.2,9.411,9.411,0,0,1-3.449-.609,7.126,7.126,0,0,1-3.449-3.449,9.411,9.411,0,0,1-.609-3.449c0-1.826-.2-2.435-.2-7.3a55.993,55.993,0,0,1,.2-7.3,9.411,9.411,0,0,1,.609-3.449,7.287,7.287,0,0,1,1.42-2.029,3.43,3.43,0,0,1,2.029-1.42,9.411,9.411,0,0,1,3.449-.609,55.993,55.993,0,0,1,7.3-.2m0-3.246a59.952,59.952,0,0,0-7.507.2,12.526,12.526,0,0,0-4.464.812A7.943,7.943,0,0,0,3.044,3.044,7.943,7.943,0,0,0,1.015,6.29,9.245,9.245,0,0,0,.2,10.754,59.952,59.952,0,0,0,0,18.261a59.952,59.952,0,0,0,.2,7.507,12.526,12.526,0,0,0,.812,4.464,7.943,7.943,0,0,0,2.029,3.246A7.943,7.943,0,0,0,6.29,35.508a12.526,12.526,0,0,0,4.464.812,59.954,59.954,0,0,0,7.507.2,59.954,59.954,0,0,0,7.507-.2,12.526,12.526,0,0,0,4.464-.812,8.513,8.513,0,0,0,5.275-5.275,12.526,12.526,0,0,0,.812-4.464c0-2.029.2-2.638.2-7.507a59.954,59.954,0,0,0-.2-7.507,12.526,12.526,0,0,0-.812-4.464,7.943,7.943,0,0,0-2.029-3.246,7.943,7.943,0,0,0-3.246-2.029A12.526,12.526,0,0,0,25.769.2,59.952,59.952,0,0,0,18.261,0m0,8.928a9.183,9.183,0,0,0-9.334,9.334,9.334,9.334,0,1,0,9.334-9.334m0,15.421a5.978,5.978,0,0,1-6.087-6.087,5.978,5.978,0,0,1,6.087-6.087,5.978,5.978,0,0,1,6.087,6.087,5.978,5.978,0,0,1-6.087,6.087M28,6.29a2.232,2.232,0,1,0,2.232,2.232A2.252,2.252,0,0,0,28,6.29" fill="#fff" fill-rule="evenodd"/>
</svg>
