<svg xmlns="http://www.w3.org/2000/svg" version="1.1" xmlns:xlink="http://www.w3.org/1999/xlink" width="22" height="22" x="0" y="0" viewBox="0 0 60 60" style="enable-background:new 0 0 512 512" xml:space="preserve" class=""><g><g fill="none" fill-rule="nonzero"><path fill="#ec4e5a" d="M59 30c0 16.016-12.984 29-29 29S1 46.016 1 30 13.984 1 30 1a29 29 0 0 1 29 29" opacity="1" data-original="#ec4e5a"></path><path fill="#d44651" d="M30 1c-.673 0-1.338.031-2 .076C43.2 2.126 54.994 14.763 54.994 30S43.2 57.873 28 58.924c.662.045 1.327.076 2 .076 16.016 0 29-12.984 29-29S46.016 1 30 1" opacity="1" data-original="#d44651" class=""></path><g fill="#17173f"><path d="M30 0C13.431 0 0 13.431 0 30s13.431 30 30 30 30-13.431 30-30C59.981 13.44 46.56.019 30 0zm0 58C14.536 58 2 45.464 2 30S14.536 2 30 2s28 12.536 28 28c-.018 15.457-12.543 27.982-28 28z" fill="#17173f" opacity="1" data-original="#17173f"></path><path d="M43.707 16.293a1 1 0 0 0-1.414 0L30 28.586 17.707 16.293a1 1 0 0 0-1.414 1.414L28.586 30 16.293 42.293a1 1 0 1 0 1.414 1.414L30 31.414l12.293 12.293a1 1 0 0 0 1.414-1.414L31.414 30l12.293-12.293a1 1 0 0 0 0-1.414z" fill="#17173f" opacity="1" data-original="#17173f"></path></g></g></g></svg>