<svg xmlns="http://www.w3.org/2000/svg" width="15.833" height="20.225" viewBox="0 0 15.833 20.225">
  <g id="logo" transform="translate(0.502 0.5)">
    <path id="Soustraction_2" data-name="Soustraction 2" d="M8.262,19.225H.934A.934.934,0,0,1,.009,18.16l.018-.129L1.867,4.92a.938.938,0,0,1,.925-.8H3.9v-.49a3.625,3.625,0,1,1,7.25,0v.49h.888a.938.938,0,0,1,.925.8L14.6,16.556l.225,1.6a.935.935,0,0,1-.926,1.064H12.582L11.894,17.8l-1.028-2.124a.386.386,0,0,0-.04-.129c-.233-.48-.478-.982-.694-1.425l-.053-.109-.231-.473v0a.478.478,0,0,1-.025-.057c-.013-.04-.034-.06-.064-.06a.112.112,0,0,0-.047.013l-.276.135-.047.023-.1.048-.5.245-.336.164-.047.023-.182.089-.012.006-.336.164-.356.177-.021.01-.465.23c-.136.066-.274.132-.407.195l-.278.133c-.036.017-.056.029-.062.046s0,.037.019.072l.061.126.013.027.148.3.176.357c.177.36.361.733.546,1.1a.372.372,0,0,0,.027.076L7.913,18.5l.349.72ZM5.969,9a1.136,1.136,0,0,0-.333.054.92.92,0,0,0-.456.307,1.04,1.04,0,0,0-.232.51.992.992,0,0,0,.059.562,1.388,1.388,0,0,0,.308.424,4.582,4.582,0,0,1,.522.6l.043.061c.081.113.164.229.24.349l.016.026a1.38,1.38,0,0,1,.2.409.619.619,0,0,1-.227.667,2.186,2.186,0,0,1-.269.168c-.047.025-.1.047-.146.069h0c-.045.02-.092.04-.136.063a.376.376,0,0,0-.185.155.277.277,0,0,0,.021.253c.119.25.226.47.328.674a.258.258,0,0,0,.227.162.281.281,0,0,0,.106-.023c.1-.04.193-.086.286-.131l.021-.01.34-.165.022-.011.11-.054.2-.1.008,0,.243-.118.544-.265.161-.079.007,0,.33-.161.167-.077.168-.078c.123-.059.255-.123.4-.2l.145-.075,0,0c.07-.036.142-.074.214-.108a.231.231,0,0,0,.12-.134.247.247,0,0,0-.008-.178c-.057-.13-.118-.262-.187-.4-.025-.052-.053-.1-.08-.155s-.066-.125-.1-.189a.239.239,0,0,0-.218-.148.263.263,0,0,0-.089.016,3.052,3.052,0,0,0-.394.182,1.012,1.012,0,0,1-.408.133l-.047,0a.591.591,0,0,1-.294-.079.7.7,0,0,1-.3-.336c-.015-.034-.027-.07-.039-.1l-.015-.045-.031-.086c-.025-.069-.05-.139-.071-.209-.033-.106-.06-.214-.09-.332l-.021-.083c-.036-.14-.072-.284-.1-.428-.015-.073-.025-.148-.034-.22-.007-.051-.013-.1-.022-.155a1.1,1.1,0,0,0-.18-.462,1.075,1.075,0,0,0-.515-.391l-.061-.013H6.242c-.043-.01-.092-.021-.14-.028A.909.909,0,0,0,5.969,9Zm-1.7-4.3a.865.865,0,1,0,.865.866A.866.866,0,0,0,4.268,4.708Zm6.492.028a.837.837,0,1,0,.836.837A.838.838,0,0,0,10.76,4.736ZM7.526.742A2.888,2.888,0,0,0,4.641,3.626v.49h5.766V3.686A2.936,2.936,0,0,0,7.612.743Zm4.232,18.483h-.645L9.692,16.4a.183.183,0,0,0,0-.1c-.016-.053-.031-.108-.045-.161l0-.008-.023-.084c-.049-.177-.1-.36-.147-.542-.013-.048-.022-.1.023-.115H9.5a.168.168,0,0,1,.095.056c.043.048.084.1.124.15v0h0c.028.035.056.071.085.106l.12.138,0,0c.074.084.15.171.221.261a.149.149,0,0,0,.116.059h.005L11.167,18l.59,1.219Zm-2.079,0H9.086l-.383-.79-.591-1.222a.1.1,0,0,0,.027-.085c-.012-.08-.025-.161-.037-.23-.005-.031-.011-.063-.017-.094-.011-.057-.022-.117-.029-.176a.124.124,0,0,1,.011-.054v0c0-.008.006-.016.009-.026l.034.008a.118.118,0,0,1,.065.025c.048.053.094.11.138.165s.071.089.108.132a.257.257,0,0,0,.155.1l1.1,2.245Z" fill="#9866ff" stroke="rgba(0,0,0,0)" stroke-miterlimit="10" stroke-width="1"/>
  </g>
</svg>
