<svg xmlns="http://www.w3.org/2000/svg" width="202" height="60" viewBox="0 0 202 60">
  <g id="Logo_Artifex" transform="translate(-47 -26.169)">
    <text id="Artifex" transform="translate(95 74.169)" fill="#31c9fb" stroke="#31c9fb" stroke-width="1" font-size="44" font-family="SegoeUI, Segoe UI" letter-spacing="0.1em"><tspan x="0" y="0">Artifex</tspan></text>
    <text id="Art" transform="translate(95 74.169)" fill="#9866ff" stroke="#9866ff" stroke-width="1" font-size="44" font-family="SegoeUI, Segoe UI" letter-spacing="0.1em"><tspan x="0" y="0">Art</tspan></text>
    <g id="Groupe_16" data-name="Groupe 16" transform="translate(47 36.169)">
      <g id="Groupe_4" data-name="Groupe 4" transform="translate(0 0)">
        <path id="Tracé_19" data-name="Tracé 19" d="M371.577,55.168l-.464-3.31L367.744,27.85a1.927,1.927,0,0,0-1.909-1.659H364v-1.01a7.479,7.479,0,1,0-14.957,0v1.01h-2.285a1.927,1.927,0,0,0-1.909,1.659l-3.8,27.05-.037.267a1.927,1.927,0,0,0,1.909,2.2h15.117l-.719-1.485-1.316-2.72a.766.766,0,0,1,1.38-.667l1.568,3.242.789,1.629h1.223l-2.328-4.741-.612-2.811a.766.766,0,1,1,1.38-.667l1.56,2.331,2.957,5.888h1.331l-1.218-2.517L361.8,50.224a.765.765,0,0,1,1.377-.667l2.357,4.871,1.421,2.934h2.707A1.928,1.928,0,0,0,371.577,55.168ZM364.926,29.2a1.725,1.725,0,1,1-1.725-1.727A1.726,1.726,0,0,1,364.926,29.2Zm-14.35-4.019a5.957,5.957,0,0,1,6.129-5.947,6.031,6.031,0,0,1,5.768,6.072v.886h-11.9Zm-.77,2.232a1.785,1.785,0,1,1-1.784,1.786A1.785,1.785,0,0,1,349.807,27.413Z" transform="translate(-341.001 -17.701)" fill="#9866ff"/>
      </g>
      <g id="Groupe_5" data-name="Groupe 5" transform="translate(5.952 32.627) rotate(-71)">
        <path id="Tracé_20" data-name="Tracé 20" d="M10.928,2.14a2.213,2.213,0,0,1-.416,1.267,2.285,2.285,0,0,1-.781.662c-.229.125-.471.228-.694.362-.311.185-.611.386-.914.584-.2.13-.4.26-.588.4-.173.126-.337.264-.5.4-.085.068-.174.132-.254.206a1.452,1.452,0,0,0-.455.808,1.215,1.215,0,0,0,.078.715,2.1,2.1,0,0,0,.533.707,6.173,6.173,0,0,1,.619.646.489.489,0,0,1-.05.688c-.19.185-.365.386-.553.573q-.325.324-.662.637a.49.49,0,0,1-.684-.009c-.2-.2-.4-.387-.6-.583q-.331-.325-.657-.656c-.177-.181-.348-.368-.526-.549-.268-.271-.538-.539-.808-.809L2.125,7.3l-.739-.74C1.131,6.306.874,6.052.621,5.8c-.163-.165-.327-.331-.48-.5a.509.509,0,0,1,.049-.744q.539-.553,1.093-1.093a.57.57,0,0,1,.48-.211.781.781,0,0,1,.427.257c.157.149.292.32.451.467a4.6,4.6,0,0,0,.507.412,1.288,1.288,0,0,0,1.453,0,3.045,3.045,0,0,0,.7-.712c.214-.266.41-.548.608-.826a9.623,9.623,0,0,0,.83-1.425,2.855,2.855,0,0,1,.62-.886A2.06,2.06,0,0,1,8.419.035,2.15,2.15,0,0,1,9.569.144a1.888,1.888,0,0,1,.9.683,2.182,2.182,0,0,1,.4.88C10.9,1.849,10.91,2,10.928,2.14Z" transform="translate(4.557 0)" fill="#fff"/>
        <path id="Tracé_21" data-name="Tracé 21" d="M5.327,9.374a.538.538,0,0,1-.39-.182c-.2-.2-.394-.4-.587-.609a.3.3,0,0,1-.03-.375c.2-.306.369-.63.556-.943.117-.2.249-.384.36-.584.038-.069.071-.194.035-.24-.063-.081-.168-.014-.24.034-.371.247-.739.5-1.108.752-.1.068-.2.136-.3.206a.383.383,0,0,1-.489-.038Q2.408,6.668,1.682,5.94a.428.428,0,0,1-.033-.593c.134-.229.285-.447.414-.679.03-.055,0-.143,0-.216a.492.492,0,0,0-.174.015c-.168.083-.33.181-.495.271-.14.077-.281.153-.423.227S.733,4.948.652,4.875a4.907,4.907,0,0,1-.5-.518.73.73,0,0,1,.084-.968c.84-.859,1.689-1.71,2.535-2.563.246-.248.493-.494.74-.74.115-.114.141-.115.258,0,.366.372.73.748,1.1,1.117.457.456.919.906,1.378,1.361.288.286.574.574.862.861l.622.622.818.818.683.683a.144.144,0,0,1-.017.249.991.991,0,0,0-.1.091Q7.481,7.519,5.851,9.147A.7.7,0,0,1,5.327,9.374Z" transform="translate(0 6.167)" fill="#fff"/>
      </g>
    </g>
  </g>
</svg>
