<svg xmlns="http://www.w3.org/2000/svg" xmlns:xlink="http://www.w3.org/1999/xlink" width="429" height="383" viewBox="0 0 429 383">
  <defs>
    <filter id="Rectangle_1953" x="0" y="0" width="429" height="383" filterUnits="userSpaceOnUse">
      <feOffset dy="3" input="SourceAlpha"/>
      <feGaussianBlur stdDeviation="10" result="blur"/>
      <feFlood flood-opacity="0.161"/>
      <feComposite operator="in" in2="blur"/>
      <feComposite in="SourceGraphic"/>
    </filter>
  </defs>
  <g id="miniLoader" transform="translate(-4996 -3798)">
    <g transform="matrix(1, 0, 0, 1, 4996, 3798)" filter="url(#Rectangle_1953)">
      <rect id="Rectangle_1953-2" data-name="Rectangle 1953" width="369" height="323" rx="12" transform="translate(30 27)" fill="#fff"/>
    </g>
    <path id="Rectangle_1954" data-name="Rectangle 1954" d="M12,0H357a12,12,0,0,1,12,12V236a0,0,0,0,1,0,0H0a0,0,0,0,1,0,0V12A12,12,0,0,1,12,0Z" transform="translate(5026 3825)" fill="#201e1e"/>
    <text id="ARTIFEX" transform="translate(5038 4098)" font-size="24" font-family="Raleway-Bold, Raleway" font-weight="700"><tspan x="0" y="0">ARTIFEX</tspan></text>
    <text id="_8" data-name="8" transform="translate(5053.5 4111.5) rotate(90)" font-size="28" font-family="Raleway-Regular, Raleway"><tspan x="0" y="0">8</tspan></text>
    <g id="logo" transform="translate(5319 4071)">
      <rect id="Rectangle_1844" data-name="Rectangle 1844" width="61" height="62" fill="none"/>
      <g id="logo-2" data-name="logo" transform="translate(9.18 3.362)">
        <path id="Soustraction_2" data-name="Soustraction 2" d="M-61.423-1838.083h-21.07a2.684,2.684,0,0,1-2.026-.922,2.69,2.69,0,0,1-.635-2.138l.052-.372,5.29-37.7a2.7,2.7,0,0,1,2.66-2.313h3.185v-1.408a10.353,10.353,0,0,1,3.053-7.371,10.357,10.357,0,0,1,7.371-3.054,10.435,10.435,0,0,1,10.422,10.425v1.408h2.553a2.7,2.7,0,0,1,2.66,2.313l4.7,33.458.646,4.613a2.687,2.687,0,0,1-.634,2.136,2.688,2.688,0,0,1-2.029.924H-49l-1.98-4.09-2.955-6.107a1.11,1.11,0,0,0-.114-.371c-.67-1.381-1.374-2.824-2-4.1l-.152-.313-.664-1.361,0-.008a1.38,1.38,0,0,1-.071-.164c-.039-.116-.1-.173-.184-.173a.322.322,0,0,0-.136.037l-.795.387-.134.065-.281.137-1.449.706-.965.472-.136.067-.523.255-.035.017c-.317.154-.646.314-.967.473q-.512.253-1.023.508l-.06.03c-.437.218-.89.443-1.336.662-.391.19-.787.378-1.171.56q-.4.19-.8.381c-.1.05-.161.084-.177.131s.006.106.055.206l.176.361.038.077q.213.437.427.874l.506,1.026c.51,1.036,1.038,2.108,1.57,3.172a1.068,1.068,0,0,0,.078.219l1.835,3.791,1,2.069Zm-6.594-29.393a3.266,3.266,0,0,0-.957.154,2.646,2.646,0,0,0-1.31.882,2.992,2.992,0,0,0-.666,1.467,2.851,2.851,0,0,0,.168,1.616,3.987,3.987,0,0,0,.886,1.219,13.186,13.186,0,0,1,1.5,1.74l.125.175c.232.324.472.659.689,1l.047.074a3.967,3.967,0,0,1,.571,1.175,1.78,1.78,0,0,1-.653,1.917,6.3,6.3,0,0,1-.773.482c-.136.073-.281.136-.421.2l-.009,0c-.13.057-.264.115-.391.181a1.081,1.081,0,0,0-.532.445.8.8,0,0,0,.06.728c.341.719.65,1.352.944,1.937a.743.743,0,0,0,.653.467.808.808,0,0,0,.3-.065c.279-.116.555-.248.821-.375l.061-.029c.333-.159.676-.327.978-.475l.064-.031.315-.154.588-.287.024-.012.7-.34,1.564-.762.462-.226.021-.01c.294-.144.627-.307.949-.462.159-.076.322-.15.479-.221s.324-.147.483-.223c.354-.168.734-.354,1.163-.568.14-.07.282-.144.418-.215l.009,0c.2-.1.407-.212.615-.311a.665.665,0,0,0,.346-.385.71.71,0,0,0-.023-.512c-.164-.373-.34-.753-.539-1.162-.073-.15-.152-.3-.229-.446-.094-.179-.19-.36-.275-.542a.687.687,0,0,0-.627-.426.754.754,0,0,0-.257.047,8.766,8.766,0,0,0-1.133.523,2.911,2.911,0,0,1-1.173.382c-.045,0-.09.005-.134.005a1.7,1.7,0,0,1-.844-.227,2.016,2.016,0,0,1-.858-.967c-.044-.1-.078-.2-.112-.3-.015-.043-.029-.086-.044-.129-.029-.082-.059-.164-.088-.246-.071-.2-.144-.4-.205-.6-.094-.306-.174-.614-.26-.956l-.061-.24c-.1-.4-.208-.817-.294-1.229-.044-.209-.072-.425-.1-.633-.019-.146-.038-.3-.063-.446a3.15,3.15,0,0,0-.518-1.329,3.093,3.093,0,0,0-1.481-1.123l-.174-.039-.018,0c-.124-.029-.265-.061-.4-.081A2.631,2.631,0,0,0-68.018-1867.476Zm-4.888-12.35a2.491,2.491,0,0,0-2.487,2.489,2.49,2.49,0,0,0,2.487,2.487,2.49,2.49,0,0,0,2.487-2.487A2.491,2.491,0,0,0-72.906-1879.826Zm18.667.082a2.408,2.408,0,0,0-2.4,2.407,2.407,2.407,0,0,0,2.4,2.4,2.407,2.407,0,0,0,2.4-2.4A2.409,2.409,0,0,0-54.239-1879.744Zm-9.3-11.486a8.3,8.3,0,0,0-8.294,8.293v1.408h16.58v-1.234a8.441,8.441,0,0,0-8.039-8.463C-63.374-1891.228-63.457-1891.229-63.539-1891.229Zm12.167,53.145h-1.855l-4.086-8.135a.526.526,0,0,0-.006-.278c-.046-.153-.089-.31-.131-.463l-.006-.023-.066-.241c-.14-.509-.284-1.036-.422-1.56-.036-.137-.064-.287.065-.331a.084.084,0,0,1,.027,0,.483.483,0,0,1,.273.16c.124.138.242.286.356.43l0,.006h0c.08.1.162.2.246.3.113.134.231.268.345.4l.012.014c.212.241.431.491.634.749a.427.427,0,0,0,.335.168h.015l2.564,5.3,1.7,3.506Zm-5.977,0h-1.7l-1.1-2.271-1.7-3.515a.277.277,0,0,0,.077-.245c-.034-.231-.073-.464-.107-.661-.015-.09-.032-.18-.049-.27-.031-.165-.062-.336-.085-.5a.356.356,0,0,1,.032-.155l0-.006c.009-.023.017-.047.025-.076a.985.985,0,0,0,.1.022.34.34,0,0,1,.188.073c.138.154.269.317.4.475.1.125.2.255.311.379a.738.738,0,0,0,.445.3l3.17,6.455Z" transform="translate(85.18 1893.362)" fill="#9866ff" stroke="rgba(0,0,0,0)" stroke-miterlimit="10" stroke-width="1"/>
      </g>
    </g>
    <text id="_" data-name="+" transform="translate(5038 4130)" font-size="28" font-family="Raleway-Regular, Raleway"><tspan x="0" y="0">+</tspan></text>
  </g>
</svg>
