<svg xmlns="http://www.w3.org/2000/svg" width="42.104" height="40" viewBox="0 0 42.104 40">
  <g id="museum" transform="translate(0 0)">
    <path id="Tracé_6476" data-name="Tracé 6476" d="M41.052,14.738A1.052,1.052,0,0,0,42.1,13.686V11.58a1.053,1.053,0,0,0-.562-.931L21.542.122a1.048,1.048,0,0,0-.98,0l-20,10.526A1.054,1.054,0,0,0,0,11.58v2.105a1.052,1.052,0,0,0,1.051,1.053H6.316V33.684H3.158a1.053,1.053,0,0,0-1.053,1.053v4.211A1.052,1.052,0,0,0,3.157,40h35.79A1.052,1.052,0,0,0,40,38.949V34.737a1.053,1.053,0,0,0-1.053-1.053H35.789V14.737Zm-28.42,0h5.263V33.684H12.632ZM29.473,33.684H24.21V14.738h5.263V33.684Zm0,0" transform="translate(0 0)" fill="#292929"/>
  </g>
</svg>
