<svg xmlns="http://www.w3.org/2000/svg" width="12.34" height="16.896" viewBox="0 0 12.34 16.896">
  <g id="order" transform="translate(-11.55 -4)">
    <path id="Tracé_6422" data-name="Tracé 6422" d="M22.683,4H12.757A1.208,1.208,0,0,0,11.55,5.207V19.689A1.208,1.208,0,0,0,12.757,20.9h9.926a1.208,1.208,0,0,0,1.207-1.207V5.207A1.208,1.208,0,0,0,22.683,4Zm.054,7.051h-5.2a.3.3,0,1,1,0-.6h5.2a.3.3,0,1,1,0,.6Zm.3,3.1a.3.3,0,0,1-.3.3h-5.2a.3.3,0,1,1,0-.6h5.2A.3.3,0,0,1,23.039,14.147Zm-6.816-3.958-1.859,1.578a.306.306,0,0,1-.453-.066l-.742-1.18a.3.3,0,0,1,.51-.323l.558.884L15.831,9.73a.3.3,0,1,1,.392.459Zm0,3.4-1.859,1.578a.306.306,0,0,1-.453-.066l-.742-1.18a.3.3,0,1,1,.51-.323l.558.884,1.593-1.352a.3.3,0,0,1,.392.459Zm0-6.8L14.365,8.366a.306.306,0,0,1-.453-.066L13.17,7.12a.3.3,0,0,1,.51-.323l.558.884,1.593-1.352a.3.3,0,1,1,.392.459ZM13.264,16.9A.3.3,0,0,1,13.68,17l.558.884,1.593-1.352a.3.3,0,1,1,.392.459l-1.859,1.578a.3.3,0,0,1-.453-.066l-.742-1.18a.3.3,0,0,1,.094-.416Zm3.977.646a.3.3,0,0,1,.3-.3h5.2a.3.3,0,1,1,0,.6h-5.2A.3.3,0,0,1,17.24,17.55Zm5.5-9.9h-5.2a.3.3,0,1,1,0-.6h5.2a.3.3,0,1,1,0,.6Z" transform="translate(0 0)"/>
  </g>
</svg>
