<svg xmlns="http://www.w3.org/2000/svg" version="1.1" xmlns:xlink="http://www.w3.org/1999/xlink" width="512" height="512" x="0" y="0" viewBox="0 0 68 68" style="enable-background:new 0 0 512 512" xml:space="preserve" class=""><g><path d="M3.2 54c-1 1.1-2 2.3-.9 3.4.7 2.2 5.1 2.8 16.4 5.3 1.7.4 3.4.7 5.1.4 3.7-.7 5.8-4.4 7.5-7.8 1.9 1.6 4.8 1.4 6.9.1s3.6-3.4 5-5.4c4-5.6 8-10.7 13.5-17.8.6.8 1.7 1 2.7.8 2.4-.6 6.5-4.8 6.8-9.6 0-.3 0-.7-.1-1s-.4-.6-.7-.6c.5-1.1.7-2.4.6-3.7.9-4.5-1.6-7.7-4.6-8.3-.3-.4-.7-.7-1.2-.9-11-3.3-19-3.6-21.3-3.9-1.9-.3-3.2-.5-4.4.5-6.9 5.7-10.7 11.2-16.1 18.1-3.1 3.9-8.8 12-9.8 16.9-.5 2.2-.2 4.4.7 6.1l.1.1C4.7 52.1 4 53.1 3.2 54zm60.4-30.8c0 3.5-2.9 8.5-5.7 7.2 1.5-1.9 4.5-5.4 5.7-7.2zM53.2 33.6c-4.4 5.2-9 10.6-12.9 16.3.8-4.1.2-4.4 3.5-9.1 4.6-6.5 10.8-15 17.6-23 .5-.6 1.1-1.1 1.7-1.4.5-.2 1.3.9 1.4 1.5-.7 3.1-2.5 5.3-11.3 15.7zm8.1-21.3c.2-.2.3-.5.4-.8 1.4.5 2.7 2 2.9 4-.7-.6-1.5-.6-2.1-.4-.8.4-1.6 1-2.3 1.8-6.8 8.1-13 16.6-17.6 23.1-1 1.5-2.2 3.1-2.8 5-.9 2.6-.5 6.3-2.4 8.3-1.6.8-3.6.5-5.6 0l.8-1.1c.8.3 1.6.2 2.2-.2 2.6-1.5 1.9-6.2 5.2-11.2 6.6-10.1 13.6-19.1 21.3-28.5zm-4.2-2.7c-9.6 11.6-8.8 11.7-9.5 11.6C42 20.3 36.6 19 31 18c-.4-.1-.5-.5-.3-.8l.3-.4C39.8 6.2 38.9 8 40.1 6.7c5.6.4 11.2 1.3 17 2.9zm-47 31.2c.9-4.6 6.6-12.5 9.5-16.3 5.4-6.9 9.1-12.3 15.9-17.9.2-.1.4-.3.7-.3.6-.1 1.3 0 2 .1-2.6 2.5-6.4 7.1-8.6 9.9-1 1.2-.3 3 1.2 3.2 5.6 1 11 2.2 16.6 3.2h.3c.6 0 1.2-.3 1.6-.8 2.4-3.3 7-9 9.4-11.8l1.2.3c.4.1.6.6.3 1-7.7 9.5-14.7 18.5-21.3 28.6-3.5 5.3-3 10.8-5.2 10.9l.2-.3c.5-.4.4-1.2-.3-1.3-6.7-1.7-14.2-3.7-21.1-5.4-.3-.1-.7.1-.8.4-.2.1.2-.2-1.1 1.2-.7-1.4-.8-3-.5-4.7zm2.4 4.6c5.2 1.3 10.6 2.7 16 4.1-1.9 2.7-4.5 5.9-7 8.9-.4.5-.1 1.2.6 1.2.2 0 .4-.1.6-.3 2.7-3.2 5.4-6.7 7.4-9.5.7.2 1.4.4 2.1.5l-6.8 9.2c-1 1.3-1.3 1.4-2.8 1.2-7.2-1.1-11.8-2.4-14.3-3-4.4-1-4.7-1.4-4.8-1.5 0-.4 1-1.4 1.4-1.8 2.3-2.9 4.9-6 7.6-9z" fill="#ffffff" opacity="1" data-original="#000000" class=""></path><path d="M24.5 25.3c2 .5 2.5.7 3.3.7 1.9 0 2.8-1.7 2.2-2.9-.4-.6-1-.9-1.6-1.1-.1 0-.3-.1-.4-.1-1.4-.4-3.6-1.1-4.7.5-1 1.3-.3 2.6 1.2 2.9zm-.1-2.1c.5-.8 2.6 0 3.5.3.1 0 .6.2.7.3.1.2-.1.7-.9.7-.5 0-.9-.1-2.9-.6-.3-.1-.5-.2-.5-.3s0-.2.1-.4zM32.2 27.1c2 .5 2.5.7 3.3.7 1.9 0 2.8-1.7 2.2-2.9-.4-.8-1.3-.9-2-1.2-1.4-.4-3.6-1.1-4.7.5-.3.4-.4.9-.4 1.3 0 .7.6 1.3 1.6 1.6zm0-2.1c.5-.7 2.2-.1 3.1.1.4.1 1 .3 1.2.5.1.2-.1.7-.9.7-.4 0-.8-.1-1.2-.2-1-.3-2.2-.4-2.2-.8-.2 0-.2-.1 0-.3zM40.4 28.8c1.9.5 2.6.7 3.3.7 2 0 2.9-1.7 2.2-2.9-.4-.8-1.3-.9-2-1.2-1.4-.4-3.6-1.1-4.7.5-.3.4-.4.9-.4 1.3.1.7.7 1.3 1.6 1.6zm0-2.1c.5-.7 2.2-.1 3.1.1.4.1 1 .3 1.2.5.1.2-.1.7-.9.7-.7 0-1.1-.2-2.9-.6-.3-.1-.5-.2-.5-.3-.1-.2-.1-.3 0-.4zM19.9 31.4c2 .4 2.6.6 3.3.6 1.9-.1 2.8-1.8 2.1-2.9-.4-.8-1.2-.9-2-1.2-1.4-.4-3.7-1.1-4.7.6-.3.4-.4.9-.4 1.3.1.8.7 1.4 1.7 1.6zm-.1-2c.5-.8 2.6 0 3.5.2.2 0 .6.2.7.3.1.2-.1.7-.9.7-.4 0-.9-.1-2.9-.6-.3-.1-.5-.2-.5-.3s0-.2.1-.3zM32.8 33c.6-.6.7-1.5.3-2.2-.4-.8-1.3-.9-2-1.2-1.4-.4-3.7-1.1-4.7.6-.8 1.3-.2 2.6 1.3 2.9 1.8.4 3.8 1.2 5.1-.1zm-5.3-1.7s0-.1.1-.3c.5-.8 2.6 0 3.5.2.1 0 .6.2.7.3.1.2-.1.7-.9.7-.4 0-.8-.1-1.2-.2-1-.3-2.2-.4-2.2-.7zM34.6 31.7c-.8 1.3-.2 2.6 1.3 2.9 1.7.4 2.6.6 3.3.6 1.9-.1 2.8-1.8 2.1-2.9-.4-.8-1.3-.9-2-1.2-1.3-.3-3.6-1-4.7.6zm5.5 1.4c0 .1 0 .3-.1.4-.4.5-1.4.2-2 .1-1.7-.5-2.6-.4-2.1-1 .5-.7 2.1-.2 3.1.1.4 0 1 .1 1.1.4zM15.5 37.7c1.8.4 2.5.6 3.2.6 2 0 2.9-1.7 2.2-2.9-.4-.8-1.2-.9-2-1.2-1.4-.4-3.7-1.1-4.7.6-.9 1.3-.2 2.6 1.3 2.9zm-.1-2.1c.5-.7 2.1-.2 3.1.1.4.1 1 .2 1.2.5.1.2-.1.7-.9.7-.4 0-.9-.1-2.9-.6-.3-.1-.5-.2-.5-.3-.1-.1-.1-.2 0-.4zM26.6 35.9c-1.4-.4-3.7-1.1-4.7.6-.8 1.3-.2 2.6 1.3 2.9 2 .4 2.6.6 3.3.6 1.9-.1 2.8-1.8 2.1-2.9-.4-.8-1.2-1-2-1.2zm-.1 2.6c-.4 0-.8-.1-1.2-.2-1-.3-2.2-.4-2.3-.7s0-.1.1-.3c.5-.8 2.6 0 3.5.2.2 0 .6.2.7.3.2.2 0 .6-.8.7zM34.9 37.4c-1.4-.4-3.7-1.1-4.7.6-.8 1.3-.2 2.6 1.3 2.9 1.8.4 2.5.6 3.2.6 2 0 2.9-1.7 2.2-2.9-.3-.6-1.2-.9-2-1.2zm-.1 2.6c-.4 0-.9-.1-3-.6-.3-.1-.5-.2-.5-.3 0 0 0-.1.1-.3.5-.8 2.6 0 3.5.2.2 0 .6.2.7.3.2.2-.1.7-.8.7zM40.5 10c1.3 2.4 2.4 5 3.3 7.6.1.3.4.5.7.5.5 0 .9-.5.7-1-.9-2.7-2-5.3-3.4-7.8-.2-.4-.7-.5-1-.3s-.5.7-.3 1zM39.4 13.3c-.1-.4-.6-.6-1-.5s-.6.6-.5 1l1 3c.1.3.4.5.7.5.5 0 .9-.5.7-1zM47.7 14.5c.4-.1.7-.5.6-.9l-.6-2.6c-.1-.4-.5-.7-.9-.6s-.7.5-.6.9l.5 2.6c.2.4.6.6 1 .6z" fill="#ffffff" opacity="1" data-original="#000000" class=""></path></g></svg>