<svg xmlns="http://www.w3.org/2000/svg" width="40" height="40" viewBox="0 0 40 40">
  <g id="plan" transform="translate(-1 -1)">
    <path id="Tracé_6476" data-name="Tracé 6476" d="M37,1H5A4,4,0,0,0,1,5V37a4,4,0,0,0,4,4H37a4,4,0,0,0,4-4V5a4,4,0,0,0-4-4ZM22.229,16.728a1.331,1.331,0,0,0-2.536,0l-1.8,5.528H12.085a1.332,1.332,0,0,0-.784,2.412L16,28.084l-1.8,5.528A1.333,1.333,0,0,0,16.26,35.1l4.7-3.417,4.7,3.417a1.333,1.333,0,0,0,2.052-1.491l-1.8-5.528,4.7-3.416a1.333,1.333,0,0,0-.784-2.412H24.025l-1.8-5.528Zm8.1-13.061H11.667v12a1.333,1.333,0,0,0,1.916,1.2l7.364-3.577,7.477,3.58a1.336,1.336,0,0,0,1.909-1.2Z" transform="translate(0)" fill-rule="evenodd"/>
  </g>
</svg>
