<svg xmlns="http://www.w3.org/2000/svg" version="1.1" xmlns:xlink="http://www.w3.org/1999/xlink" width="512" height="512" x="0" y="0" viewBox="0 0 512 512" style="enable-background:new 0 0 512 512" xml:space="preserve" class=""><g><path d="M355.939 465.095H156.061c-6.101 0-11.047-4.946-11.047-11.047V57.952c0-6.101 4.946-11.047 11.047-11.047h199.877c6.101 0 11.047 4.946 11.047 11.047v396.097c.001 6.101-4.945 11.046-11.046 11.046z" style="" fill="#adadad" data-original="#00dcfc" class="" opacity="1"></path><path d="M18.547 440.107h126.467V93.253H18.547C12.446 93.253 7.5 98.199 7.5 104.3v324.76c0 6.101 4.946 11.047 11.047 11.047z" style="" fill="#787777" data-original="#ffd250" class="" opacity="1"></path><path d="M493.453 440.107H366.986V93.253h126.467c6.101 0 11.047 4.946 11.047 11.047v324.76c0 6.101-4.946 11.047-11.047 11.047z" style="" fill="#787777" data-original="#ffa4d1" class="" opacity="1"></path><path d="M355.939 46.905h-23.953v370.443c0 6.101-4.946 11.047-11.047 11.047H145.014v25.654c0 6.101 4.946 11.047 11.047 11.047h199.877c6.101 0 11.047-4.946 11.047-11.047V57.952c.001-6.101-4.945-11.047-11.046-11.047z" style="" fill="#bababa" data-original="#00d1fd" class="" opacity="1"></path><path d="M493.453 93.253H474.5V399.06c0 6.101-4.946 11.047-11.047 11.047h-96.467v30h126.467c6.101 0 11.047-4.946 11.047-11.047V104.3c0-6.101-4.946-11.047-11.047-11.047z" style="" fill="#adadad" data-original="#ff7bba" class="" opacity="1"></path><path d="M304.965 372.904H204.542c-6.702 0-12.135 5.433-12.135 12.135v23.986c0 6.702 5.433 12.135 12.135 12.135h100.423c6.702 0 12.135-5.433 12.135-12.135v-23.986c0-6.702-5.433-12.135-12.135-12.135z" style="" fill="#fff5f5" data-original="#fff5f5" class=""></path><path d="M144.038 367.857H68.802c-6.702 0-12.135 5.433-12.135 12.135v16.035c0 6.702 5.433 12.135 12.135 12.135h75.236v-40.305z" style="" fill="#3c3c3c" data-original="#00d8a2" class="" opacity="1"></path><path d="m273.651 104.96-14.1-22.37c-1.647-2.612-5.455-2.612-7.102 0l-14.101 22.37a4.197 4.197 0 0 1-6.204 1.014l-22.139-18.062c-2.742-2.237-6.851-.286-6.851 3.252v45.898a8.375 8.375 0 0 0 8.375 8.375h88.941a8.375 8.375 0 0 0 8.375-8.375V91.164c0-3.538-4.109-5.489-6.851-3.252l-22.139 18.062a4.198 4.198 0 0 1-6.204-1.014z" style="" fill="#787777" data-original="#ffd250" class="" opacity="1"></path><path d="M145.014 160.617H69.635c-6.163 0-11.16-4.996-11.16-11.16v-13.7c0-6.163 4.996-11.16 11.16-11.16h75.379v36.02z" style="" fill="#3c3c3c" data-original="#00d8a2" class="" opacity="1"></path><path d="M368.52 367.857h75.236c6.702 0 12.135 5.433 12.135 12.135v16.035c0 6.702-5.433 12.135-12.135 12.135H368.52v-40.305zM367.544 160.617h75.379c6.163 0 11.16-4.996 11.16-11.16v-13.7c0-6.163-4.996-11.16-11.16-11.16h-75.379v36.02z" style="" fill="#3c3c3c" data-original="#0094ff" class="" opacity="1"></path><path d="M355.939 465.095H156.061c-6.101 0-11.047-4.946-11.047-11.047V57.952c0-6.101 4.946-11.047 11.047-11.047h199.877c6.101 0 11.047 4.946 11.047 11.047v396.097c.001 6.101-4.945 11.046-11.046 11.046zM142.014 93.253H18.547C12.446 93.253 7.5 98.199 7.5 104.3v324.76c0 6.101 4.946 11.047 11.047 11.047h87.467M406.986 93.253h86.467c6.101 0 11.047 4.946 11.047 11.047v324.76c0 6.101-4.946 11.047-11.047 11.047H369.986" style="stroke-width:15;stroke-linecap:round;stroke-linejoin:round;stroke-miterlimit:10;" fill="none" stroke="#000000" stroke-width="15" stroke-linecap="round" stroke-linejoin="round" stroke-miterlimit="10" data-original="#000000" class=""></path><path d="M304.965 372.904H204.542c-6.702 0-12.135 5.433-12.135 12.135v23.986c0 6.702 5.433 12.135 12.135 12.135h100.423c6.702 0 12.135-5.433 12.135-12.135v-23.986c0-6.702-5.433-12.135-12.135-12.135zM144.038 367.857H68.802c-6.702 0-12.135 5.433-12.135 12.135v16.035c0 6.702 5.433 12.135 12.135 12.135h75.236v-40.305zM188.219 180.868h135.562M188.219 216.299h82.67M303.755 216.299h20.026M188.219 266h82.67M303.755 266h20.026M188.219 297.174h82.67M303.755 297.174h20.026M188.219 328.348h82.67M303.755 328.348h20.026M58.476 266h32.67M124.012 266h20.026M58.476 297.174h32.67M124.012 297.174h20.026M58.476 328.348h32.67M124.012 328.348h20.026M58.476 195.318h32.67M124.012 195.318h20.026M58.476 226.492h32.67M124.012 226.492h20.026M273.651 104.96l-14.1-22.37c-1.647-2.612-5.455-2.612-7.102 0l-14.101 22.37a4.197 4.197 0 0 1-6.204 1.014l-22.139-18.062c-2.742-2.237-6.851-.286-6.851 3.252v45.898a8.375 8.375 0 0 0 8.375 8.375h88.941a8.375 8.375 0 0 0 8.375-8.375V91.164c0-3.538-4.109-5.489-6.851-3.252l-22.139 18.062a4.198 4.198 0 0 1-6.204-1.014zM145.014 160.617H69.635c-6.163 0-11.16-4.996-11.16-11.16v-13.7c0-6.163 4.996-11.16 11.16-11.16h75.379v36.02zM368.52 367.857h75.236c6.702 0 12.135 5.433 12.135 12.135v16.035c0 6.702-5.433 12.135-12.135 12.135H368.52v-40.305zM454.083 266h-32.671M388.546 266H368.52M454.083 297.174h-32.671M388.546 297.174H368.52M454.083 328.348h-32.671M388.546 328.348H368.52M454.083 195.318h-32.671M388.546 195.318H368.52M454.083 226.492h-32.671M388.546 226.492H368.52M367.544 160.617h75.379c6.163 0 11.16-4.996 11.16-11.16v-13.7c0-6.163-4.996-11.16-11.16-11.16h-75.379v36.02z" style="stroke-width:15;stroke-linecap:round;stroke-linejoin:round;stroke-miterlimit:10;" fill="none" stroke="#000000" stroke-width="15" stroke-linecap="round" stroke-linejoin="round" stroke-miterlimit="10" data-original="#000000" class=""></path></g></svg>