<svg xmlns="http://www.w3.org/2000/svg" width="12.34" height="16.354" viewBox="0 0 12.34 16.354">
  <g id="save" transform="translate(-121.022)">
    <path id="Tracé_6423" data-name="Tracé 6423" d="M36.962,0H27.473a1.449,1.449,0,0,0-1.451,1.388V15.425a1.076,1.076,0,0,0,.183.624.71.71,0,0,0,.586.3,1.058,1.058,0,0,0,.672-.283l4.245-3.6a.841.841,0,0,1,1.03,0l4.231,3.6a1.021,1.021,0,0,0,.657.284c.372,0,.735-.287.735-.929V1.388A1.4,1.4,0,0,0,36.962,0Z" transform="translate(95)" fill="#9866ff"/>
  </g>
</svg>
