<svg xmlns="http://www.w3.org/2000/svg" width="16.484" height="18.396" viewBox="0 0 16.484 18.396">
  <path id="Tracé_6424" data-name="Tracé 6424" d="M17.224,5.269,12.586.139a.4.4,0,0,0-.607,0l-.02.022a1.747,1.747,0,0,0-.441,1.177,1.794,1.794,0,0,0,.188.805L6.854,6.75a1.887,1.887,0,0,0-2.78.088l-.029.032a.511.511,0,0,0,0,.671l2.778,3.073L4.118,13.607c-.054.062-1.335,1.521-2.177,2.683C1.139,17.4.98,17.6.972,17.609a.511.511,0,0,0,.019.647.4.4,0,0,0,.587.022c.007-.007.186-.179,1.193-1.071,1.05-.931,2.37-2.348,2.43-2.413l2.7-2.988,2.63,2.908a.4.4,0,0,0,.607,0l.029-.032a2.415,2.415,0,0,0,.08-3.074l4.165-5.367a1.385,1.385,0,0,0,.728.208A1.426,1.426,0,0,0,17.2,5.962l.02-.022a.511.511,0,0,0,0-.671Z" transform="translate(-0.865 0)" fill="#9866ff"/>
</svg>
