<svg xmlns="http://www.w3.org/2000/svg" width="39.759" height="32.249" viewBox="0 0 39.759 32.249">
  <path id="Tracé_2" data-name="Tracé 2" d="M50.59,34.249c15.02,0,23.193-12.37,23.193-23.193v-1.1a17.955,17.955,0,0,0,3.976-4.2A18.336,18.336,0,0,1,73.121,7.08a8.594,8.594,0,0,0,3.534-4.418,20.26,20.26,0,0,1-5.08,1.988A7.889,7.889,0,0,0,65.611,2a8.3,8.3,0,0,0-8.173,8.173,4.306,4.306,0,0,0,.221,1.767A22.837,22.837,0,0,1,40.872,3.325a8.459,8.459,0,0,0-1.1,4.2A8.776,8.776,0,0,0,43.3,14.37a7.446,7.446,0,0,1-3.755-1.1h0a8.073,8.073,0,0,0,6.627,7.952,6.81,6.81,0,0,1-2.209.221,3.759,3.759,0,0,1-1.546-.221,8.368,8.368,0,0,0,7.731,5.743,16.677,16.677,0,0,1-10.161,3.534A6.115,6.115,0,0,1,38,30.273a20.849,20.849,0,0,0,12.59,3.976" transform="translate(-38 -2)" fill="#fff" fill-rule="evenodd"/>
</svg>
