<svg xmlns="http://www.w3.org/2000/svg" width="166.334" height="105.618" viewBox="0 0 166.334 105.618">
  <g id="transaction" transform="translate(-0.5 -93.763)">
    <path id="Tracé_6358" data-name="Tracé 6358" d="M110.815,103H215a5.526,5.526,0,0,1,5.512,5.512v63.611A5.526,5.526,0,0,1,215,177.636H110.815a5.524,5.524,0,0,1-5.5-5.512V108.512A5.524,5.524,0,0,1,110.815,103Z" transform="translate(-70.695 -6.23)" fill="#23b658" fill-rule="evenodd"/>
    <path id="Tracé_6359" data-name="Tracé 6359" d="M237.721,194.6a21.5,21.5,0,1,0-21.495-21.5A21.538,21.538,0,0,0,237.721,194.6Z" transform="translate(-145.506 -39.009)" fill="#4ce079" fill-rule="evenodd"/>
    <path id="Tracé_6360" data-name="Tracé 6360" d="M110.588,172.123V108.512a5.524,5.524,0,0,1,5.5-5.512h-5.276a5.524,5.524,0,0,0-5.5,5.512v63.611a5.524,5.524,0,0,0,5.5,5.512h5.276a5.525,5.525,0,0,1-5.5-5.512Z" transform="translate(-70.695 -6.23)" fill="#1d9447" fill-rule="evenodd"/>
    <path id="Tracé_6361" data-name="Tracé 6361" d="M239.286,194.54a21.5,21.5,0,0,1,0-42.889q-.781-.055-1.564-.055a21.5,21.5,0,0,0,0,43C238.249,194.595,238.768,194.577,239.286,194.54Z" transform="translate(-145.506 -39.008)" fill="#2fcc63" fill-rule="evenodd"/>
    <path id="Tracé_6362" data-name="Tracé 6362" d="M390.154,280.531,365.185,305.5V291.265h-29.8V269.789h29.8V255.553Z" transform="translate(-225.877 -109.126)" fill="#24a0f4" fill-rule="evenodd"/>
    <path id="Tracé_6363" data-name="Tracé 6363" d="M390.154,332.29l-24.969,24.97V343.024h-29.8V332.29Z" transform="translate(-225.877 -160.885)" fill="#1691e3" fill-rule="evenodd"/>
    <path id="Tracé_6364" data-name="Tracé 6364" d="M30.9,101.909a8.155,8.155,0,0,1,8.146-8.146H144.1a8.151,8.151,0,0,1,8.136,8.146v43.673a2.587,2.587,0,0,1-5.174,0V101.909a2.971,2.971,0,0,0-2.963-2.972H39.045a2.975,2.975,0,0,0-2.972,2.972,2.587,2.587,0,1,1-5.174,0Zm70.018,67.119H39.045a2.975,2.975,0,0,1-2.972-2.972,2.587,2.587,0,1,0-5.174,0,8.155,8.155,0,0,0,8.146,8.146h61.872a2.587,2.587,0,0,0,0-5.174Zm65.918,2.587a2.587,2.587,0,0,1-.758,1.829l-25.189,25.18a2.587,2.587,0,0,1-4.416-1.83V185.025H109.007a2.587,2.587,0,0,1-2.587-2.587V160.781a2.587,2.587,0,0,1,2.587-2.587h27.464V146.426a2.587,2.587,0,0,1,4.416-1.829l25.189,25.189A2.587,2.587,0,0,1,166.834,171.615Zm-6.246,0-18.944-18.944v8.11a2.587,2.587,0,0,1-2.587,2.587H111.594v16.484h27.464a2.587,2.587,0,0,1,2.587,2.587v8.112Zm-69.019-61.9a24.267,24.267,0,1,1-24.263,24.263A24.295,24.295,0,0,1,91.57,109.715Zm0,5.174a19.093,19.093,0,1,0,19.1,19.089A19.11,19.11,0,0,0,91.57,114.889Zm0,2.944a2.587,2.587,0,0,1,2.587,2.587v2.486h5a2.587,2.587,0,0,1,0,5.174h-5v3.311h.752a6.834,6.834,0,0,1,0,13.668h-.752v2.486a2.587,2.587,0,0,1-5.174,0v-2.486h-5a2.587,2.587,0,0,1,0-5.174h5v-3.321h-.752a6.829,6.829,0,1,1,0-13.659h.752V120.42a2.586,2.586,0,0,1,2.587-2.587Zm3.339,18.731h-.752v3.321h.752a1.662,1.662,0,0,0,1.66-1.66A1.683,1.683,0,0,0,94.909,136.565Zm-5.926-8.485H88.23a1.656,1.656,0,1,0,0,3.311h.752ZM7.536,113.632h25.95a2.587,2.587,0,0,0,0-5.174H7.536a2.587,2.587,0,0,0,0,5.174Zm25.95,5.981H19.763a2.587,2.587,0,0,0,0,5.174H33.486a2.587,2.587,0,1,0,0-5.174Zm0,11.154h-19.4a2.587,2.587,0,0,0,0,5.174h19.4a2.587,2.587,0,1,0,0-5.174Zm3.66,13.741a2.587,2.587,0,0,0-2.587-2.587H3.087a2.587,2.587,0,1,0,0,5.174H34.559a2.586,2.586,0,0,0,2.587-2.587Zm-1.073,11.154a2.587,2.587,0,0,0-2.587-2.587H19.763a2.587,2.587,0,1,0,0,5.174H33.486A2.586,2.586,0,0,0,36.073,155.663Z"/>
  </g>
</svg>
