<svg xmlns="http://www.w3.org/2000/svg" width="36.989" height="35.535" viewBox="0 0 36.989 35.535">
  <g id="unfollow" transform="translate(-1 -1)">
    <g id="Layer_2" data-name="Layer 2" transform="translate(1.25 1.25)">
      <path id="Tracé_6378" data-name="Tracé 6378" d="M21.046,21.777a8.913,8.913,0,0,0,.64,3.37l.1.236H5.041A3.791,3.791,0,0,1,1.25,21.574v-.842A11.3,11.3,0,0,1,5.883,11.55a11.288,11.288,0,0,0,15.028,0,11.288,11.288,0,0,1,3.151,3.471,8.828,8.828,0,0,0-3.016,6.756Z" transform="translate(-1.25 5.846)" fill="#ff0d0d" stroke="#292929" stroke-width="0.5"/>
      <circle id="Ellipse_113" data-name="Ellipse 113" cx="8.845" cy="8.845" r="8.845" transform="translate(3.37)" fill="#ff0d0d" stroke="#292929" stroke-width="0.5"/>
      <path id="Tracé_6381" data-name="Tracé 6381" d="M35.483,28a7.483,7.483,0,1,0,7.483,7.483A7.484,7.484,0,0,0,35.483,28Zm4.25,10.146-1.587,1.587-2.663-2.663-2.663,2.663-1.587-1.588L33.9,35.483l-2.663-2.663,1.587-1.587L35.483,33.9l2.663-2.663,1.587,1.588-2.663,2.662Z" transform="translate(-6.478 -7.932)" fill="#ff0d0d" stroke="#292929" stroke-width="0.5"/>
    </g>
  </g>
</svg>
