<svg xmlns="http://www.w3.org/2000/svg" version="1.1" xmlns:xlink="http://www.w3.org/1999/xlink" width="80" height="80" x="0" y="0" viewBox="0 0 72 72" style="enable-background:new 0 0 512 512" xml:space="preserve" class=""><g><linearGradient id="b" x1="3.791" x2="68.4" y1="35.823" y2="35.823" gradientUnits="userSpaceOnUse"><stop offset="0" stop-color="#afaeff"></stop><stop offset="1" stop-color="#eac2ff"></stop></linearGradient><linearGradient id="a"><stop offset="0" stop-color="#194fa3"></stop><stop offset="1" stop-color="#ae44af"></stop></linearGradient><linearGradient xlink:href="#a" id="c" x1="37.205" x2="34.829" y1="6.343" y2="65.749" gradientUnits="userSpaceOnUse"></linearGradient><linearGradient xlink:href="#a" id="d" x1="39.323" x2="36.947" y1="6.428" y2="65.834" gradientUnits="userSpaceOnUse"></linearGradient><linearGradient xlink:href="#a" id="e" x1="40.162" x2="37.785" y1="6.461" y2="65.867" gradientUnits="userSpaceOnUse"></linearGradient><linearGradient xlink:href="#a" id="f" x1="44.714" x2="42.338" y1="6.643" y2="66.049" gradientUnits="userSpaceOnUse"></linearGradient><linearGradient xlink:href="#a" id="g" x1="49.766" x2="47.39" y1="6.845" y2="66.251" gradientUnits="userSpaceOnUse"></linearGradient><linearGradient xlink:href="#a" id="h" x1="36.907" x2="34.531" y1="6.331" y2="65.737" gradientUnits="userSpaceOnUse"></linearGradient><linearGradient xlink:href="#a" id="i" x1="13.979" x2="11.603" y1="5.414" y2="64.82" gradientUnits="userSpaceOnUse"></linearGradient><linearGradient xlink:href="#a" id="j" x1="32.429" x2="30.053" y1="6.152" y2="65.558" gradientUnits="userSpaceOnUse"></linearGradient><linearGradient xlink:href="#a" id="k" x1="54.596" x2="52.219" y1="7.039" y2="66.444" gradientUnits="userSpaceOnUse"></linearGradient><path fill="url(#b)" d="M67 33c-5-10-13-5-13-5v-2s2-16-13-19-19 14-19 14h-7S2 26 4 37s13 12 13 12h5v14l3 2h25l3-3V49h4l5-1s10-5 5-15z" opacity="1" data-original="url(#b)" class=""></path><path fill="url(#c)" d="M57 26c-.773 0-1.546.077-2.311.23.207-1.064.311-2.146.311-3.23 0-9.374-7.626-17-17-17-8.343 0-15.497 6.214-16.783 14.35A14.94 14.94 0 0 0 18 20C9.729 20 3 26.729 3 35s6.729 15 15 15a1 1 0 1 0 0-2c-7.168 0-13-5.832-13-13s5.832-13 13-13c1.279 0 2.551.189 3.779.563a.998.998 0 0 0 1.288-.871C23.73 14.014 30.29 8 38 8c8.271 0 15 6.729 15 15 0 1.473-.218 2.939-.648 4.358a1 1 0 0 0 1.293 1.232A9.975 9.975 0 0 1 57 28c5.514 0 10 4.486 10 10s-4.486 10-10 10a1 1 0 1 0 0 2c6.617 0 12-5.383 12-12s-5.383-12-12-12z" opacity="1" data-original="url(#c)" class=""></path><path fill="url(#d)" d="M49 43H38.923a2.99 2.99 0 0 1-2.343-1.125l-1.599-1.999A4.976 4.976 0 0 0 31.077 38H26c-2.757 0-5 2.243-5 5v18c0 2.757 2.243 5 5 5h23c2.757 0 5-2.243 5-5V48c0-2.757-2.243-5-5-5zm3 18c0 1.654-1.346 3-3 3H26c-1.654 0-3-1.346-3-3V43c0-1.654 1.346-3 3-3h5.077a2.99 2.99 0 0 1 2.343 1.125l1.599 1.999A4.976 4.976 0 0 0 38.923 45H49c1.654 0 3 1.346 3 3z" opacity="1" data-original="url(#d)"></path><path fill="url(#e)" d="M39 47h-1a1 1 0 1 0 0 2h1a1 1 0 1 0 0-2z" opacity="1" data-original="url(#e)"></path><path fill="url(#f)" d="M44 47h-2a1 1 0 1 0 0 2h1v2a1 1 0 1 0 2 0v-3a1 1 0 0 0-1-1z" opacity="1" data-original="url(#f)"></path><path fill="url(#g)" d="M49 47h-2a1 1 0 1 0 0 2h1v5a1 1 0 1 0 2 0v-6a1 1 0 0 0-1-1z" opacity="1" data-original="url(#g)"></path><path fill="url(#h)" d="M38 29v11a1 1 0 1 0 2 0V30h5a1 1 0 0 0 .707-1.707l-9-9a.999.999 0 0 0-1.414 0l-9 9A1 1 0 0 0 27 30h5v6a1 1 0 1 0 2 0v-7a1 1 0 0 0-1-1h-3.586L36 21.414 42.586 28H39a1 1 0 0 0-1 1z" opacity="1" data-original="url(#h)"></path><path fill="url(#i)" d="M7 35a1 1 0 1 0 2 0c0-4.962 4.037-9 9-9a1 1 0 1 0 0-2c-6.065 0-11 4.935-11 11z" opacity="1" data-original="url(#i)"></path><path fill="url(#j)" d="M38 10c-7.168 0-13 5.832-13 13a1 1 0 1 0 2 0c0-6.065 4.935-11 11-11a1 1 0 1 0 0-2z" opacity="1" data-original="url(#j)"></path><path fill="url(#k)" d="M51 38c0-3.309 2.691-6 6-6a1 1 0 1 0 0-2c-4.411 0-8 3.589-8 8a1 1 0 1 0 2 0z" opacity="1" data-original="url(#k)"></path></g></svg>