<svg id="logo" xmlns="http://www.w3.org/2000/svg" width="42.641" height="55.277" viewBox="0 0 42.641 55.277">
  <g id="Groupe_4" data-name="Groupe 4" transform="translate(0 0)">
    <path id="Tracé_19" data-name="Tracé 19" d="M383.615,69.918l-.646-4.614-4.7-33.459a2.685,2.685,0,0,0-2.66-2.313H373.06V28.126a10.423,10.423,0,1,0-20.846,0v1.408h-3.184a2.686,2.686,0,0,0-2.66,2.313l-5.29,37.7-.052.372a2.685,2.685,0,0,0,2.66,3.059h21.069l-1-2.069-1.834-3.791a1.068,1.068,0,0,1,1.923-.929l2.185,4.519,1.1,2.27h1.705l-3.245-6.608-.853-3.917a1.068,1.068,0,1,1,1.923-.929l2.174,3.249,4.121,8.206h1.855l-1.7-3.507-3.117-6.442a1.066,1.066,0,0,1,1.92-.929l3.285,6.789,1.981,4.089h3.772A2.688,2.688,0,0,0,383.615,69.918Zm-9.27-36.192a2.4,2.4,0,1,1-2.4-2.407A2.405,2.405,0,0,1,374.345,33.726Zm-20-5.6a8.3,8.3,0,0,1,8.541-8.288,8.4,8.4,0,0,1,8.039,8.462v1.234h-16.58Zm-1.073,3.111a2.488,2.488,0,1,1-2.487,2.49A2.488,2.488,0,0,1,353.274,31.237Z" transform="translate(-341.001 -17.701)" fill="#9866ff"/>
  </g>
  <g id="Groupe_5" data-name="Groupe 5" transform="translate(8.295 45.472) rotate(-71)">
    <path id="Tracé_20" data-name="Tracé 20" d="M15.231,2.982a3.084,3.084,0,0,1-.58,1.766,3.184,3.184,0,0,1-1.089.922c-.32.174-.656.318-.968.5-.433.257-.852.538-1.273.814-.276.181-.552.363-.819.557-.241.175-.47.367-.7.553-.119.094-.243.184-.354.287A2.024,2.024,0,0,0,8.81,9.51a1.694,1.694,0,0,0,.109,1,2.922,2.922,0,0,0,.743.985,8.6,8.6,0,0,1,.862.9.682.682,0,0,1-.07.959c-.265.258-.509.537-.77.8q-.453.452-.923.888a.682.682,0,0,1-.954-.013c-.272-.279-.562-.54-.841-.813q-.462-.453-.916-.915c-.247-.252-.485-.513-.733-.765-.373-.378-.75-.752-1.126-1.127l-1.23-1.23L1.931,9.145c-.356-.356-.713-.709-1.066-1.068C.638,7.846.41,7.616.2,7.374A.709.709,0,0,1,.264,6.337q.752-.771,1.523-1.523a.794.794,0,0,1,.669-.294,1.088,1.088,0,0,1,.595.358c.218.207.407.446.628.651a6.4,6.4,0,0,0,.707.575A1.8,1.8,0,0,0,6.411,6.1a4.245,4.245,0,0,0,.98-.992c.3-.371.571-.763.848-1.151A13.411,13.411,0,0,0,9.4,1.969,3.98,3.98,0,0,1,10.261.733,2.872,2.872,0,0,1,11.733.049a3,3,0,0,1,1.6.152,2.631,2.631,0,0,1,1.261.952,3.042,3.042,0,0,1,.556,1.226C15.191,2.578,15.206,2.781,15.231,2.982Z" transform="translate(6.351 0)" fill="#fff"/>
    <path id="Tracé_21" data-name="Tracé 21" d="M7.425,13.064a.75.75,0,0,1-.544-.254c-.28-.276-.549-.563-.818-.849a.418.418,0,0,1-.042-.522c.276-.427.514-.877.774-1.315.163-.274.348-.535.5-.814.053-.1.1-.271.049-.334-.088-.113-.234-.02-.334.047-.518.345-1.03.7-1.544,1.047-.139.095-.278.189-.414.287a.534.534,0,0,1-.682-.053Q3.356,9.294,2.344,8.279A.6.6,0,0,1,2.3,7.452c.187-.319.4-.624.577-.946.042-.076,0-.2,0-.3a.685.685,0,0,0-.243.021c-.235.116-.46.252-.689.378-.2.107-.392.213-.59.316S1.021,6.9.909,6.795a6.839,6.839,0,0,1-.7-.722A1.018,1.018,0,0,1,.323,4.724c1.171-1.2,2.354-2.383,3.533-3.573C4.2.806,4.544.463,4.887.119c.16-.159.2-.16.36.005.511.519,1.017,1.042,1.532,1.557.637.636,1.281,1.263,1.921,1.9.4.4.8.8,1.2,1.2l.867.867,1.14,1.14.952.951a.2.2,0,0,1-.024.347,1.381,1.381,0,0,0-.138.127q-2.27,2.269-4.542,4.537A.969.969,0,0,1,7.425,13.064Z" transform="translate(0 8.595)" fill="#fff"/>
  </g>
</svg>
