<svg id="add_profilepic" xmlns="http://www.w3.org/2000/svg" width="133.772" height="133.772" viewBox="0 0 133.772 133.772">
  <path id="Tracé_283" data-name="Tracé 283" d="M124.651,192H9.121A9.124,9.124,0,0,0,0,201.121v6.08a9.124,9.124,0,0,0,9.121,9.121h115.53a9.124,9.124,0,0,0,9.121-9.121v-6.08A9.124,9.124,0,0,0,124.651,192Zm0,0" transform="translate(0 -137.275)" fill="#4d3223"/>
  <path id="Tracé_284" data-name="Tracé 284" d="M192,9.121v115.53a9.124,9.124,0,0,0,9.121,9.121h6.08a9.124,9.124,0,0,0,9.121-9.121V9.121A9.124,9.124,0,0,0,207.2,0h-6.08A9.124,9.124,0,0,0,192,9.121Zm0,0" transform="translate(-137.275)" fill="#4d3223"/>
  <path id="Tracé_285" data-name="Tracé 285" d="M71.447,133.772H62.326a10.652,10.652,0,0,1-10.642-10.641V82.087H10.641A10.652,10.652,0,0,1,0,71.447V62.326A10.652,10.652,0,0,1,10.641,51.684H51.684V10.641A10.652,10.652,0,0,1,62.326,0h9.121A10.652,10.652,0,0,1,82.087,10.641V51.684h41.044a10.652,10.652,0,0,1,10.641,10.642v9.121a10.652,10.652,0,0,1-10.641,10.641H82.087v41.044A10.652,10.652,0,0,1,71.447,133.772ZM10.641,60.805a1.521,1.521,0,0,0-1.52,1.521v9.121a1.521,1.521,0,0,0,1.52,1.52h45.6a4.562,4.562,0,0,1,4.56,4.56v45.6a1.521,1.521,0,0,0,1.521,1.52h9.121a1.52,1.52,0,0,0,1.52-1.52v-45.6a4.562,4.562,0,0,1,4.56-4.56h45.6a1.52,1.52,0,0,0,1.52-1.52V62.326a1.521,1.521,0,0,0-1.52-1.521h-45.6a4.562,4.562,0,0,1-4.56-4.56v-45.6a1.521,1.521,0,0,0-1.52-1.52H62.326a1.521,1.521,0,0,0-1.521,1.519v45.6a4.562,4.562,0,0,1-4.56,4.56Zm0,0" fill="#fff"/>
</svg>
