<svg xmlns="http://www.w3.org/2000/svg" width="39.103" height="39.785" viewBox="0 0 39.103 39.785">
  <g id="artist_m3eby" transform="translate(0.194 0.764)">
    <path id="Tracé_44" data-name="Tracé 44" d="M34.43,28.979a13.509,13.509,0,0,1-4.384.582l-.216-.007a5.565,5.565,0,0,1-3.484-1.779l-.517-.508a6.831,6.831,0,0,0-4.761-1.929,4.109,4.109,0,0,0-1.517.289,4.108,4.108,0,0,0-1.517-.289,6.831,6.831,0,0,0-4.761,1.929l-.516.508a5.565,5.565,0,0,1-3.484,1.779l-.216.007a13.5,13.5,0,0,1-4.384-.582L0,27.133v1.71A6.652,6.652,0,0,0,3.79,34.8l.272.107c4.741,1.813,8.454,1.824,11.349.034a4.3,4.3,0,0,1,2.081-.534h.133a4.5,4.5,0,0,0,1.927-.428,4.5,4.5,0,0,0,1.927.428h.133a4.3,4.3,0,0,1,2.081.534,9.189,9.189,0,0,0,4.946,1.334,18.157,18.157,0,0,0,6.4-1.368l.2-.078.069-.029a6.652,6.652,0,0,0,3.79-5.959v-1.71Zm2.684-16.941L23.47,6.241q-.622-.264-1.253-.5a3.554,3.554,0,0,0,.772-2.219,3.438,3.438,0,1,0-6.874,0,3.6,3.6,0,0,0,.044.562A33.068,33.068,0,0,0,10.512,3.6,6.439,6.439,0,0,0,6.085,5.365a6.807,6.807,0,0,0-.17,9.693,6.442,6.442,0,0,0,4.591,1.933c.209,0,.42-.01.63-.031l8.395-.919,15.854,2.314a3.17,3.17,0,0,0,2.588-.754,3.333,3.333,0,0,0,1.13-2.511,3.3,3.3,0,0,0-1.99-3.051ZM19.552,4.692A1.173,1.173,0,1,1,20.7,3.519,1.161,1.161,0,0,1,19.552,4.692Z" transform="translate(-0.194 -0.764)" fill="#9866ff"/>
    <path id="Tracé_45" data-name="Tracé 45" d="M84.74,254.326a1.979,1.979,0,0,0-.945-.236h-.132a6.491,6.491,0,0,1-1.908-.283,6.493,6.493,0,0,1-1.908.283h-.132a1.981,1.981,0,0,0-.945.236,10.7,10.7,0,0,1-3.57,1.429,13.555,13.555,0,0,0,13.108,0A10.7,10.7,0,0,1,84.74,254.326Zm10.228-16.91L81.7,235.342l-8.029.907h-.024a8.367,8.367,0,0,1-.842.043,7.477,7.477,0,0,1-3.5-.8,15.467,15.467,0,0,0-1.8,6.874c0,.476-.041.968,0,1.433l.511.125a9.141,9.141,0,0,0,2.923.425c.119,0,.241,0,.36-.006l.214-.007a3.466,3.466,0,0,0,1.948-1.15l.511-.519a8.88,8.88,0,0,1,6.285-2.639,6.091,6.091,0,0,1,1.5.187,6.092,6.092,0,0,1,1.5-.187,8.879,8.879,0,0,1,6.285,2.639l.511.519A3.466,3.466,0,0,0,92,244.337l.213.007c.119,0,.24.006.359.006a10.829,10.829,0,0,0,3.181-.476l.19-.077c.041-.465.063-.935.063-1.411A15.656,15.656,0,0,0,94.968,237.416Z" transform="translate(-62.302 -218.424)" fill="#9866ff"/>
  </g>
</svg>
