<svg id="artist" xmlns="http://www.w3.org/2000/svg" width="40" height="40" viewBox="0 0 40 40">
  <path id="Tracé_43" data-name="Tracé 43" d="M34.193,29.214a14.76,14.76,0,0,0-1.48-11.375l3.484.5a3.3,3.3,0,0,0,1.768-6.31L24.008,6.235q-.636-.264-1.282-.5a3.515,3.515,0,1,0-6.2-1.655,34.616,34.616,0,0,0-5.777-.483A6.691,6.691,0,0,0,8.193,16.466,14.765,14.765,0,0,0,5.807,29.214q-.518-.113-1.026-.264L0,27.106v1.708a6.637,6.637,0,0,0,3.877,5.953l.278.107a19.769,19.769,0,0,0,6,1.354,14.724,14.724,0,0,0,19.684,0,19.767,19.767,0,0,0,6-1.354l.208-.078.071-.029A6.637,6.637,0,0,0,40,28.814V27.106L35.219,28.95Q34.711,29.1,34.193,29.214ZM20,2.344a1.172,1.172,0,1,1-1.172,1.172A1.173,1.173,0,0,1,20,2.344ZM7.7,13.375a4.346,4.346,0,0,1,3.055-7.437A32.082,32.082,0,0,1,23.11,8.4L37.066,14.19a.957.957,0,0,1-.515,1.829l-16.53-2.356-8.859.947A4.335,4.335,0,0,1,7.7,13.375Zm3.113,3.6q.291,0,.581-.029l8.587-.918,9.568,1.364a12.4,12.4,0,0,1,2.084,12.143q-.447.014-.9,0l-.221-.007a5.744,5.744,0,0,1-3.564-1.778l-.528-.508a7.076,7.076,0,0,0-4.87-1.927A4.292,4.292,0,0,0,20,25.6a4.29,4.29,0,0,0-1.551-.289,7.076,7.076,0,0,0-4.87,1.927l-.528.508a5.744,5.744,0,0,1-3.564,1.777l-.221.007q-.45.014-.9,0a12.4,12.4,0,0,1,2.443-12.559ZM20,37.656a12.353,12.353,0,0,1-6.428-1.8,8.961,8.961,0,0,0,2.192-.95,4.481,4.481,0,0,1,2.128-.533h.136A4.7,4.7,0,0,0,20,33.947a4.7,4.7,0,0,0,1.971.428h.136a4.48,4.48,0,0,1,2.129.533,8.962,8.962,0,0,0,2.194.951A12.329,12.329,0,0,1,20,37.656ZM37.185,30.7a4.281,4.281,0,0,1-1.991,1.911l-.17.063c-4.146,1.548-7.285,1.618-9.6.213l-.045-.026a6.829,6.829,0,0,0-3.277-.833h-.136a2.33,2.33,0,0,1-1.314-.4L20,31.191l-.657.445a2.33,2.33,0,0,1-1.314.4h-.136a6.83,6.83,0,0,0-3.276.833l-.045.026c-2.311,1.405-5.45,1.335-9.6-.213l-.17-.063A4.281,4.281,0,0,1,2.815,30.7l1.164.449.083.029a16.441,16.441,0,0,0,5.277.693l.221-.007a8.156,8.156,0,0,0,5.115-2.43l.528-.508a4.712,4.712,0,0,1,3.246-1.273,1.915,1.915,0,0,1,.962.255l.589.342.589-.342a1.916,1.916,0,0,1,.962-.255A4.712,4.712,0,0,1,24.8,28.93l.528.508a8.156,8.156,0,0,0,5.115,2.43l.221.007a16.434,16.434,0,0,0,5.277-.693Z" fill="#292929"/>
</svg>
