<svg xmlns="http://www.w3.org/2000/svg" version="1.1" xmlns:xlink="http://www.w3.org/1999/xlink" xmlns:svgjs="http://svgjs.com/svgjs" width="512" height="512" x="0" y="0" viewBox="0 0 32 32" style="enable-background:new 0 0 512 512" xml:space="preserve" class=""><g><path d="M23.164 32.021H8.845c-1.654 0-3-1.346-3-3v-19.8a1 1 0 1 1 2 0v19.801c0 .552.449 1 1 1h14.319a1 1 0 0 0 1-1V9.221a1 1 0 1 1 2 0v19.801a3.003 3.003 0 0 1-3 2.999zM20.4 27.625a1 1 0 0 1-1-1V9.221a1 1 0 1 1 2 0v17.404a1 1 0 0 1-1 1zm-4.396 0a1 1 0 0 1-1-1V9.221a1 1 0 1 1 2 0v17.404a1 1 0 0 1-1 1zm-4.397 0a1 1 0 0 1-1-1V9.221a1 1 0 1 1 2 0v17.404a1 1 0 0 1-1 1zM28.004 6.281H3.913a1 1 0 1 1 0-2h5.02c.14-2.024.971-2.661 2.029-3.259C11.956.46 13.728.021 14.995.021h2.019c1.268 0 3.039.439 4.032 1 1.059.599 1.89 1.236 2.029 3.26h4.929a1 1 0 1 1 0 2zm-17.069-2h10.138c-.081-.992-.394-1.169-1.011-1.519-.699-.395-2.124-.741-3.049-.741h-2.019c-.924 0-2.349.347-3.049.742-.617.349-.928.526-1.01 1.518z" fill="#000000" data-original="#000000" class=""></path></g></svg>