<svg xmlns="http://www.w3.org/2000/svg" width="236.552" height="245" viewBox="0 0 236.552 245">
  <g id="email" transform="translate(-32 -24)">
    <path id="Tracé_260" data-name="Tracé 260" d="M451.081,177.3,432,166.111v34.555l25.129-14.732a12.725,12.725,0,0,0-6.048-8.635Z" transform="translate(-188.793 -67.074)" fill="#4d3223"/>
    <ellipse id="Ellipse_24" data-name="Ellipse 24" cx="17.5" cy="17" rx="17.5" ry="17" transform="translate(133 83)" fill="#4d3223"/>
    <path id="Tracé_261" data-name="Tracé 261" d="M156.877,184.312l78.074-45.768V36.672A12.687,12.687,0,0,0,222.279,24H78.659A12.687,12.687,0,0,0,65.986,36.672V138.544l78.074,45.768a12.686,12.686,0,0,0,12.817,0Zm-57.1-84.278a50.69,50.69,0,1,1,101.379,0v8.448a16.892,16.892,0,0,1-31.639,8.241,25.345,25.345,0,1,1-2.154-35.56v-2.25a4.224,4.224,0,1,1,8.448,0v29.569a8.448,8.448,0,1,0,16.9,0v-8.448A42.232,42.232,0,1,0,174.758,134.6a4.224,4.224,0,0,1,4.865,6.908,50.695,50.695,0,0,1-79.843-41.471Zm-42.241-1L38.457,110.225a12.725,12.725,0,0,0-6.048,8.639l25.129,14.728Z" transform="translate(-0.193)" fill="#4d3223"/>
    <path id="Tracé_262" data-name="Tracé 262" d="M44.672,362.435H255.879a12.687,12.687,0,0,0,12.672-12.672v-127.8L160.957,285.036a21.14,21.14,0,0,1-21.363,0L32,221.963v127.8a12.687,12.687,0,0,0,12.672,12.672Z" transform="translate(0 -93.435)" fill="#4d3223"/>
  </g>
</svg>
