<svg xmlns="http://www.w3.org/2000/svg" version="1.1" xmlns:xlink="http://www.w3.org/1999/xlink" width="512" height="512" x="0" y="0" viewBox="0 0 512.049 512.049" style="enable-background:new 0 0 512 512" xml:space="preserve" class=""><g><g fill-rule="evenodd" clip-rule="evenodd"><path fill="#fff5bd" d="M87.891 215.539a29.85 29.85 0 0 1-5.445 17.237l64.861 31.179 116.672-116.673-31.178-64.859a29.861 29.861 0 0 1-17.238 5.444c-2.067 0-4.085-.209-6.035-.607l-17.434 43.435-60.122-12.936a29.937 29.937 0 0 1-5.88 8.311 29.87 29.87 0 0 1-8.311 5.877l12.937 60.124-43.435 17.434c.399 1.949.608 3.967.608 6.034z" opacity="1" data-original="#fff5bd"></path><path fill="#fee95d" d="m125.817 253.625 21.49 10.33 116.672-116.673-10.33-21.489z" opacity="1" data-original="#fee95d"></path><path fill="#fff5bd" d="M185.563 57.866c0 14.502 10.289 26.6 23.965 29.393 1.949.398 3.968.607 6.035.607a29.861 29.861 0 0 0 17.238-5.444c7.719-5.428 12.762-14.403 12.762-24.556 0-16.569-13.431-30-30-30s-30 13.432-30 30zM87.891 215.539c0-16.499-13.361-30-30-30-16.569 0-30 13.431-30 30s13.431 30 30 30c16.624 0 30-13.488 30-30zm-4.225-89.47c11.771 11.771 30.792 11.635 42.426 0 11.635-11.634 11.771-30.655 0-42.426-11.716-11.716-30.711-11.716-42.426 0-11.715 11.715-11.715 30.71 0 42.426z" opacity="1" data-original="#fff5bd"></path><path fill="#ffc277" d="M28.307 382.955c-27.71 27.71-27.71 73.053 0 100.763s73.053 27.71 100.763 0l354.672-354.672c27.71-27.71 27.71-73.053 0-100.762-27.71-27.71-73.053-27.71-100.763-.001z" opacity="1" data-original="#ffc277" class=""></path><path fill="#f69500" d="M129.069 483.717c-27.709 27.709-73.053 27.71-100.763 0s-27.709-73.053 0-100.763l15.91-15.91c-27.709 27.71-27.71 73.053 0 100.763s73.053 27.709 100.762 0z" opacity="1" data-original="#f69500"></path><path fill="#fee95d" d="M57.891 245.539c12.45 0 23.057-7.578 27.614-18.281-24.715 10.499-49.825-14.63-39.33-39.344-10.746 4.563-18.284 15.214-18.284 27.625 0 16.569 13.431 30 30 30zM215.564 87.866c12.45 0 23.057-7.578 27.614-18.281-24.715 10.499-49.825-14.63-39.331-39.344-10.746 4.563-18.284 15.214-18.284 27.625.001 16.569 13.432 30 30.001 30zm-110.682 46.985c12.45 0 23.057-7.578 27.614-18.281-24.715 10.499-49.825-14.63-39.33-39.344-10.746 4.563-18.284 15.214-18.284 27.625 0 16.568 13.431 30 30 30z" opacity="1" data-original="#fee95d"></path></g><path fill="#ffffff" d="m163.217 195.013-10.606-10.607 10.606-10.606 10.606 10.607zm21.213-21.214-10.607-10.605 10.606-10.607 10.607 10.605z" opacity="1" data-original="#ffffff"></path><path fill="#fff5bd" fill-rule="evenodd" d="m286.175 422.381-27.719-9.998 9.999 27.719-18.075 23.272 29.452-.943 16.548 24.382 8.204-28.302 28.302-8.204-24.382-16.548.943-29.452zm118.156-112.958 29.452-.943 16.548 24.382 8.204-28.302 28.302-8.204-24.382-16.548.943-29.452-23.272 18.075-27.719-9.999 9.998 27.719zm-34.191 78.413-18.075 23.273 29.452-.944 16.548 24.382 8.204-28.302 28.302-8.204-24.382-16.548.944-29.452-23.272 18.075-27.719-9.999z" clip-rule="evenodd" opacity="1" data-original="#fff5bd"></path><path d="m261.248 304.361-10.607-10.606-14.938 14.938-42.626-42.625-10.606 10.607 53.232 53.231zM320.482 138.637l10.605-10.605 53.26 53.26-10.605 10.604zM73.692 406.667l-10.606-10.606-28.419 28.418 52.879 52.877 28.418-28.418-10.606-10.606-17.812 17.812-10.53-10.53 16.499-16.498-10.606-10.606-16.499 16.498-10.529-10.529zM318.663 231.792c9.147 0 18.512-3.958 25.322-10.767 8.977-8.977 10.787-22.241 4.306-31.541-4.876-6.996-15.33-12.058-30.039-5.272-7.18 3.31-14.17 6.085-16.317 6.925-2.118.242-3.395-1.121-3.863-1.747-.649-.868-1.953-3.272-.028-6.856 4.184-7.789 14.07-9 14.48-9.046l7.429-.644-1.294-14.944-7.472.647c-.74.063-18.225 1.743-26.358 16.89-4.108 7.649-3.634 16.441 1.237 22.945 4.57 6.102 12.014 8.919 19.43 7.357a7.464 7.464 0 0 0 1.135-.335 328.79 328.79 0 0 0 17.902-7.571c2.57-1.186 8.831-3.531 11.452.229 1.969 2.824 1.532 8.219-2.606 12.356-4.248 4.248-10.055 6.628-15.519 6.354l-7.491-.368-.737 14.981 7.491.369a30.38 30.38 0 0 0 1.54.038zM170.19 387.068l-41.105-7.155-6.235-35.963-14.779 2.563 5.317 30.668-30.648-5.335-2.573 14.777 35.943 6.257 7.13 41.128 14.78-2.563-6.213-35.833 35.81 6.234zM344.33 120.143l68.088 33.122 9.493-9.495-33.8-67.414-13.409 6.724 23.313 46.497-47.123-22.924zM291.591 274.091c5.628-5.611 8.991-13.563 8.997-21.268.005-6.787-2.565-13.099-7.238-17.771l-34.628-34.627-10.606 10.606 34.628 34.627c1.89 1.891 2.847 4.297 2.845 7.153-.003 3.755-1.761 7.838-4.589 10.658-4.386 4.374-12.553 5.967-17.261 1.257l-34.659-34.658-10.606 10.606 34.659 34.658c4.818 4.818 11.359 7.202 18.053 7.201a28.997 28.997 0 0 0 20.405-8.442zM203.914 360.993c7.004-7.006 10.408-16.033 9.584-25.42l-.656-7.471-14.943 1.312.656 7.472c.442 5.033-1.324 9.576-5.249 13.501-8.837 8.839-23.218 8.84-32.057 0-8.838-8.838-8.838-23.219 0-32.057a22.543 22.543 0 0 1 11.692-6.224l7.363-1.426-2.852-14.727-7.363 1.426a37.489 37.489 0 0 0-19.447 10.343c-14.687 14.688-14.687 38.584 0 53.271 7.343 7.343 16.989 11.014 26.635 11.014s19.293-3.671 26.637-11.014zM435.109 45.25l-10.607-10.606-28.418 28.418 52.879 52.878 28.418-28.418-10.607-10.606-17.811 17.812-10.53-10.53 16.498-16.499-10.607-10.606-16.497 16.498-10.53-10.529zM295.735 306.361l10.605-10.605 10.605 10.605-10.605 10.605z" fill="#000000" opacity="1" data-original="#000000" class=""></path><path d="M285.193 316.987 123.767 478.414c-24.856 24.855-65.3 24.856-90.157-.001-11.985-11.984-18.585-27.993-18.585-45.077s6.601-33.093 18.585-45.077l17.579-17.579-10.606-10.607-17.579 17.579C8.185 392.47.025 412.245.025 433.336s8.161 40.866 22.979 55.685c15.354 15.354 35.517 23.028 55.686 23.028 20.164 0 40.333-7.678 55.684-23.027L295.8 327.595z" fill="#000000" opacity="1" data-original="#000000" class=""></path><path d="M57.891 253.039c10.342 0 19.719-4.208 26.51-11.002l50.123 24.094-83.335 83.335 10.606 10.607L388.282 33.586C400.267 21.601 416.276 15 433.36 15c17.084.001 33.093 6.602 45.078 18.587 11.985 11.984 18.585 27.993 18.586 45.077 0 17.084-6.601 33.093-18.585 45.077L317.013 285.168l10.606 10.607 161.426-161.427c14.818-14.818 22.979-34.594 22.979-55.685s-8.161-40.866-22.979-55.685C474.227 8.161 454.451 0 433.361 0h-.001c-21.089 0-40.866 8.161-55.684 22.979l-111.52 111.52-24.094-50.123c6.794-6.791 11.002-16.168 11.002-26.51 0-20.678-16.822-37.5-37.5-37.5-20.677 0-37.5 16.822-37.5 37.5 0 10.017 3.9 19.435 10.983 26.518a37.512 37.512 0 0 0 10.567 7.442l-12.124 30.206-45.82-9.859c.469-2.385.71-4.832.71-7.317 0-10.018-3.901-19.435-10.984-26.518-14.621-14.619-38.411-14.622-53.033 0-14.621 14.622-14.621 38.412 0 53.033 7.312 7.312 16.913 10.966 26.517 10.966 2.45 0 4.899-.241 7.312-.717l9.864 45.845L91.85 199.59a37.52 37.52 0 0 0-7.443-10.568c-7.083-7.083-16.5-10.983-26.517-10.983-20.678 0-37.5 16.822-37.5 37.5s16.823 37.5 37.501 37.5zM215.563 35.366c12.407 0 22.5 10.094 22.5 22.5s-10.093 22.5-22.5 22.5c-6.01 0-11.66-2.34-15.909-6.59a22.349 22.349 0 0 1-6.59-15.91c0-12.406 10.093-22.5 22.499-22.5zM88.97 120.765c-8.772-8.772-8.772-23.046 0-31.818 8.773-8.772 23.048-8.772 31.82 0a22.349 22.349 0 0 1 6.59 15.91c0 6.01-2.34 11.66-6.59 15.909-8.773 8.773-23.047 8.772-31.82-.001zm50.411 75.91-13.128-61.015a37.488 37.488 0 0 0 5.144-4.287c1.6-1.6 3.029-3.325 4.296-5.143l61.008 13.126 17.668-44.019c.398.012.795.029 1.195.029a37.28 37.28 0 0 0 13.857-2.665l25.495 53.038-109.152 109.152-53.038-25.495a37.28 37.28 0 0 0 2.665-13.857c0-.4-.017-.797-.029-1.195zm-81.49-3.636c6.01 0 11.661 2.341 15.91 6.59 4.25 4.25 6.59 9.9 6.59 15.91 0 12.406-10.093 22.5-22.5 22.5s-22.5-10.094-22.5-22.5 10.093-22.5 22.5-22.5zM317.455 388.592l-32.619 25.333-38.851-14.014 14.014 38.852-25.334 32.618 41.281-1.322 23.194 34.175 11.499-39.669 39.668-11.499-34.173-23.193zm-18.925 63.865-4.909 16.935-9.902-14.589-17.624.564 10.816-13.927-5.983-16.586 16.586 5.982 13.926-10.815-.564 17.624 14.589 9.902zM471.406 234.64l-32.619 25.335-38.852-14.015 14.014 38.852-25.334 32.618 41.281-1.322 23.193 34.175 11.499-39.669 39.669-11.499-34.174-23.193zm-18.925 63.866-4.909 16.935-9.902-14.589-17.624.564 10.815-13.927-5.983-16.586 16.587 5.983 13.926-10.815-.564 17.623 14.59 9.902zM419.14 336.325l-32.619 25.335-38.852-14.015 14.014 38.852-25.334 32.618 41.281-1.321 23.194 34.174 11.499-39.67 39.669-11.497-34.175-23.194zm-18.925 63.865-4.909 16.936-9.901-14.589-17.624.564 10.815-13.927-5.983-16.586 16.587 5.983 13.926-10.815-.565 17.623 14.589 9.901z" fill="#000000" opacity="1" data-original="#000000" class=""></path></g></svg>