<svg xmlns="http://www.w3.org/2000/svg" width="24.466" height="14.651" viewBox="0 0 24.466 14.651">
  <g id="exclusive_event_pass" transform="translate(0 -85)">
    <path id="Tracé_6382" data-name="Tracé 6382" d="M14.476,95.067V92.846a.394.394,0,0,1,.408-.378h.408a.394.394,0,0,1,.408.378v2.221a.394.394,0,0,1-.408.378h-.408A.394.394,0,0,1,14.476,95.067Zm-1.223-2.6h-.408a.394.394,0,0,0-.408.378v2.221a.394.394,0,0,0,.408.378h.408a.394.394,0,0,0,.408-.378V92.846A.394.394,0,0,0,13.253,92.467Zm-2.192-1.521v.386a.394.394,0,0,0,.408.378h5.2a.394.394,0,0,0,.408-.378c-.028-.214.1-.57-.223-.724l-2.6-1.223a.436.436,0,0,0-.369,0l-2.6,1.223A.376.376,0,0,0,11.061,90.947Zm12.3,3.537a1.535,1.535,0,0,1,1.106,1.428v2.227a1.575,1.575,0,0,1-1.631,1.512H7.8a.394.394,0,0,1-.408-.378V97.855a.366.366,0,0,0-.129-.276.427.427,0,0,0-.306-.1.4.4,0,0,0-.381.39v1.4a.394.394,0,0,1-.408.378H1.631A1.575,1.575,0,0,1,0,98.139V95.912a1.535,1.535,0,0,1,1.106-1.428,1.941,1.941,0,0,0,0-3.75A1.535,1.535,0,0,1,0,89.307V86.512A1.575,1.575,0,0,1,1.631,85H6.168a.394.394,0,0,1,.408.378V86.8a.366.366,0,0,0,.129.276.427.427,0,0,0,.306.1.4.4,0,0,0,.381-.39v-1.4A.394.394,0,0,1,7.8,85H22.835a1.575,1.575,0,0,1,1.631,1.512v2.794a1.535,1.535,0,0,1-1.106,1.428A1.941,1.941,0,0,0,23.36,94.484ZM7.391,93.432a.409.409,0,0,0-.816,0v2.212a.409.409,0,0,0,.816,0Zm0-4.424a.409.409,0,0,0-.816,0V91.22a.409.409,0,0,0,.816,0Zm10.5,1.475a.376.376,0,0,0-.223-.337l-3.415-1.607a.436.436,0,0,0-.369,0l-3.415,1.607a.376.376,0,0,0-.223.337v1.607a.394.394,0,0,0,.408.378h.561a.394.394,0,0,1,.408.378v2.221a.394.394,0,0,1-.408.378h-.561a.423.423,0,0,0-.3.12.362.362,0,0,0-.109.284.406.406,0,0,0,.421.353h6.816a.423.423,0,0,0,.3-.12.362.362,0,0,0,.109-.284.406.406,0,0,0-.421-.353h-.547a.394.394,0,0,1-.408-.378V92.846a.394.394,0,0,1,.408-.378h.561a.394.394,0,0,0,.408-.378Z" fill="#fd0"/>
  </g>
</svg>
