<svg xmlns="http://www.w3.org/2000/svg" width="586" height="162" viewBox="0 0 586 162">
  <g id="exclusiveButton" transform="translate(1569 8679)">
    <rect id="Rectangle_1890" data-name="Rectangle 1890" width="586" height="162" rx="25" transform="translate(-1569 -8679)" fill="#ffcc36"/>
    <path id="Soustraction_4" data-name="Soustraction 4" d="M243.029,346.231c-6.366,0-6.846-.117-7.8-.351a9.632,9.632,0,0,1-7.357-9.362V259.492a9.637,9.637,0,0,1,19.274,0v67.445c3.085-.012,6.3-.031,9.561-.057h.078a9.637,9.637,0,0,1,.073,19.273C250.075,346.208,245.939,346.231,243.029,346.231Zm-52.117-.013a31.055,31.055,0,0,1-31.055-31.055V280.908a31.055,31.055,0,0,1,31.055-31.055,31.232,31.232,0,0,1,29.778,22.225,9.643,9.643,0,0,1-9.243,12.376,9.712,9.712,0,0,1-5.713-1.88,9.551,9.551,0,0,1-3.524-5.021,11.844,11.844,0,0,0-11.3-8.426,11.783,11.783,0,0,0-11.784,11.782v34.255a11.783,11.783,0,0,0,11.782,11.784,11.859,11.859,0,0,0,11.294-8.4,9.548,9.548,0,0,1,3.527-5.007,9.614,9.614,0,0,1,8.464-1.467,9.633,9.633,0,0,1,6.475,11.989A31.249,31.249,0,0,1,190.913,346.217Zm-115.816,0H52.173a9.636,9.636,0,0,1-9.636-9.636v-77.09a9.649,9.649,0,0,1,9.637-9.637H75.1a9.637,9.637,0,1,1,0,19.274H61.81V288.4h11.6a9.637,9.637,0,1,1,0,19.273H61.81v19.273H75.1a9.635,9.635,0,1,1,0,19.271Zm468.8,0H520.975a9.636,9.636,0,0,1-9.636-9.636V259.49a9.649,9.649,0,0,1,9.637-9.636H543.9a9.637,9.637,0,1,1,0,19.274H530.612V288.4h11.6a9.637,9.637,0,0,1,0,19.274h-11.6v19.273H543.9a9.635,9.635,0,1,1,0,19.27Z" transform="translate(-1576.537 -8896.041)"/>
    <path id="Soustraction_3" data-name="Soustraction 3" d="M166.95,316.185h0a9.619,9.619,0,0,1-8.431-4.956L143.991,285.09l-14.552,26.143a9.634,9.634,0,0,1-17.954-3.293,9.549,9.549,0,0,1,1.116-6.081l20.371-36.6-17.3-31.124a9.636,9.636,0,1,1,16.845-9.364L144,245.439l11.5-20.669a9.636,9.636,0,0,1,16.839,9.373l-17.323,31.125,20.341,36.6a9.64,9.64,0,0,1-8.415,14.321Zm224.832,0a47.5,47.5,0,0,1-9.134-.894,48.018,48.018,0,0,1-8.7-2.586A46.31,46.31,0,0,1,366,308.567a42.739,42.739,0,0,1-6.86-5.548c-.457-.457-.914-.937-1.359-1.427a9.636,9.636,0,0,1,14.28-12.943c4.666,5.174,12.038,8.263,19.72,8.263h.005c7.449,0,12.7-4.457,13.465-8.765,1.023-5.729-6.728-9.249-10.108-10.5-11.978-4.418-23.9-9.766-24.355-10.063a24.5,24.5,0,0,1-10.93-24.255c1.477-10.3,9.006-18.685,19.649-21.892a38.068,38.068,0,0,1,10.988-1.62,41.489,41.489,0,0,1,10.98,1.521,48.749,48.749,0,0,1,8.792,3.383A45.08,45.08,0,0,1,418.631,230,9.637,9.637,0,0,1,406.278,244.8a27.9,27.9,0,0,0-4.773-2.922A25.3,25.3,0,0,0,390.5,239.1a18.823,18.823,0,0,0-5.436.789c-4.946,1.491-5.936,4.815-6.133,6.176a5.359,5.359,0,0,0,1.885,5.017c3.237,1.416,11.764,5.077,20.992,8.482,19.448,7.175,24.329,21.217,22.412,31.965C421.67,305.816,408.027,316.184,391.782,316.184Zm-75.243,0h-.044a30.251,30.251,0,0,1-16.517-4.76,36.624,36.624,0,0,1-6.179-4.9,26.213,26.213,0,0,1-7.919-19.158v-57.9a9.637,9.637,0,0,1,19.274,0v57.9c0,2.852.851,5.047,5.2,7.823a11.133,11.133,0,0,0,6.166,1.729h.021a12.575,12.575,0,0,0,5.792-1.3c5.548-2.795,6.295-5.764,6.294-8.3v-57.86a9.637,9.637,0,0,1,19.274,0v57.861c0,10.965-6,20.026-16.9,25.512A31.852,31.852,0,0,1,316.539,316.184Zm173.725,0a10.889,10.889,0,0,1-7.71-3.2,11.476,11.476,0,0,1-2.868-4.864L457.725,232.13a9.644,9.644,0,0,1,9.261-12.314,9.707,9.707,0,0,1,5.738,1.9,9.548,9.548,0,0,1,3.515,5.064l13.88,48.024,13.216-47.776a9.547,9.547,0,0,1,3.5-5.136,9.636,9.636,0,0,1,15.075,10.275l-20.958,75.769a11.088,11.088,0,0,1-10.6,8.247Zm-48.464,0a9.636,9.636,0,0,1-9.636-9.636v-77.09a9.637,9.637,0,0,1,19.274,0v77.09A9.649,9.649,0,0,1,441.8,316.183Z" transform="translate(-1592.501 -8866.006)"/>
  </g>
</svg>
