<svg id="_392503_flag_notice_warning_icon" data-name="392503_flag_notice_warning_icon" xmlns="http://www.w3.org/2000/svg" width="10.099" height="12.522" viewBox="0 0 10.099 12.522">
  <path id="Tracé_223" data-name="Tracé 223" d="M10.892,4.035,13,1.488a.41.41,0,0,0,.058-.429.387.387,0,0,0-.352-.233H3.388a.4.4,0,0,0,0,.8h8.478L10.085,3.773a.411.411,0,0,0,0,.522l1.781,2.145H4.554V.092a.435.435,0,0,0-.416-.419.389.389,0,0,0-.361.419V12.2h.777V7.243h8.157a.388.388,0,0,0,.353-.233.412.412,0,0,0-.058-.429Z" transform="translate(-3 0.327)" fill="#4d3223"/>
  <path id="Tracé_242" data-name="Tracé 242" d="M1.679,2.271H9.971l-2.1,2.777,2.1,2.817H1.679Z" transform="translate(-0.511 -0.691)" fill="#4d3223" stroke="#4d3223" stroke-width="0.25"/>
</svg>
