<svg xmlns="http://www.w3.org/2000/svg" width="18.192" height="22.534" viewBox="0 0 18.192 22.534">
  <g id="_392503_flag_notice_warning_icon" data-name="392503_flag_notice_warning_icon" transform="translate(0 0)">
    <path id="Tracé_223" data-name="Tracé 223" d="M17.216,7.522,21.023,2.94a.737.737,0,0,0,.1-.771.7.7,0,0,0-.635-.42H3.7a.722.722,0,0,0,0,1.443H18.971l-3.208,3.86a.739.739,0,0,0,0,.94l3.208,3.86H5.8V.427a.783.783,0,0,0-.75-.753A.7.7,0,0,0,4.4.427v21.78H5.8V13.295H20.492a.7.7,0,0,0,.635-.42.741.741,0,0,0-.1-.771Z" transform="translate(-3 0.327)" fill="#4d3223"/>
  </g>
</svg>
