<svg id="home" xmlns="http://www.w3.org/2000/svg" width="39.5" height="39.5" viewBox="0 0 39.5 39.5">
  <path id="Tracé_42" data-name="Tracé 42" d="M38.939,17.181l0,0L22.821,1.065a3.636,3.636,0,0,0-5.143,0L1.572,17.169l-.016.017a3.635,3.635,0,0,0,2.42,6.2q.056.005.112.005H4.73V35.244A4.261,4.261,0,0,0,8.987,39.5h6.3a1.157,1.157,0,0,0,1.157-1.157v-9.3A1.944,1.944,0,0,1,18.391,27.1h3.719a1.944,1.944,0,0,1,1.942,1.942v9.3A1.157,1.157,0,0,0,25.208,39.5h6.3a4.261,4.261,0,0,0,4.257-4.256V23.387h.6a3.637,3.637,0,0,0,2.574-6.206Zm-1.639,3.5a1.314,1.314,0,0,1-.935.388H34.612a1.157,1.157,0,0,0-1.157,1.157V35.244a1.944,1.944,0,0,1-1.942,1.941H26.366V29.046a4.261,4.261,0,0,0-4.257-4.256H18.391a4.261,4.261,0,0,0-4.257,4.256v8.139H8.987a1.944,1.944,0,0,1-1.942-1.941V22.23a1.157,1.157,0,0,0-1.157-1.157H4.165l-.054,0a1.32,1.32,0,0,1-.91-2.255h0L19.315,2.7a1.321,1.321,0,0,1,1.869,0L37.295,18.81l.008.007A1.325,1.325,0,0,1,37.3,20.685Zm0,0" transform="translate(-0.5 0)" fill="#292929"/>
</svg>
