<svg id="g1265" xmlns="http://www.w3.org/2000/svg" width="32.11" height="32.11" viewBox="0 0 32.11 32.11">
  <path id="rect1251" d="M18.068,292.65a1.606,1.606,0,0,0-.969.339L2.621,304.227A1.606,1.606,0,0,0,2,305.494V319.52a5.264,5.264,0,0,0,5.24,5.24H28.87a5.264,5.264,0,0,0,5.24-5.24V305.494a1.606,1.606,0,0,0-.618-1.267L19.071,292.989a1.605,1.605,0,0,0-1-.339Zm.013,3.641L30.9,306.278V319.52a1.988,1.988,0,0,1-2.029,2.029H24.477v-8.027a6.422,6.422,0,1,0-12.844,0v8.027H7.24a1.988,1.988,0,0,1-2.029-2.029V306.277Zm-.025,14.02a3.169,3.169,0,0,1,3.211,3.211v8.027H14.844v-8.027A3.169,3.169,0,0,1,18.055,310.311Z" transform="translate(-2 -292.65)" fill="#0185b7"/>
</svg>
