<svg xmlns="http://www.w3.org/2000/svg" width="9.839" height="9.839" viewBox="0 0 9.839 9.839">
  <path id="Tracé_40" data-name="Tracé 40" d="M4.919.875A15.084,15.084,0,0,1,6.887.929a2.535,2.535,0,0,1,.929.164,1.92,1.92,0,0,1,.929.929,2.535,2.535,0,0,1,.164.929c0,.492.055.656.055,1.968a15.084,15.084,0,0,1-.055,1.968,2.535,2.535,0,0,1-.164.929,1.92,1.92,0,0,1-.929.929,2.535,2.535,0,0,1-.929.164c-.492,0-.656.055-1.968.055a15.083,15.083,0,0,1-1.968-.055,2.535,2.535,0,0,1-.929-.164,1.92,1.92,0,0,1-.929-.929,2.535,2.535,0,0,1-.164-.929c0-.492-.055-.656-.055-1.968A15.084,15.084,0,0,1,.929,2.952a2.535,2.535,0,0,1,.164-.929,1.963,1.963,0,0,1,.383-.547.924.924,0,0,1,.547-.383A2.535,2.535,0,0,1,2.952.929,15.084,15.084,0,0,1,4.919.875m0-.875A16.15,16.15,0,0,0,2.9.055a3.374,3.374,0,0,0-1.2.219A2.14,2.14,0,0,0,.82.82a2.14,2.14,0,0,0-.547.875A2.49,2.49,0,0,0,.055,2.9,16.15,16.15,0,0,0,0,4.919,16.15,16.15,0,0,0,.055,6.942a3.374,3.374,0,0,0,.219,1.2,2.14,2.14,0,0,0,.547.875,2.14,2.14,0,0,0,.875.547,3.374,3.374,0,0,0,1.2.219,16.15,16.15,0,0,0,2.022.055,16.15,16.15,0,0,0,2.022-.055,3.374,3.374,0,0,0,1.2-.219A2.293,2.293,0,0,0,9.565,8.144a3.374,3.374,0,0,0,.219-1.2c0-.547.055-.711.055-2.022A16.15,16.15,0,0,0,9.784,2.9a3.374,3.374,0,0,0-.219-1.2A2.14,2.14,0,0,0,9.019.82,2.14,2.14,0,0,0,8.144.273a3.374,3.374,0,0,0-1.2-.219A16.15,16.15,0,0,0,4.919,0m0,2.4A2.474,2.474,0,0,0,2.4,4.919,2.514,2.514,0,1,0,4.919,2.4m0,4.154a1.61,1.61,0,0,1-1.64-1.64,1.61,1.61,0,0,1,1.64-1.64,1.61,1.61,0,0,1,1.64,1.64,1.61,1.61,0,0,1-1.64,1.64M7.543,1.694a.6.6,0,1,0,.6.6.607.607,0,0,0-.6-.6" fill="#4d3223" fill-rule="evenodd"/>
</svg>
