<svg xmlns="http://www.w3.org/2000/svg" version="1.1" xmlns:xlink="http://www.w3.org/1999/xlink" xmlns:svgjs="http://svgjs.com/svgjs" width="512" height="512" x="0" y="0" viewBox="0 0 32 32" style="enable-background:new 0 0 512 512" xml:space="preserve" class=""><g><g data-name="log, in, door, enter"><path d="M28.121 3.879A2.98 2.98 0 0 0 26 3H14a3.003 3.003 0 0 0-3 3v6a1 1 0 0 0 2 0V6a1 1 0 0 1 1-1h12a1 1 0 0 1 1 1v20a1 1 0 0 1-1 1H14a1 1 0 0 1-1-1v-6a1 1 0 0 0-2 0v6a3.003 3.003 0 0 0 3 3h12a2.98 2.98 0 0 0 2.121-.879A3.02 3.02 0 0 0 29 26V6a3.02 3.02 0 0 0-.879-2.121Z" fill="#000000" data-original="#000000" class=""></path><path d="M17.293 19.293a1 1 0 1 0 1.414 1.414l4-4a1.003 1.003 0 0 0 0-1.415l-4-3.999a1 1 0 0 0-1.414 1.414L19.586 15H4a1 1 0 0 0 0 2h15.586Z" fill="#000000" data-original="#000000" class=""></path></g></g></svg>