<svg xmlns="http://www.w3.org/2000/svg" width="161.708" height="22.982" viewBox="0 0 161.708 22.982">
  <g id="logo_Bleu" transform="translate(0.449 0.25)">
    <g id="edc2b2c2-2d34-424d-8e7c-4b122764a13b" transform="translate(43.831 5.403)">
      <path id="Tracé_1" data-name="Tracé 1" d="M2.722,7.124c0-.842.525-2.133,3.585-2.133C8.785,4.991,9.922,6,10.082,7.26h1.574c-.117-1.889-1.749-3.6-5.349-3.6-3.381,0-5.072,1.427-5.072,3.478,0,4.321,9.24,2.758,9.24,5.842,0,1.481-1.428,2.228-3.716,2.228-2.346,0-4.241-.747-4.343-2.568H.827c.2,2.255,1.836,3.913,5.83,3.913,3.323,0,5.349-1.291,5.349-3.628C12.006,8.523,2.722,10.045,2.722,7.124Zm15.624-.38a4.757,4.757,0,0,0-4.926,4.9,4.757,4.757,0,0,0,4.926,4.9A4.272,4.272,0,0,0,22,14.882V16.4h1.53V6.893H22V8.428A4.315,4.315,0,0,0,18.346,6.743Zm.2,8.519a3.467,3.467,0,0,1-3.6-3.614,3.467,3.467,0,0,1,3.6-3.614,3.411,3.411,0,0,1,3.542,3.614A3.411,3.411,0,0,1,18.55,15.262ZM26.187,3.088V16.4h1.53V10.928a2.922,2.922,0,0,1,3.075-2.894A2.721,2.721,0,0,1,33.649,10.9v5.5h1.53v-5.53A3.933,3.933,0,0,0,31.1,6.743a4.057,4.057,0,0,0-3.381,1.63V3.088ZM42.044,6.743a4.761,4.761,0,0,0-4.941,4.9,4.761,4.761,0,0,0,4.941,4.9,4.244,4.244,0,0,0,3.644-1.671V16.4h1.53V6.893h-1.53V8.428A4.286,4.286,0,0,0,42.044,6.743Zm.2,8.519a3.47,3.47,0,0,1-3.614-3.614,3.47,3.47,0,0,1,3.614-3.614,3.407,3.407,0,0,1,3.527,3.614A3.407,3.407,0,0,1,42.248,15.262ZM55.161,6.743A3.85,3.85,0,0,0,51.4,9.23V6.893H49.87V16.4H51.4V12.219A3.8,3.8,0,0,1,55.073,8.17h.189V6.743Zm5.8,0a4.761,4.761,0,0,0-4.941,4.9,4.761,4.761,0,0,0,4.941,4.9A4.262,4.262,0,0,0,64.6,14.882V16.4h1.53V6.893H64.6V8.428A4.305,4.305,0,0,0,60.961,6.743Zm.2,8.519a3.47,3.47,0,0,1-3.614-3.614,3.47,3.47,0,0,1,3.614-3.614,3.407,3.407,0,0,1,3.527,3.614A3.407,3.407,0,0,1,61.165,15.262ZM77.62,9.977a2.843,2.843,0,0,0,1.822-2.84c0-1.522-1.079-3.329-4.27-3.329H69.123V16.4h6.4c3.09,0,4.62-1.427,4.62-3.315A3.2,3.2,0,0,0,77.62,9.977Zm-6.967-4.81h4.693c1.851,0,2.565,1.046,2.565,2.092,0,1.535-1.326,2.188-2.74,2.188H70.653Zm5.028,9.891H70.653V10.738h4.868c2.142,0,3.09,1.06,3.09,2.242C78.611,14.3,77.547,15.059,75.681,15.059ZM90.926,6.893H89.25l-3.338,7.8-3.294-7.8H80.928L85.1,16.268l-1.866,3.9h1.661ZM94.949,16.4V8.143H97.3V6.893H94.949V3.482h-1.53v3.41H91.334v1.25h2.084V16.4Zm8.366-1.141A3.469,3.469,0,0,1,99.7,12.219h8.555v-.571a5.067,5.067,0,0,0-10.129,0,4.873,4.873,0,0,0,5.174,4.9,4.668,4.668,0,0,0,4.649-2.894h-1.676A3.235,3.235,0,0,1,103.314,15.262ZM103.2,8.034a3.346,3.346,0,0,1,3.469,2.853H99.729A3.326,3.326,0,0,1,103.2,8.034Zm10.479-1.291c-2.623,0-3.993,1.005-3.993,2.717,0,3.478,6.792,2,6.792,4.375,0,1.291-1.778,1.508-2.609,1.508-1.982,0-2.755-.951-2.857-1.929h-1.589c.1,1.671,1.589,3.139,4.416,3.139,2.536,0,4.168-1.005,4.168-2.853,0-3.573-6.792-2.092-6.792-4.375,0-.924.831-1.372,2.419-1.372,1.72,0,2.376.666,2.492,1.495h1.559C117.5,8.048,116.373,6.743,113.677,6.743Z" transform="translate(-0.827 -3.088)" fill="#00a8e8" stroke="#00a8e8" stroke-width="0.5"/>
    </g>
    <g id="_521dccca-1ddf-4d31-aaa8-832342804188" data-name="521dccca-1ddf-4d31-aaa8-832342804188" transform="translate(0 0)">
      <path id="Tracé_2" data-name="Tracé 2" d="M20.594,27.813l9.648-15.544h-19.3ZM9.648,19.207,0,34.751H19.3Zm21.892,0L21.892,34.751h19.3Z" transform="translate(0 -12.269)" fill="#00a8e8" stroke="#00a8e8" stroke-width="0.5"/>
    </g>
  </g>
</svg>
