<svg xmlns="http://www.w3.org/2000/svg" width="245" height="245" viewBox="0 0 245 245">
  <g id="password" transform="translate(-0.794 -0.794)">
    <path id="Tracé_256" data-name="Tracé 256" d="M123.31.794A75.987,75.987,0,1,0,177.1,23.061,75.971,75.971,0,0,0,123.31.794Zm0,12.7c12.672,0,19.128,6.583,22.268,12.864a30.565,30.565,0,0,1,3.092,12.481v8.448a24.911,24.911,0,0,1,10.313,2.55c5.228,2.63,10.792,8.018,10.792,18.57v38c0,10.52-5.563,15.94-10.792,18.554a24.911,24.911,0,0,1-10.313,2.55H97.949a24.911,24.911,0,0,1-10.313-2.55c-5.228-2.614-10.776-8.018-10.776-18.554v-38c0-10.52,5.547-15.94,10.776-18.57a24.911,24.911,0,0,1,10.313-2.55V38.843a30.438,30.438,0,0,1,3.108-12.481c3.14-6.28,9.564-12.864,22.252-12.864Zm0,8.448c-8.448,0-12.593,3.953-14.713,8.225a22.221,22.221,0,0,0-2.184,8.671v8.448h33.793V38.843a22.607,22.607,0,0,0-2.216-8.671C135.855,25.9,131.758,21.947,123.31,21.947ZM97.965,55.708a17.267,17.267,0,0,0-6.551,1.69c-3.22,1.594-6.105,4.591-6.105,11v38.017c0,6.488,2.885,9.4,6.105,11a16.889,16.889,0,0,0,6.535,1.658h50.722a16.831,16.831,0,0,0,6.535-1.658c3.22-1.594,6.105-4.559,6.105-11v-38c0-6.424-2.869-9.4-6.105-11.015a17.22,17.22,0,0,0-6.535-1.69Zm25.345,12.7a12.63,12.63,0,0,1,4.208,24.548v9.245c0,5.627-8.448,5.627-8.448,0V92.96a12.637,12.637,0,0,1,4.24-24.548Zm0,8.448a4.144,4.144,0,1,0,2.989,1.208,4.16,4.16,0,0,0-2.989-1.208ZM13.482,178.224A17.089,17.089,0,0,0,6.9,179.882c-3.2,1.594-6.105,4.67-6.105,11v42.257c0,6.312,2.9,9.4,6.105,11a17.078,17.078,0,0,0,6.6,1.658H233.138a16.831,16.831,0,0,0,6.535-1.658c3.22-1.594,6.121-4.5,6.121-11V190.88c0-6.456-2.9-9.4-6.121-11a16.831,16.831,0,0,0-6.535-1.658Zm-.048,8.608a4.24,4.24,0,0,1,3.045,1.227l17.949,17.933,17.885-17.885A4.233,4.233,0,1,1,58.29,194.1L40.421,211.985l17.9,17.9a4.233,4.233,0,1,1-5.993,5.978L34.444,217.978,16.5,235.911a4.24,4.24,0,1,1-5.978-5.993L28.45,211.985,10.517,194.052a4.24,4.24,0,0,1,2.933-7.237Zm59.138,0a4.24,4.24,0,0,1,3.045,1.227l17.949,17.933,17.885-17.885a4.233,4.233,0,1,1,5.978,5.993L99.559,211.985l17.9,17.9a4.233,4.233,0,1,1-5.994,5.978L93.582,217.978,75.633,235.911a4.24,4.24,0,1,1-5.978-5.993l17.933-17.933L69.655,194.052a4.24,4.24,0,0,1,2.933-7.237Zm101.475,0a4.24,4.24,0,0,1,2.933,7.221l-17.933,17.933,17.933,17.933A4.24,4.24,0,1,1,171,235.911l-17.949-17.933-17.885,17.885a4.233,4.233,0,1,1-5.993-5.978l17.9-17.9L129.192,194.1a4.233,4.233,0,1,1,5.978-5.993l17.885,17.885L171,188.059a4.24,4.24,0,0,1,3.045-1.243Zm59.138,0a4.24,4.24,0,0,1,2.933,7.221l-17.933,17.933,17.933,17.933a4.24,4.24,0,1,1-5.978,5.994l-17.949-17.933-17.885,17.885a4.233,4.233,0,1,1-5.993-5.978l17.9-17.9L188.33,194.1a4.233,4.233,0,1,1,5.978-5.993l17.885,17.885,17.949-17.933a4.24,4.24,0,0,1,3.045-1.243Z" transform="translate(0 0)" fill="#4d3223"/>
  </g>
</svg>
