<svg xmlns="http://www.w3.org/2000/svg" width="425.075" height="271.509" viewBox="0 0 425.075 271.509">
  <g id="person-working-from-home" transform="translate(0 1)">
    <g id="Groupe_3" data-name="Groupe 3" transform="translate(0 269.456)">
      <path id="Tracé_6" data-name="Tracé 6" d="M1157.11,1022h121.268" transform="translate(-853.303 -1022)" fill="none" stroke="#333" stroke-linejoin="round" stroke-width="2"/>
      <path id="Tracé_7" data-name="Tracé 7" d="M100.14,1022H375.508" transform="translate(-100.14 -1022)" fill="none" stroke="#333" stroke-linejoin="round" stroke-width="2"/>
    </g>
    <g id="Groupe_4" data-name="Groupe 4" transform="translate(265.952 124.921)">
      <path id="Tracé_8" data-name="Tracé 8" d="M1219.85,727.319V758.4h-91.64V613.81h91.64V721.892" transform="translate(-1120.387 -613.81)" fill="#465e6d"/>
      <path id="Tracé_9" data-name="Tracé 9" d="M1219.85,727.319V758.4h-91.64V613.81h91.64V721.892" transform="translate(-1120.387 -613.81)" fill="none" stroke="#333" stroke-linecap="round" stroke-linejoin="round" stroke-width="2"/>
      <path id="Tracé_10" data-name="Tracé 10" d="M1106.1,613.81h107.339" transform="translate(-1106.1 -613.81)" fill="none" stroke="#333" stroke-linecap="round" stroke-linejoin="round" stroke-width="2"/>
      <path id="Tracé_11" data-name="Tracé 11" d="M1128.21,750.08h91.64" transform="translate(-1120.387 -701.866)" fill="none" stroke="#333" stroke-linecap="round" stroke-linejoin="round" stroke-width="2"/>
      <path id="Tracé_12" data-name="Tracé 12" d="M1128.21,886.2h91.64" transform="translate(-1120.387 -789.826)" fill="none" stroke="#333" stroke-linecap="round" stroke-linejoin="round" stroke-width="2"/>
      <path id="Tracé_13" data-name="Tracé 13" d="M1255.372,678.905a3.673,3.673,0,1,0-3.672-3.672A3.674,3.674,0,0,0,1255.372,678.905Z" transform="translate(-1200.185 -651.127)" fill="none" stroke="#333" stroke-linecap="round" stroke-linejoin="round" stroke-width="2"/>
      <path id="Tracé_14" data-name="Tracé 14" d="M1255.372,815.031a3.671,3.671,0,1,0-3.672-3.673A3.674,3.674,0,0,0,1255.372,815.031Z" transform="translate(-1200.185 -739.093)" fill="none" stroke="#333" stroke-linecap="round" stroke-linejoin="round" stroke-width="2"/>
      <path id="Tracé_15" data-name="Tracé 15" d="M1255.372,951.3a3.671,3.671,0,1,0-3.672-3.669A3.671,3.671,0,0,0,1255.372,951.3Z" transform="translate(-1200.185 -827.15)" fill="none" stroke="#333" stroke-linecap="round" stroke-linejoin="round" stroke-width="2"/>
    </g>
    <g id="Groupe_6" data-name="Groupe 6" transform="translate(34.702 110.436)">
      <path id="Tracé_23" data-name="Tracé 23" d="M198.27,650.144v-38.36a17.431,17.431,0,0,1,5.5-12.656l4.186-3.9a15.433,15.433,0,0,0,4.918-11.34,11.352,11.352,0,0,1,11.34-11.343h6.379a11.352,11.352,0,0,1,11.34,11.343,15.622,15.622,0,0,0,4.918,11.34l4.186,3.9a17.267,17.267,0,0,1,5.5,12.656v60.753h9.493a3.941,3.941,0,0,1,3.991,3.8,3.853,3.853,0,0,1-3.9,3.941H209.758A11.53,11.53,0,0,1,198.22,668.74V653.99" transform="translate(-198.22 -572.55)" fill="#3d72a8"/>
      <path id="Tracé_24" data-name="Tracé 24" d="M198.27,650.144v-38.36a17.431,17.431,0,0,1,5.5-12.656l4.186-3.9a15.433,15.433,0,0,0,4.918-11.34,11.352,11.352,0,0,1,11.34-11.343h6.379a11.352,11.352,0,0,1,11.34,11.343,15.622,15.622,0,0,0,4.918,11.34l4.186,3.9a17.267,17.267,0,0,1,5.5,12.656v60.753h9.493a3.941,3.941,0,0,1,3.991,3.8,3.853,3.853,0,0,1-3.9,3.941H209.758A11.53,11.53,0,0,1,198.22,668.74V653.99" transform="translate(-198.22 -572.55)" fill="none" stroke="#333" stroke-linecap="round" stroke-linejoin="round" stroke-width="2"/>
      <path id="Tracé_25" data-name="Tracé 25" d="M301.791,855.01H268.25" transform="translate(-243.473 -755.073)" fill="none" stroke="#333" stroke-linecap="round" stroke-linejoin="round" stroke-width="2"/>
      <path id="Tracé_26" data-name="Tracé 26" d="M246.216,855.01H237.99" transform="translate(-223.919 -755.073)" fill="none" stroke="#333" stroke-linecap="round" stroke-linejoin="round" stroke-width="2"/>
      <path id="Tracé_27" data-name="Tracé 27" d="M260.6,1005.53H235.872a5.444,5.444,0,0,0-5.452,5.452H266A5.433,5.433,0,0,0,260.6,1005.53Z" transform="translate(-219.027 -852.337)" fill="#3d72a8" stroke="#333" stroke-linecap="round" stroke-linejoin="round" stroke-width="2"/>
      <path id="Tracé_28" data-name="Tracé 28" d="M280.77,910.367V877.02" transform="translate(-251.563 -769.296)" fill="none" stroke="#333" stroke-linecap="round" stroke-linejoin="round" stroke-width="2"/>
      <path id="Tracé_29" data-name="Tracé 29" d="M280.77,987.747V978.01" transform="translate(-251.563 -834.554)" fill="none" stroke="#333" stroke-linecap="round" stroke-linejoin="round" stroke-width="2"/>
      <path id="Tracé_30" data-name="Tracé 30" d="M221.2,684.131V680.14" transform="translate(-213.069 -642.074)" fill="none" stroke="#333" stroke-linecap="round" stroke-linejoin="round" stroke-width="2"/>
      <path id="Tracé_31" data-name="Tracé 31" d="M221.2,713.158V701.33" transform="translate(-213.069 -655.766)" fill="none" stroke="#333" stroke-linecap="round" stroke-linejoin="round" stroke-width="2"/>
    </g>
    <g id="Groupe_7" data-name="Groupe 7" transform="translate(146.624)">
      <path id="Tracé_32" data-name="Tracé 32" d="M599.762,271.84H511.78V380.46h87.982Z" transform="translate(-511.78 -266.77)" fill="#ababab" stroke="#333" stroke-linecap="round" stroke-linejoin="round" stroke-width="2"/>
      <path id="Tracé_33" data-name="Tracé 33" d="M599.762,257.51H511.78v11.276h87.982Z" transform="translate(-511.78 -257.51)" fill="#4686cf" stroke="#333" stroke-linecap="round" stroke-linejoin="round" stroke-width="2"/>
      <path id="Tracé_34" data-name="Tracé 34" d="M702.794,257.51H690.35v11.276h12.444Z" transform="translate(-627.17 -257.51)" fill="none" stroke="#333" stroke-linecap="round" stroke-linejoin="round" stroke-width="2"/>
      <path id="Tracé_35" data-name="Tracé 35" d="M737.775,257.51H725.36v11.276h12.415Z" transform="translate(-649.793 -257.51)" fill="none" stroke="#333" stroke-linecap="round" stroke-linejoin="round" stroke-width="2"/>
      <path id="Tracé_36" data-name="Tracé 36" d="M701.06,273.45h4.784" transform="translate(-634.091 -267.81)" fill="none" stroke="#333" stroke-linecap="round" stroke-linejoin="round" stroke-width="2"/>
      <path id="Tracé_37" data-name="Tracé 37" d="M738.16,268.62l3.414,3.358" transform="translate(-658.064 -264.689)" fill="none" stroke="#333" stroke-linecap="round" stroke-linejoin="round" stroke-width="2"/>
      <path id="Tracé_38" data-name="Tracé 38" d="M738.16,271.978l3.414-3.358" transform="translate(-658.064 -264.689)" fill="none" stroke="#333" stroke-linecap="round" stroke-linejoin="round" stroke-width="2"/>
    </g>
    <g id="Groupe_8" data-name="Groupe 8" transform="translate(160.48 36.878)">
      <path id="Tracé_39" data-name="Tracé 39" d="M578.52,361.74c3.616,0,3.616,7.264,7.2,7.264,3.616,0,3.616-7.264,7.2-7.264S596.532,369,600.18,369c3.616,0,3.616-7.264,7.2-7.264S611,369,614.644,369s3.616-7.264,7.26-7.264" transform="translate(-568.751 -361.74)" fill="none" stroke="#333" stroke-linecap="round" stroke-linejoin="round" stroke-width="2"/>
      <path id="Tracé_40" data-name="Tracé 40" d="M558.53,361.74H565.6" transform="translate(-555.834 -361.74)" fill="none" stroke="#333" stroke-linecap="round" stroke-linejoin="round" stroke-width="2"/>
      <path id="Tracé_41" data-name="Tracé 41" d="M701.23,361.74h7.136" transform="translate(-648.045 -361.74)" fill="none" stroke="#333" stroke-linecap="round" stroke-linejoin="round" stroke-width="2"/>
      <path id="Tracé_42" data-name="Tracé 42" d="M550.91,412.428l4.154-7.388,4.217,7.388Z" transform="translate(-550.91 -389.72)" fill="#4686cf" stroke="#333" stroke-linecap="round" stroke-linejoin="round" stroke-width="2"/>
      <path id="Tracé_43" data-name="Tracé 43" d="M628.106,412.159a3.964,3.964,0,1,0-3.966-3.966A3.966,3.966,0,0,0,628.106,412.159Z" transform="translate(-598.231 -389.197)" fill="#4686cf" stroke="#333" stroke-linecap="round" stroke-linejoin="round" stroke-width="2"/>
      <path id="Tracé_44" data-name="Tracé 44" d="M599.23,407.28v5.8" transform="translate(-582.134 -391.168)" fill="none" stroke="#333" stroke-linecap="round" stroke-linejoin="round" stroke-width="2"/>
      <path id="Tracé_45" data-name="Tracé 45" d="M596.814,415.43H590.98" transform="translate(-576.803 -396.434)" fill="none" stroke="#333" stroke-linecap="round" stroke-linejoin="round" stroke-width="2"/>
      <path id="Tracé_46" data-name="Tracé 46" d="M673.98,404.05h15.065" transform="translate(-630.437 -389.08)" fill="none" stroke="#333" stroke-linecap="round" stroke-linejoin="round" stroke-width="2"/>
      <path id="Tracé_47" data-name="Tracé 47" d="M673.98,413.55h15.065" transform="translate(-630.437 -395.219)" fill="none" stroke="#333" stroke-linecap="round" stroke-linejoin="round" stroke-width="2"/>
      <path id="Tracé_48" data-name="Tracé 48" d="M673.98,422.87h6" transform="translate(-630.437 -401.242)" fill="none" stroke="#333" stroke-linecap="round" stroke-linejoin="round" stroke-width="2"/>
      <path id="Tracé_49" data-name="Tracé 49" d="M699.53,422.87h6.025" transform="translate(-646.947 -401.242)" fill="none" stroke="#333" stroke-linecap="round" stroke-linejoin="round" stroke-width="2"/>
      <path id="Tracé_50" data-name="Tracé 50" d="M620.18,454.79H606.13v14.05h14.05Z" transform="translate(-586.593 -421.868)" fill="#787878" stroke="#333" stroke-linecap="round" stroke-linejoin="round" stroke-width="2"/>
      <path id="Tracé_51" data-name="Tracé 51" d="M690.99,454.79H676.94v14.05h14.05Z" transform="translate(-632.349 -421.868)" fill="#787878" stroke="#333" stroke-linecap="round" stroke-linejoin="round" stroke-width="2"/>
      <path id="Tracé_52" data-name="Tracé 52" d="M622.146,472.839a2.125,2.125,0,1,0-2.126-2.123A2.125,2.125,0,0,0,622.146,472.839Z" transform="translate(-595.568 -430.785)" fill="#3d72a8" stroke="#333" stroke-linecap="round" stroke-linejoin="round" stroke-width="2"/>
      <path id="Tracé_53" data-name="Tracé 53" d="M692.873,472.839a2.125,2.125,0,1,0-2.123-2.123A2.125,2.125,0,0,0,692.873,472.839Z" transform="translate(-641.273 -430.785)" fill="#3d72a8" stroke="#333" stroke-linecap="round" stroke-linejoin="round" stroke-width="2"/>
      <path id="Tracé_54" data-name="Tracé 54" d="M632.03,474.6h20.776" transform="translate(-603.329 -434.669)" fill="none" stroke="#333" stroke-linecap="round" stroke-linejoin="round" stroke-width="2"/>
    </g>
    <g id="Groupe_9" data-name="Groupe 9" transform="translate(49.584 86.457)">
      <path id="Tracé_55" data-name="Tracé 55" d="M255.21,662.23h58.5v40.617h-58.5Z" transform="translate(-249.929 -606.521)" fill="#fff" stroke="#333" stroke-linecap="round" stroke-linejoin="round" stroke-width="2"/>
      <path id="Tracé_56" data-name="Tracé 56" d="M341.12,761.13h43.671a25.836,25.836,0,0,1,25.853,25.839v66.421H378.776V794.342H341.12Z" transform="translate(-305.443 -670.429)" fill="#465e6d" stroke="#333" stroke-linecap="round" stroke-linejoin="round" stroke-width="2"/>
      <path id="Tracé_57" data-name="Tracé 57" d="M255.21,761.13h43.363a25.191,25.191,0,0,1,24.958,21.883l9.28,70.376H300.94L292.866,794.3H278.54c-12.886,0-23.33-11.8-23.33-24.675Z" transform="translate(-249.929 -670.429)" fill="#465e6d" stroke="#333" stroke-linecap="round" stroke-linejoin="round" stroke-width="2"/>
      <path id="Tracé_58" data-name="Tracé 58" d="M293.9,563.87h-23.68a24.887,24.887,0,0,0-24.494,20.482L240.6,612.869a19.968,19.968,0,0,0,11.683,21.8l47.089,20.486,9.238-21.611v-6.981A12.7,12.7,0,0,0,324.1,628.5l34.238-20.525-11.916-21.763-29.037,17.34-7.455-27.466A16.614,16.614,0,0,0,293.9,563.87Z" transform="translate(-240.284 -542.961)" fill="#fff" stroke="#333" stroke-linecap="round" stroke-linejoin="round" stroke-width="2"/>
      <path id="Tracé_59" data-name="Tracé 59" d="M343.058,519.952s-13.006-8.654-24.572.969a14.937,14.937,0,0,0-4.115,16.682,16.846,16.846,0,1,0,28.687-17.652Z" transform="translate(-287.504 -512.272)" fill="#fff" stroke="#333" stroke-linecap="round" stroke-linejoin="round" stroke-width="2"/>
      <path id="Tracé_60" data-name="Tracé 60" d="M381.5,547.64l.619,4.734" transform="translate(-331.536 -532.474)" fill="none" stroke="#333" stroke-linecap="round" stroke-linejoin="round" stroke-width="2"/>
      <path id="Tracé_61" data-name="Tracé 61" d="M370.63,561.6a2.251,2.251,0,0,0,4.465-.58" transform="translate(-324.512 -541.12)" fill="none" stroke="#333" stroke-linecap="round" stroke-linejoin="round" stroke-width="2"/>
      <path id="Tracé_62" data-name="Tracé 62" d="M324.384,504.925A16.825,16.825,0,0,0,309.9,523.858a16.363,16.363,0,0,0,2.137,6.248,7.431,7.431,0,0,0,6.4-8.343l-.817-6.245,23.139-3.064A16.955,16.955,0,0,0,324.384,504.925Z" transform="translate(-285.173 -504.775)" fill="#465e6d" stroke="#333" stroke-linecap="round" stroke-linejoin="round" stroke-width="2"/>
      <path id="Tracé_63" data-name="Tracé 63" d="M351.149,725.77,306.12,706.53" transform="translate(-282.826 -635.147)" fill="none" stroke="#333" stroke-linecap="round" stroke-linejoin="round" stroke-width="2"/>
      <path id="Tracé_64" data-name="Tracé 64" d="M306.12,687.823a10.237,10.237,0,0,0,10.25-10.243" transform="translate(-282.826 -616.44)" fill="none" stroke="#333" stroke-linecap="round" stroke-linejoin="round" stroke-width="2"/>
      <path id="Tracé_65" data-name="Tracé 65" d="M433.39,666.224V662.23" transform="translate(-365.067 -606.521)" fill="none" stroke="#333" stroke-linecap="round" stroke-linejoin="round" stroke-width="2"/>
      <path id="Tracé_66" data-name="Tracé 66" d="M433.39,703.371V682.73" transform="translate(-365.067 -619.768)" fill="none" stroke="#333" stroke-linecap="round" stroke-linejoin="round" stroke-width="2"/>
    </g>
    <g id="Groupe_10" data-name="Groupe 10" transform="translate(92.946 172.576)">
      <path id="Tracé_67" data-name="Tracé 67" d="M413.846,788.662H390.59V759.72H540.874v28.942H420.823" transform="translate(-379.944 -755.637)" fill="#787878"/>
      <path id="Tracé_68" data-name="Tracé 68" d="M413.846,788.662H390.59V759.72H540.874v28.942H420.823" transform="translate(-379.944 -755.637)" fill="none" stroke="#333" stroke-linecap="round" stroke-linejoin="round" stroke-width="2"/>
      <path id="Tracé_69" data-name="Tracé 69" d="M490.89,748.18h41.187V756.4H360.5V748.18H472.438" transform="translate(-360.5 -748.18)" fill="#787878"/>
      <path id="Tracé_70" data-name="Tracé 70" d="M490.89,748.18h41.187V756.4H360.5V748.18H472.438" transform="translate(-360.5 -748.18)" fill="none" stroke="#333" stroke-linecap="round" stroke-linejoin="round" stroke-width="2"/>
      <path id="Tracé_71" data-name="Tracé 71" d="M815.35,841.52v63.41" transform="translate(-654.42 -808.495)" fill="none" stroke="#333" stroke-linecap="round" stroke-linejoin="round" stroke-width="2"/>
      <path id="Tracé_72" data-name="Tracé 72" d="M390.59,841.52v63.41" transform="translate(-379.944 -808.495)" fill="none" stroke="#333" stroke-linecap="round" stroke-linejoin="round" stroke-width="2"/>
      <path id="Tracé_73" data-name="Tracé 73" d="M692.66,748.18h7.7" transform="translate(-575.139 -748.18)" fill="none" stroke="#333" stroke-linecap="round" stroke-linejoin="round" stroke-width="2"/>
    </g>
    <g id="Groupe_11" data-name="Groupe 11" transform="translate(131.161 132.968)">
      <path id="Tracé_74" data-name="Tracé 74" d="M534.03,635.01h53.836L569.5,673.14H515.71Z" transform="translate(-498.957 -635.01)" fill="#4686cf" stroke="#333" stroke-linecap="round" stroke-linejoin="round" stroke-width="2"/>
      <path id="Tracé_75" data-name="Tracé 75" d="M540.6,732.91H468.36v5.236H540.6Z" transform="translate(-468.36 -698.272)" fill="#4686cf" stroke="#333" stroke-linecap="round" stroke-linejoin="round" stroke-width="2"/>
      <path id="Tracé_76" data-name="Tracé 76" d="M614.2,681.329a3.184,3.184,0,1,0-3.184-3.184A3.185,3.185,0,0,0,614.2,681.329Z" transform="translate(-560.546 -660.825)" fill="#fff" stroke="#333" stroke-linecap="round" stroke-linejoin="round" stroke-width="2"/>
    </g>
    <g id="Groupe_12" data-name="Groupe 12" transform="translate(327.092 207.56)">
      <path id="Tracé_77" data-name="Tracé 77" d="M1254.814,853.14a31.778,31.778,0,0,1,13.661,3.078c6.744,3.492,13.484,11.34,16.873,19.916a32.075,32.075,0,0,1,1.245,8.785v25h-56.054a8.026,8.026,0,0,1,8.021-8.021h2.388V868.767H1214.08V853.175H1231.4a4.713,4.713,0,0,1,4.706-4.706h13.933A4.676,4.676,0,0,1,1254.814,853.14Z" transform="translate(-1214.08 -848.469)" fill="#787878" stroke="#333" stroke-linecap="round" stroke-linejoin="round" stroke-width="2"/>
      <path id="Tracé_78" data-name="Tracé 78" d="M1317.21,861.67v10.271a3.285,3.285,0,0,1-6.57,0v-5.778" transform="translate(-1276.476 -856.999)" fill="none" stroke="#333" stroke-linecap="round" stroke-linejoin="round" stroke-width="2"/>
      <path id="Tracé_79" data-name="Tracé 79" d="M1316.33,999.38h-26.21" transform="translate(-1263.216 -945.986)" fill="none" stroke="#333" stroke-linecap="round" stroke-linejoin="round" stroke-width="2"/>
      <path id="Tracé_80" data-name="Tracé 80" d="M1367.2,870.3a18.193,18.193,0,0,0-.276,3.11,16.8,16.8,0,0,0,16.806,16.806h.379A31.948,31.948,0,0,0,1367.2,870.3Z" transform="translate(-1312.844 -862.576)" fill="#3d72a8" stroke="#333" stroke-linecap="round" stroke-linejoin="round" stroke-width="2"/>
      <path id="Tracé_81" data-name="Tracé 81" d="M1333.306,956.938a11.619,11.619,0,0,1,0-23.238h3.425" transform="translate(-1283.617 -903.544)" fill="none" stroke="#333" stroke-linecap="round" stroke-linejoin="round" stroke-width="2"/>
      <path id="Tracé_82" data-name="Tracé 82" d="M1471.91,959.561a16.336,16.336,0,0,0,1.175-6.121" transform="translate(-1380.687 -916.3)" fill="none" stroke="#333" stroke-linecap="round" stroke-linejoin="round" stroke-width="2"/>
      <path id="Tracé_83" data-name="Tracé 83" d="M1419.03,984.983h3.666a16.213,16.213,0,0,0,13.937-7.883" transform="translate(-1346.517 -931.589)" fill="none" stroke="#333" stroke-linecap="round" stroke-linejoin="round" stroke-width="2"/>
      <path id="Tracé_84" data-name="Tracé 84" d="M1305.75,958.193V954.91" transform="translate(-1273.316 -917.25)" fill="none" stroke="#333" stroke-linecap="round" stroke-linejoin="round" stroke-width="2"/>
      <path id="Tracé_85" data-name="Tracé 85" d="M1305.75,981.254V971.33" transform="translate(-1273.316 -927.861)" fill="none" stroke="#333" stroke-linecap="round" stroke-linejoin="round" stroke-width="2"/>
      <path id="Tracé_86" data-name="Tracé 86" d="M1214.09,865.282a3.483,3.483,0,0,0,3.492-3.492h-3.492Z" transform="translate(-1214.086 -857.077)" fill="#3d72a8" stroke="#333" stroke-linecap="round" stroke-linejoin="round" stroke-width="2"/>
    </g>
    <g id="Groupe_13" data-name="Groupe 13" transform="translate(223.1 159.321)">
      <path id="Tracé_87" data-name="Tracé 87" d="M739.923,723.238h5.728a3.967,3.967,0,0,0,3.945-3.945V709.62H735.978v9.673A3.908,3.908,0,0,0,739.923,723.238Z" transform="translate(-732.879 -709.62)" fill="#ababab" stroke="#333" stroke-linecap="round" stroke-linejoin="round" stroke-width="2"/>
      <path id="Tracé_88" data-name="Tracé 88" d="M730.273,713.61a3.052,3.052,0,1,0,0,6.1" transform="translate(-727.22 -712.198)" fill="none" stroke="#333" stroke-linecap="round" stroke-linejoin="round" stroke-width="2"/>
    </g>
  </g>
</svg>
