<svg xmlns="http://www.w3.org/2000/svg" width="20" height="13" viewBox="0 0 20 13">
  <g id="Polygone_3" data-name="Polygone 3" transform="translate(20 13) rotate(180)" fill="#fff" stroke-linejoin="round">
    <path d="M 15.93826866149902 12.49999523162842 L 4.061728954315186 12.49999523162842 C 3.477268934249878 12.49999523162842 2.974209070205688 12.18695545196533 2.716019153594971 11.66262531280518 C 2.457839012145996 11.13828563690186 2.516438961029053 10.54868507385254 2.872789144515991 10.08542537689209 L 8.81105899810791 2.36568546295166 C 9.097259521484375 1.993635535240173 9.530609130859375 1.780245542526245 9.999999046325684 1.780245542526245 C 10.46938896179199 1.780245542526245 10.90273857116699 1.993635535240173 11.18893909454346 2.36568546295166 L 17.1272087097168 10.08543586730957 C 17.48355865478516 10.54868507385254 17.54215812683105 11.13828563690186 17.28397941589355 11.66262531280518 C 17.02578926086426 12.18695545196533 16.52272987365723 12.49999523162842 15.93826866149902 12.49999523162842 Z" stroke="none"/>
    <path d="M 9.999999046325684 2.280245780944824 C 9.687068939208984 2.280245780944824 9.39816951751709 2.422505378723145 9.207368850708008 2.670535087585449 L 3.269098281860352 10.39028549194336 C 3.031539916992188 10.69912528991699 2.992469787597656 11.09219551086426 3.164588928222656 11.44174575805664 C 3.336709976196289 11.79130554199219 3.672088623046875 11.99999523162842 4.061729431152344 11.99999523162842 L 15.93826866149902 11.99999523162842 C 16.32790946960449 11.99999523162842 16.66328811645508 11.79130554199219 16.83540916442871 11.44174575805664 C 17.00752830505371 11.09219551086426 16.96846008300781 10.69912528991699 16.73089981079102 10.39028549194336 L 10.79262924194336 2.670535087585449 C 10.60182857513428 2.422505378723145 10.31292915344238 2.280245780944824 9.999999046325684 2.280245780944824 M 9.999999046325684 1.280247688293457 C 10.59247398376465 1.280247688293457 11.18494892120361 1.540440559387207 11.58524894714355 2.060825347900391 L 17.52351951599121 9.780574798583984 C 18.53523826599121 11.09581565856934 17.59761810302734 12.99999523162842 15.93826866149902 12.99999523162842 L 4.061729431152344 12.99999523162842 C 2.402379989624023 12.99999523162842 1.464759826660156 11.09581565856934 2.476478576660156 9.780574798583984 L 8.414749145507812 2.060825347900391 C 8.815049171447754 1.540440559387207 9.407524108886719 1.280247688293457 9.999999046325684 1.280247688293457 Z" stroke="none" fill="#fff"/>
  </g>
</svg>
