<svg xmlns="http://www.w3.org/2000/svg" width="18" height="11" viewBox="0 0 18 11">
  <g id="Polygone_1" data-name="Polygone 1" transform="translate(18 11) rotate(180)" fill="#fff" stroke-linejoin="round">
    <path d="M 13.77951049804688 10.50000190734863 L 4.220480918884277 10.50000190734863 C 3.626200914382935 10.50000190734863 3.119470834732056 10.17938137054443 2.864980936050415 9.642351150512695 C 2.610491037368774 9.105311393737793 2.683230876922607 8.510091781616211 3.059551000595093 8.050141334533691 L 7.83906078338623 2.208511590957642 C 8.125110626220703 1.858891606330872 8.548260688781738 1.658371567726135 9.000000953674316 1.658371567726135 C 9.451730728149414 1.658371567726135 9.874880790710449 1.858891606330872 10.16093063354492 2.208511590957642 L 14.94045066833496 8.050141334533691 C 15.31677055358887 8.510091781616211 15.38951110839844 9.105311393737793 15.1350212097168 9.642341613769531 C 14.88053131103516 10.17938137054443 14.37380123138428 10.50000190734863 13.77951049804688 10.50000190734863 Z" stroke="none"/>
    <path d="M 8.999991416931152 2.158371925354004 C 8.698830604553223 2.158371925354004 8.416741371154785 2.292051315307617 8.226040840148926 2.525131225585938 L 3.446531295776367 8.366762161254883 C 3.074761390686035 8.821141242980957 3.253251075744629 9.294101715087891 3.316821098327637 9.428231239318848 C 3.380380630493164 9.562361717224121 3.633391380310059 10.00000190734863 4.220480918884277 10.00000190734863 L 13.77951049804688 10.00000190734863 C 14.36661148071289 10.00000190734863 14.61962127685547 9.562361717224121 14.683180809021 9.428231239318848 C 14.746750831604 9.294101715087891 14.92524147033691 8.821141242980957 14.55347061157227 8.366762161254883 L 9.773950576782227 2.525131225585938 C 9.583250999450684 2.292051315307617 9.301151275634766 2.158371925354004 8.999991416931152 2.158371925354004 M 8.999996185302734 1.158369064331055 C 9.573901176452637 1.158369064331055 10.14780616760254 1.402876853942871 10.54791069030762 1.891891479492188 L 15.32743072509766 7.733521461486816 C 16.39586067199707 9.03938102722168 15.46677112579346 11.00000190734863 13.77951049804688 11.00000190734863 L 4.220480918884277 11.00000190734863 C 2.533230781555176 11.00000190734863 1.604141235351562 9.03938102722168 2.672571182250977 7.733521461486816 L 7.452080726623535 1.891891479492188 C 7.85218620300293 1.402876853942871 8.426091194152832 1.158369064331055 8.999996185302734 1.158369064331055 Z" stroke="none" fill="#fff"/>
  </g>
</svg>
