<svg xmlns="http://www.w3.org/2000/svg" width="25" height="17" viewBox="0 0 25 17">
  <g id="Polygone_2" data-name="Polygone 2" transform="translate(25 17) rotate(180)" fill="#4d3223" stroke-linejoin="round">
    <path d="M 21.04694938659668 16.49999618530273 L 3.953049898147583 16.49999618530273 C 3.375629901885986 16.49999618530273 2.875279903411865 16.19239616394043 2.614599943161011 15.67716598510742 C 2.353929996490479 15.16193580627441 2.402519941329956 14.57660579681396 2.744580030441284 14.11141586303711 L 11.29152965545654 2.487576007843018 C 11.57723045349121 2.099005937576294 12.0177001953125 1.876156091690063 12.5 1.876156091690063 C 12.9822998046875 1.876156091690063 13.42276954650879 2.099005937576294 13.70847034454346 2.487565994262695 L 22.25542068481445 14.11141586303711 C 22.59748077392578 14.57660579681396 22.64607048034668 15.16193580627441 22.38540077209473 15.67716598510742 C 22.12471961975098 16.19239616394043 21.62437057495117 16.49999618530273 21.04694938659668 16.49999618530273 Z" stroke="none"/>
    <path d="M 12.5 2.376155853271484 C 12.17846012115479 2.376155853271484 11.88481998443604 2.524716377258301 11.69435024261475 2.783756256103516 L 3.14739990234375 14.40760612487793 C 2.91935920715332 14.71773624420166 2.886970520019531 15.10795593261719 3.060749053955078 15.45144653320312 C 3.234540939331055 15.79492568969727 3.568099975585938 15.99999618530273 3.95305061340332 15.99999618530273 L 21.04694938659668 15.99999618530273 C 21.43190002441406 15.99999618530273 21.76546096801758 15.79492568969727 21.93925094604492 15.45144653320312 C 22.11302947998047 15.10795593261719 22.08064079284668 14.71773624420166 21.85260009765625 14.40760612487793 L 13.30564975738525 2.783756256103516 C 13.11518001556396 2.524725914001465 12.82153034210205 2.376155853271484 12.5 2.376155853271484 M 12.5 1.376153945922852 C 13.10584259033203 1.376153945922852 13.71168518066406 1.647890090942383 14.11130046844482 2.191366195678711 L 22.65825080871582 13.81521606445312 C 23.6294002532959 15.13597583770752 22.68631935119629 16.99999618530273 21.04694938659668 16.99999618530273 L 3.95305061340332 16.99999618530273 C 2.313680648803711 16.99999618530273 1.370599746704102 15.13597583770752 2.34174919128418 13.81521606445312 L 10.88869953155518 2.191366195678711 C 11.28831481933594 1.647890090942383 11.89415740966797 1.376153945922852 12.5 1.376153945922852 Z" stroke="none" fill="#4d3223"/>
  </g>
</svg>
