<svg xmlns="http://www.w3.org/2000/svg" height="1200" width="1600" version="1.1" xmlns:xlink="http://www.w3.org/1999/xlink" xmlns:svgjs="http://svgjs.com/svgjs"><rect fill="#effaff" width="1600" height="1200"></rect><g><path d="M1377.76 328.53C1366.84 310.96 1353.15 295.24 1336.71 282.27 1281.66 238.96 1207.92 235.29 1140.72 236.21 1062.19 237.53 984.36 246.01 907.77 263.17 805.13 286.04 708.11 326.18 601.79 332.1 542.66 335.37 483.52 329.45 424.49 332.51 365.36 335.58 304.49 349.06 258.53 386.03 228.3 410.34 205.73 444.04 195.01 481.11 178.67 537.69 189.39 599.38 213.9 652.89 253.02 738.78 318.48 824.06 403.76 868.38 504.26 920.37 618.03 941.92 729.76 954.48 811.97 963.77 895.31 968.37 977.42 957.95 1077.2 945.29 1176.16 908.62 1249.69 838.15 1320.98 770.03 1366.53 678.53 1392.98 584.57 1407.79 532.17 1417.29 477.33 1410.65 423.41 1406.26 390.01 1395.43 356.92 1377.76 328.53Z" fill="#00a8e8" opacity="1" stroke-width="2" stroke="none"></path></g><g><path d="M1157.11 1022L1499.86 1022" stroke="#333333" stroke-width="2" stroke-linecap="round" stroke-linejoin="round" opacity="1" fill="none"></path><path d="M100.14 1022L1083.11 1022" stroke="#333333" stroke-width="2" stroke-linecap="round" stroke-linejoin="round" opacity="1" fill="none"></path></g><g><path d="M1387.22 934.63V1022.47H1128.21V613.81H1387.22V919.29" fill="#465e6d" opacity="1" stroke-width="2" stroke="none"></path><path d="M1387.22 934.63V1022.47H1128.21V613.81H1387.22V919.29" stroke="#333333" stroke-width="2" stroke-linecap="round" stroke-linejoin="round" opacity="1" fill="none"></path><path d="M1106.1 613.81H1409.48" stroke="#333333" stroke-width="2" stroke-linecap="round" stroke-linejoin="round" opacity="1" fill="none"></path><path d="M1128.21 750.08H1387.22" stroke="#333333" stroke-width="2" stroke-linecap="round" stroke-linejoin="round" opacity="1" fill="none"></path><path d="M1128.21 886.2H1387.22" stroke="#333333" stroke-width="2" stroke-linecap="round" stroke-linejoin="round" opacity="1" fill="none"></path><path d="M1262.08 692.32C1267.81 692.32 1272.46 687.67 1272.46 681.94 1272.46 676.21 1267.81 671.56 1262.08 671.56 1256.35 671.56 1251.7 676.21 1251.7 681.94 1251.7 687.67 1256.35 692.32 1262.08 692.32Z" stroke="#333333" stroke-width="2" stroke-linecap="round" stroke-linejoin="round" opacity="1" fill="none"></path><path d="M1262.08 828.44C1267.81 828.44 1272.46 823.79 1272.46 818.06 1272.46 812.33 1267.81 807.69 1262.08 807.69 1256.35 807.69 1251.7 812.33 1251.7 818.06 1251.7 823.79 1256.35 828.44 1262.08 828.44Z" stroke="#333333" stroke-width="2" stroke-linecap="round" stroke-linejoin="round" opacity="1" fill="none"></path><path d="M1262.08 964.71C1267.81 964.71 1272.46 960.07 1272.46 954.34 1272.46 948.61 1267.81 943.96 1262.08 943.96 1256.35 943.96 1251.7 948.61 1251.7 954.34 1251.7 960.07 1256.35 964.71 1262.08 964.71Z" stroke="#333333" stroke-width="2" stroke-linecap="round" stroke-linejoin="round" opacity="1" fill="none"></path></g><g><path d="M1027.33 626.83L1085.02 1021.9H915.28L845.84 544.76C840.93 510.39 867.41 479.53 902.13 479.53H956.66C985.07 479.53 1008.92 500.4 1012.95 528.28L1020.14 577.56" fill="#3d72a8" opacity="1" stroke-width="2" stroke="none"></path><path d="M1027.33 626.83L1085.02 1021.9H915.28L845.84 544.76C840.93 510.39 867.41 479.53 902.13 479.53H956.66C985.07 479.53 1008.92 500.4 1012.95 528.28L1020.14 577.56" stroke="#333333" stroke-width="2" stroke-linecap="round" stroke-linejoin="round" opacity="1" fill="none"></path><path d="M1022.07 590.53L1025.58 614.38" stroke="#333333" stroke-width="2" stroke-linecap="round" stroke-linejoin="round" opacity="1" fill="none"></path><path d="M836.37 1021.9L875.82 750.98" stroke="#333333" stroke-width="2" stroke-linecap="round" stroke-linejoin="round" opacity="1" fill="none"></path><path d="M969.29 724.33L989.45 744.67" stroke="#333333" stroke-width="2" stroke-linecap="round" stroke-linejoin="round" opacity="1" fill="none"></path><path d="M939.83 725.38L991.56 776.93" stroke="#333333" stroke-width="2" stroke-linecap="round" stroke-linejoin="round" opacity="1" fill="none"></path><path d="M938.78 754.84L959.29 775.18" stroke="#333333" stroke-width="2" stroke-linecap="round" stroke-linejoin="round" opacity="1" fill="none"></path></g><g><path d="M198.36 791.86L198.36 683.44C198.36 669.96 204 657.03 213.91 647.67L225.74 636.66C234.68 628.41 239.64 616.71 239.64 604.61 239.64 586.86 254.08 572.55 271.69 572.55H289.72C307.47 572.55 321.77 587 321.77 604.61 321.77 616.71 326.87 628.41 335.67 636.66L347.5 647.67C357.41 656.89 363.05 669.82 363.05 683.44L363.05 855.15H389.88C395.93 855.15 401.02 859.83 401.16 865.88 401.3 872.07 396.35 877.02 390.15 877.02H362.91 230.83C212.81 877.02 198.22 862.44 198.22 844.42V802.73" fill="#3d72a8" opacity="1" stroke-width="2" stroke="none"></path><path d="M198.36 791.86L198.36 683.44C198.36 669.96 204 657.03 213.91 647.67L225.74 636.66C234.68 628.41 239.64 616.71 239.64 604.61 239.64 586.86 254.08 572.55 271.69 572.55H289.72C307.47 572.55 321.77 587 321.77 604.61 321.77 616.71 326.87 628.41 335.67 636.66L347.5 647.67C357.41 656.89 363.05 669.82 363.05 683.44L363.05 855.15H389.88C395.93 855.15 401.02 859.83 401.16 865.88 401.3 872.07 396.35 877.02 390.15 877.02H362.91 230.83C212.81 877.02 198.22 862.44 198.22 844.42V802.73" stroke="#333333" stroke-width="2" stroke-linecap="round" stroke-linejoin="round" opacity="1" fill="none"></path><path d="M363.05 855.01H268.25" stroke="#333333" stroke-width="2" stroke-linecap="round" stroke-linejoin="round" opacity="1" fill="none"></path><path d="M261.24 855.01H237.99" stroke="#333333" stroke-width="2" stroke-linecap="round" stroke-linejoin="round" opacity="1" fill="none"></path><path d="M315.72 1005.53H245.83C237.3 1005.53 230.42 1012.41 230.42 1020.94H330.99C330.99 1012.41 324.11 1005.53 315.72 1005.53Z" fill="#3d72a8" stroke="#333333" stroke-width="2" stroke-linecap="round" stroke-linejoin="round" opacity="1"></path><path d="M280.77 971.27V877.02" stroke="#333333" stroke-width="2" stroke-linecap="round" stroke-linejoin="round" opacity="1" fill="none"></path><path d="M280.77 1005.53L280.77 978.01" stroke="#333333" stroke-width="2" stroke-linecap="round" stroke-linejoin="round" opacity="1" fill="none"></path><path d="M221.2 691.42L221.2 680.14" stroke="#333333" stroke-width="2" stroke-linecap="round" stroke-linejoin="round" opacity="1" fill="none"></path><path d="M221.2 734.76V701.33" stroke="#333333" stroke-width="2" stroke-linecap="round" stroke-linejoin="round" opacity="1" fill="none"></path></g><g><path d="M760.45 271.84H511.78V578.84H760.45V271.84Z" fill="#ababab" stroke="#333333" stroke-width="2" stroke-linecap="round" stroke-linejoin="round" opacity="1"></path><path d="M760.45 257.51H511.78V289.38H760.45V257.51Z" fill="#4686cf" stroke="#333333" stroke-width="2" stroke-linecap="round" stroke-linejoin="round" opacity="1"></path><path d="M725.52 257.51H690.35V289.38H725.52V257.51Z" stroke="#333333" stroke-width="2" stroke-linecap="round" stroke-linejoin="round" opacity="1" fill="none"></path><path d="M760.45 257.51H725.36V289.38H760.45V257.51Z" stroke="#333333" stroke-width="2" stroke-linecap="round" stroke-linejoin="round" opacity="1" fill="none"></path><path d="M701.06 273.45H714.58" stroke="#333333" stroke-width="2" stroke-linecap="round" stroke-linejoin="round" opacity="1" fill="none"></path><path d="M738.16 268.62L747.81 278.11" stroke="#333333" stroke-width="2" stroke-linecap="round" stroke-linejoin="round" opacity="1" fill="none"></path><path d="M738.16 278.11L747.81 268.62" stroke="#333333" stroke-width="2" stroke-linecap="round" stroke-linejoin="round" opacity="1" fill="none"></path></g><g><path d="M578.52 361.74C588.74 361.74 588.74 382.27 598.87 382.27 609.09 382.27 609.09 361.74 619.21 361.74 629.34 361.74 629.43 382.27 639.74 382.27 649.96 382.27 649.96 361.74 660.09 361.74 670.22 361.74 670.31 382.27 680.62 382.27 690.93 382.27 690.84 361.74 701.14 361.74" stroke="#333333" stroke-width="2" stroke-linecap="round" stroke-linejoin="round" opacity="1" fill="none"></path><path d="M558.53 361.74H578.52" stroke="#333333" stroke-width="2" stroke-linecap="round" stroke-linejoin="round" opacity="1" fill="none"></path><path d="M701.23 361.74H721.4" stroke="#333333" stroke-width="2" stroke-linecap="round" stroke-linejoin="round" opacity="1" fill="none"></path><path d="M550.91 425.92L562.65 405.04 574.57 425.92H550.91Z" fill="#4686cf" stroke="#333333" stroke-width="2" stroke-linecap="round" stroke-linejoin="round" opacity="1"></path><path d="M635.35 426.64C641.53 426.64 646.55 421.62 646.55 415.43 646.55 409.25 641.53 404.23 635.35 404.23 629.16 404.23 624.14 409.25 624.14 415.43 624.14 421.62 629.16 426.64 635.35 426.64Z" fill="#4686cf" stroke="#333333" stroke-width="2" stroke-linecap="round" stroke-linejoin="round" opacity="1"></path><path d="M599.23 407.28V423.68" stroke="#333333" stroke-width="2" stroke-linecap="round" stroke-linejoin="round" opacity="1" fill="none"></path><path d="M607.47 415.43H590.98" stroke="#333333" stroke-width="2" stroke-linecap="round" stroke-linejoin="round" opacity="1" fill="none"></path><path d="M673.98 404.05H716.56" stroke="#333333" stroke-width="2" stroke-linecap="round" stroke-linejoin="round" opacity="1" fill="none"></path><path d="M673.98 413.55H716.56" stroke="#333333" stroke-width="2" stroke-linecap="round" stroke-linejoin="round" opacity="1" fill="none"></path><path d="M673.98 422.87H690.93" stroke="#333333" stroke-width="2" stroke-linecap="round" stroke-linejoin="round" opacity="1" fill="none"></path><path d="M699.53 422.87H716.56" stroke="#333333" stroke-width="2" stroke-linecap="round" stroke-linejoin="round" opacity="1" fill="none"></path><path d="M645.84 454.79H606.13V494.5H645.84V454.79Z" fill="#787878" stroke="#333333" stroke-width="2" stroke-linecap="round" stroke-linejoin="round" opacity="1"></path><path d="M716.65 454.79H676.94V494.5H716.65V454.79Z" fill="#787878" stroke="#333333" stroke-width="2" stroke-linecap="round" stroke-linejoin="round" opacity="1"></path><path d="M626.03 480.6C629.34 480.6 632.03 477.91 632.03 474.6 632.03 471.28 629.34 468.59 626.03 468.59 622.71 468.59 620.02 471.28 620.02 474.6 620.02 477.91 622.71 480.6 626.03 480.6Z" fill="#3d72a8" stroke="#333333" stroke-width="2" stroke-linecap="round" stroke-linejoin="round" opacity="1"></path><path d="M696.75 480.6C700.07 480.6 702.76 477.91 702.76 474.6 702.76 471.28 700.07 468.59 696.75 468.59 693.44 468.59 690.75 471.28 690.75 474.6 690.75 477.91 693.44 480.6 696.75 480.6Z" fill="#3d72a8" stroke="#333333" stroke-width="2" stroke-linecap="round" stroke-linejoin="round" opacity="1"></path><path d="M632.03 474.6H690.75" stroke="#333333" stroke-width="2" stroke-linecap="round" stroke-linejoin="round" opacity="1" fill="none"></path></g><g><path d="M255.21 662.23H420.56V777.03H255.21L255.21 662.23Z" fill="#ffffff" stroke="#333333" stroke-width="2" stroke-linecap="round" stroke-linejoin="round" opacity="1"></path><path d="M341.12 761.13H447.55 464.55C504.93 761.13 537.62 793.81 537.62 834.16V851.16 1021.89H447.55L447.55 855H341.12L341.12 761.13Z" fill="#465e6d" stroke="#333333" stroke-width="2" stroke-linecap="round" stroke-linejoin="round" opacity="1"></path><path d="M255.21 761.13H361.64 377.77C413.42 761.13 443.6 787.56 448.31 822.98L474.54 1021.89H384.46L361.64 854.89 321.15 854.89C284.73 854.89 255.21 821.55 255.21 785.15V761.13Z" fill="#465e6d" stroke="#333333" stroke-width="2" stroke-linecap="round" stroke-linejoin="round" opacity="1"></path><path d="M391.81 563.87H324.88C290.87 563.87 261.69 588.21 255.65 621.76L241.17 702.36C236.56 728.02 250.28 753.57 274.19 763.98L407.28 821.88 433.39 760.8V741.07C445.02 752.69 463.02 754.99 477.17 746.55L573.94 688.54 540.26 627.03 458.19 676.04 437.12 598.41C431.53 578.01 412.99 563.87 391.81 563.87Z" fill="#ffffff" stroke="#333333" stroke-width="2" stroke-linecap="round" stroke-linejoin="round" opacity="1"></path><path d="M397.3 526.48C397.3 526.48 360.54 502.02 327.85 529.22 321.04 534.81 307.44 552.24 316.22 576.37 325.65 592.49 343.97 602.25 363.72 599.61 398.28 595.01 416.39 555.75 397.3 526.48Z" fill="#ffffff" stroke="#333333" stroke-width="2" stroke-linecap="round" stroke-linejoin="round" opacity="1"></path><path d="M381.5 547.64L383.25 561.02" stroke="#333333" stroke-width="2" stroke-linecap="round" stroke-linejoin="round" opacity="1" fill="none"></path><path d="M370.63 562.66C371.07 566.17 374.37 568.58 377.77 568.14 381.28 567.71 383.69 564.42 383.25 561.02" stroke="#333333" stroke-width="2" stroke-linecap="round" stroke-linejoin="round" opacity="1" fill="none"></path><path d="M351.11 505.2C325.1 508.6 306.67 532.51 310.18 558.71 310.95 564.74 312.92 570.78 316.22 576.37 327.74 574.83 335.86 564.31 334.32 552.79L332.01 535.14 397.41 526.48C387.53 511.56 369.87 502.68 351.11 505.2Z" fill="#465e6d" stroke="#333333" stroke-width="2" stroke-linecap="round" stroke-linejoin="round" opacity="1"></path><path d="M433.39 760.91L306.12 706.53" stroke="#333333" stroke-width="2" stroke-linecap="round" stroke-linejoin="round" opacity="1" fill="none"></path><path d="M306.12 706.53C322.14 706.53 335.09 693.59 335.09 677.58" stroke="#333333" stroke-width="2" stroke-linecap="round" stroke-linejoin="round" opacity="1" fill="none"></path><path d="M433.39 673.52V662.23" stroke="#333333" stroke-width="2" stroke-linecap="round" stroke-linejoin="round" opacity="1" fill="none"></path><path d="M433.39 741.07V682.73" stroke="#333333" stroke-width="2" stroke-linecap="round" stroke-linejoin="round" opacity="1" fill="none"></path></g><g><path d="M456.32 841.52H390.59V759.72H815.35V841.52H476.04" fill="#787878" opacity="1" stroke-width="2" stroke="none"></path><path d="M456.32 841.52H390.59V759.72H815.35V841.52H476.04" stroke="#333333" stroke-width="2" stroke-linecap="round" stroke-linejoin="round" opacity="1" fill="none"></path><path d="M729.03 748.18H845.44V771.41H360.5V748.18H676.88" fill="#787878" opacity="1" stroke-width="2" stroke="none"></path><path d="M729.03 748.18H845.44V771.41H360.5V748.18H676.88" stroke="#333333" stroke-width="2" stroke-linecap="round" stroke-linejoin="round" opacity="1" fill="none"></path><path d="M815.35 841.52V1020.74" stroke="#333333" stroke-width="2" stroke-linecap="round" stroke-linejoin="round" opacity="1" fill="none"></path><path d="M390.59 841.52V1020.74" stroke="#333333" stroke-width="2" stroke-linecap="round" stroke-linejoin="round" opacity="1" fill="none"></path><path d="M692.66 748.18H714.42" stroke="#333333" stroke-width="2" stroke-linecap="round" stroke-linejoin="round" opacity="1" fill="none"></path></g><g><path d="M567.49 635.01H719.65L667.74 742.78H515.71L567.49 635.01Z" fill="#4686cf" stroke="#333333" stroke-width="2" stroke-linecap="round" stroke-linejoin="round" opacity="1"></path><path d="M672.55 732.91H468.36V747.71H672.55V732.91Z" fill="#4686cf" stroke="#333333" stroke-width="2" stroke-linecap="round" stroke-linejoin="round" opacity="1"></path><path d="M620.02 692.96C624.99 692.96 629.02 688.93 629.02 683.96 629.02 678.99 624.99 674.96 620.02 674.96 615.05 674.96 611.02 678.99 611.02 683.96 611.02 688.93 615.05 692.96 620.02 692.96Z" fill="#ffffff" stroke="#333333" stroke-width="2" stroke-linecap="round" stroke-linejoin="round" opacity="1"></path></g><g><path d="M1329.21 861.67C1342.99 861.67 1356.09 864.8 1367.82 870.37 1386.88 880.24 1405.93 902.42 1415.51 926.66 1417.76 934.58 1419.03 942.89 1419.03 951.49V966.64 972.5 978.66 1022.15H1260.6C1260.6 1009.64 1270.76 999.48 1283.27 999.48H1290.02V905.84H1214.08V861.77H1263.04C1263.04 854.44 1269.01 848.47 1276.34 848.47H1315.72C1323.25 848.38 1329.21 854.34 1329.21 861.67Z" fill="#787878" stroke="#333333" stroke-width="2" stroke-linecap="round" stroke-linejoin="round" opacity="1"></path><path d="M1329.21 861.67V890.7C1329.21 895.78 1325.11 899.98 1319.93 899.98 1314.84 899.98 1310.64 895.88 1310.64 890.7V874.37" stroke="#333333" stroke-width="2" stroke-linecap="round" stroke-linejoin="round" opacity="1" fill="none"></path><path d="M1364.2 999.38H1290.12" stroke="#333333" stroke-width="2" stroke-linecap="round" stroke-linejoin="round" opacity="1" fill="none"></path><path d="M1367.7 870.3C1367.21 873.13 1366.92 876.06 1366.92 879.09 1366.92 905.29 1388.13 926.59 1414.42 926.59 1414.81 926.59 1415.1 926.59 1415.49 926.59 1408.26 901.67 1390.67 881.24 1367.7 870.3Z" fill="#3d72a8" stroke="#333333" stroke-width="2" stroke-linecap="round" stroke-linejoin="round" opacity="1"></path><path d="M1354.52 999.38C1336.44 999.38 1321.69 984.72 1321.69 966.54 1321.69 948.46 1336.35 933.7 1354.52 933.7H1364.2" stroke="#333333" stroke-width="2" stroke-linecap="round" stroke-linejoin="round" opacity="1" fill="none"></path><path d="M1471.91 970.74C1474.06 965.37 1475.23 959.6 1475.23 953.44" stroke="#333333" stroke-width="2" stroke-linecap="round" stroke-linejoin="round" opacity="1" fill="none"></path><path d="M1419.03 999.38H1429.39C1446.1 999.38 1460.76 990.49 1468.78 977.1" stroke="#333333" stroke-width="2" stroke-linecap="round" stroke-linejoin="round" opacity="1" fill="none"></path><path d="M1305.75 964.19V954.91" stroke="#333333" stroke-width="2" stroke-linecap="round" stroke-linejoin="round" opacity="1" fill="none"></path><path d="M1305.75 999.38V971.33" stroke="#333333" stroke-width="2" stroke-linecap="round" stroke-linejoin="round" opacity="1" fill="none"></path><path d="M1214.09 871.66C1219.56 871.66 1223.96 867.26 1223.96 861.79H1214.09V871.66Z" fill="#3d72a8" stroke="#333333" stroke-width="2" stroke-linecap="round" stroke-linejoin="round" opacity="1"></path></g><g><path d="M747.13 748.11H763.32C769.43 748.11 774.47 743.07 774.47 736.96V709.62H735.98V736.96C735.85 743.07 740.89 748.11 747.13 748.11Z" fill="#ababab" stroke="#333333" stroke-width="2" stroke-linecap="round" stroke-linejoin="round" opacity="1"></path><path d="M735.85 713.61C731.07 713.61 727.22 717.45 727.22 722.23 727.22 727.01 731.07 730.86 735.85 730.86" stroke="#333333" stroke-width="2" stroke-linecap="round" stroke-linejoin="round" opacity="1" fill="none"></path></g></svg>