<svg xmlns="http://www.w3.org/2000/svg" version="1.1" xmlns:xlink="http://www.w3.org/1999/xlink" width="512" height="512" x="0" y="0" viewBox="0 0 512.001 512" style="enable-background:new 0 0 512 512" xml:space="preserve" class=""><g><path d="M499.2 179.207c7.066.004 12.796-5.719 12.8-12.785V140.805c0-4.75-2.633-9.11-6.836-11.325l-243.203-128a12.748 12.748 0 0 0-11.922 0l-243.2 128A12.813 12.813 0 0 0 0 140.805v25.601c-.004 7.067 5.719 12.797 12.785 12.801h64.016v230.398H38.402c-7.07 0-12.8 5.735-12.8 12.801v51.203c-.004 7.063 5.718 12.793 12.785 12.801h435.215c7.066.004 12.796-5.722 12.8-12.785v-51.219c0-7.066-5.73-12.8-12.8-12.8h-38.403V179.206zm-345.598 0h64v230.398h-64zm204.796 230.398h-63.996V179.207h64v230.398zm0 0" fill="#000000" opacity="1" data-original="#000000"></path></g></svg>