<svg xmlns="http://www.w3.org/2000/svg" width="35.589" height="27.132" viewBox="0 0 35.589 27.132">
  <g id="Teamwork" transform="translate(1.25 1.289)">
    <g id="Groupe_1" data-name="Groupe 1" transform="translate(0 0)">
      <path id="Tracé_214" data-name="Tracé 214" d="M28.917,39.97a.874.874,0,0,1-.385-.768,1,1,0,0,1,.2-.625c.039-.049.077-.1.105-.137a5.34,5.34,0,0,0,.525-.9,6.589,6.589,0,0,0-.151-5.65,3.6,3.6,0,0,0-3.99-2.127A4.583,4.583,0,0,0,22.1,33.741a6.32,6.32,0,0,0,1.092,4.825,1.027,1.027,0,0,1,.209.626v0a.878.878,0,0,1-.385.776,7.82,7.82,0,0,0-3.5,4.558,13.873,13.873,0,0,0-.691,4.482v1.111A1.642,1.642,0,0,0,20.2,51.936h11.53a1.642,1.642,0,0,0,1.381-1.813V49a13.84,13.84,0,0,0-.692-4.48A7.813,7.813,0,0,0,28.917,39.97Z" transform="translate(-9.423 -27.342)" fill="none" stroke="#4d3223" stroke-width="2.5"/>
      <path id="Tracé_215" data-name="Tracé 215" d="M51.481,41a7.813,7.813,0,0,0-3.5-4.551.875.875,0,0,1-.385-.768,1,1,0,0,1,.2-.625c.039-.049.077-.1.105-.137a5.328,5.328,0,0,0,.525-.9,6.589,6.589,0,0,0-.151-5.65,3.6,3.6,0,0,0-3.99-2.127,4.582,4.582,0,0,0-3.123,3.983,6.32,6.32,0,0,0,1.092,4.825,1.026,1.026,0,0,1,.209.626v0a.877.877,0,0,1-.385.776,6.4,6.4,0,0,0-1.733,1.387,10.124,10.124,0,0,1,3.264,4.874,16.181,16.181,0,0,1,.822,5.272v.43h6.363a1.642,1.642,0,0,0,1.381-1.813V45.483A13.838,13.838,0,0,0,51.481,41Z" transform="translate(-19.085 -26.148)" fill="none" stroke="#4d3223" stroke-width="2.5"/>
      <path id="Tracé_216" data-name="Tracé 216" d="M13.673,37.842a6.392,6.392,0,0,0-1.737-1.39.875.875,0,0,1-.385-.768,1,1,0,0,1,.2-.625c.039-.049.077-.1.105-.137a5.334,5.334,0,0,0,.525-.9,6.589,6.589,0,0,0-.151-5.65,3.6,3.6,0,0,0-3.99-2.127,4.582,4.582,0,0,0-3.123,3.983A6.32,6.32,0,0,0,6.21,35.049a1.026,1.026,0,0,1,.209.626v0a.877.877,0,0,1-.385.776,7.82,7.82,0,0,0-3.5,4.558,13.874,13.874,0,0,0-.691,4.482v1.111a1.642,1.642,0,0,0,1.381,1.813H9.585V48a16.222,16.222,0,0,1,.82-5.273,10.13,10.13,0,0,1,3.267-4.885Z" transform="translate(-1.84 -26.148)" fill="none" stroke="#4d3223" stroke-width="2.5"/>
    </g>
  </g>
</svg>
