<svg xmlns="http://www.w3.org/2000/svg" width="9.839" height="7.98" viewBox="0 0 9.839 7.98">
  <path id="Tracé_39" data-name="Tracé 39" d="M41.116,9.98a5.688,5.688,0,0,0,5.739-5.739V3.968a4.443,4.443,0,0,0,.984-1.039,4.537,4.537,0,0,1-1.148.328,2.127,2.127,0,0,0,.875-1.093,5.014,5.014,0,0,1-1.257.492A1.952,1.952,0,0,0,44.832,2,2.054,2.054,0,0,0,42.81,4.022a1.066,1.066,0,0,0,.055.437,5.651,5.651,0,0,1-4.154-2.132,2.093,2.093,0,0,0-.273,1.039,2.172,2.172,0,0,0,.875,1.694,1.843,1.843,0,0,1-.929-.273h0a2,2,0,0,0,1.64,1.968,1.685,1.685,0,0,1-.547.055.93.93,0,0,1-.383-.055,2.071,2.071,0,0,0,1.913,1.421,4.127,4.127,0,0,1-2.514.875A1.513,1.513,0,0,1,38,9a5.159,5.159,0,0,0,3.116.984" transform="translate(-38 -2)" fill="#4d3223" fill-rule="evenodd"/>
</svg>
